<?xml version="1.0" encoding="utf-8"?>
<!-- Generator: Adobe Illustrator 16.0.0, SVG Export Plug-In . SVG Version: 6.00 Build 0)  -->
<!DOCTYPE svg PUBLIC "-//W3C//DTD SVG 1.1//EN" "http://www.w3.org/Graphics/SVG/1.1/DTD/svg11.dtd">
<svg version="1.1" id="Layer_1" xmlns="http://www.w3.org/2000/svg" xmlns:xlink="http://www.w3.org/1999/xlink" x="0px" y="0px"
	 width="1989.16px" height="1080px" viewBox="0 0 1989.16 1080" enable-background="new 0 0 1989.16 1080" xml:space="preserve">
<g opacity="0.4">
	<g>
		<g>
			<path fill="#6B6B6B" d="M1326.475,0v1080H0V0H1326.475z M1325.327,1078.853V1.147H1.147v1077.705H1325.327z"/>
		</g>
		<g>
			<rect x="1242.494" y="0.566" fill="#6B6B6B" width="1.146" height="1078.858"/>
		</g>
		<g>
			<rect x="1159.667" y="0.566" fill="#6B6B6B" width="1.148" height="1078.858"/>
		</g>
		<g>
			<rect x="1076.827" y="0.566" fill="#6B6B6B" width="1.146" height="1078.858"/>
		</g>
		<g>
			<rect x="994" y="0.566" fill="#6B6B6B" width="1.145" height="1078.858"/>
		</g>
		<g>
			<rect x="911.157" y="0.566" fill="#6B6B6B" width="1.147" height="1078.858"/>
		</g>
		<g>
			<rect x="828.333" y="0.566" fill="#6B6B6B" width="1.147" height="1078.858"/>
		</g>
		<g>
			<rect x="745.499" y="0.566" fill="#6B6B6B" width="1.147" height="1078.858"/>
		</g>
		<g>
			<rect x="662.664" y="0.566" fill="#6B6B6B" width="1.147" height="1078.858"/>
		</g>
		<g>
			<rect x="579.831" y="0.566" fill="#6B6B6B" width="1.147" height="1078.858"/>
		</g>
		<g>
			<rect x="496.996" y="0.566" fill="#6B6B6B" width="1.146" height="1078.858"/>
		</g>
		<g>
			<rect x="414.17" y="0.566" fill="#6B6B6B" width="1.147" height="1078.858"/>
		</g>
		<g>
			<rect x="331.328" y="0.566" fill="#6B6B6B" width="1.147" height="1078.858"/>
		</g>
		<g>
			<rect x="248.501" y="0.566" fill="#6B6B6B" width="1.147" height="1078.858"/>
		</g>
		<g>
			<rect x="165.668" y="0.566" fill="#6B6B6B" width="1.147" height="1078.858"/>
		</g>
		<g>
			<rect x="82.834" y="0.566" fill="#6B6B6B" width="1.146" height="1078.858"/>
		</g>
		<g>
			<rect x="0.574" y="82.984" fill="#6B6B6B" width="1325.329" height="1.147"/>
		</g>
		<g>
			<rect x="0.574" y="165.974" fill="#6B6B6B" width="1325.329" height="1.147"/>
		</g>
		<g>
			<rect x="0.574" y="248.956" fill="#6B6B6B" width="1325.329" height="1.147"/>
		</g>
		<g>
			<rect x="0.574" y="331.948" fill="#6B6B6B" width="1325.329" height="1.147"/>
		</g>
		<g>
			<rect x="0.574" y="414.938" fill="#6B6B6B" width="1325.329" height="1.147"/>
		</g>
		<g>
			<rect x="0.574" y="497.928" fill="#6B6B6B" width="1325.329" height="1.147"/>
		</g>
		<g>
			<rect x="0.574" y="580.92" fill="#6B6B6B" width="1325.329" height="1.146"/>
		</g>
		<g>
			<rect x="0.574" y="663.909" fill="#6B6B6B" width="1325.329" height="1.146"/>
		</g>
		<g>
			<rect x="0.574" y="746.899" fill="#6B6B6B" width="1325.329" height="1.146"/>
		</g>
		<g>
			<rect x="0.574" y="829.889" fill="#6B6B6B" width="1325.329" height="1.147"/>
		</g>
		<g>
			<rect x="0.574" y="912.878" fill="#6B6B6B" width="1325.329" height="1.147"/>
		</g>
		<g>
			<rect x="0.574" y="995.863" fill="#6B6B6B" width="1325.329" height="1.147"/>
		</g>
	</g>
</g>
<g opacity="0.4">
	<g>
		<g>
			<path fill="#6B6B6B" d="M2651.824,0v1080H1325.35V0H2651.824z M2650.676,1078.853V1.147h-1324.18v1077.705H2650.676z"/>
		</g>
		<g>
			<rect x="1988.014" y="0.566" fill="#6B6B6B" width="1.146" height="1078.858"/>
		</g>
		<g>
			<rect x="1905.18" y="0.566" fill="#6B6B6B" width="1.147" height="1078.858"/>
		</g>
		<g>
			<rect x="1822.346" y="0.566" fill="#6B6B6B" width="1.146" height="1078.858"/>
		</g>
		<g>
			<rect x="1739.52" y="0.566" fill="#6B6B6B" width="1.146" height="1078.858"/>
		</g>
		<g>
			<rect x="1656.678" y="0.566" fill="#6B6B6B" width="1.146" height="1078.858"/>
		</g>
		<g>
			<rect x="1573.852" y="0.566" fill="#6B6B6B" width="1.146" height="1078.858"/>
		</g>
		<g>
			<rect x="1491.018" y="0.566" fill="#6B6B6B" width="1.146" height="1078.858"/>
		</g>
		<g>
			<rect x="1408.184" y="0.566" fill="#6B6B6B" width="1.146" height="1078.858"/>
		</g>
		<g>
			<rect x="1325.923" y="82.984" fill="#6B6B6B" width="1325.329" height="1.147"/>
		</g>
		<g>
			<rect x="1325.923" y="165.974" fill="#6B6B6B" width="1325.329" height="1.147"/>
		</g>
		<g>
			<rect x="1325.923" y="248.956" fill="#6B6B6B" width="1325.329" height="1.147"/>
		</g>
		<g>
			<rect x="1325.923" y="331.948" fill="#6B6B6B" width="1325.329" height="1.147"/>
		</g>
		<g>
			<rect x="1325.923" y="414.938" fill="#6B6B6B" width="1325.329" height="1.147"/>
		</g>
		<g>
			<rect x="1325.923" y="497.928" fill="#6B6B6B" width="1325.329" height="1.147"/>
		</g>
		<g>
			<rect x="1325.923" y="580.92" fill="#6B6B6B" width="1325.329" height="1.146"/>
		</g>
		<g>
			<rect x="1325.923" y="663.909" fill="#6B6B6B" width="1325.329" height="1.146"/>
		</g>
		<g>
			<rect x="1325.923" y="746.899" fill="#6B6B6B" width="1325.329" height="1.146"/>
		</g>
		<g>
			<rect x="1325.923" y="829.889" fill="#6B6B6B" width="1325.329" height="1.147"/>
		</g>
		<g>
			<rect x="1325.923" y="912.878" fill="#6B6B6B" width="1325.329" height="1.147"/>
		</g>
		<g>
			<rect x="1325.923" y="995.863" fill="#6B6B6B" width="1325.329" height="1.147"/>
		</g>
	</g>
</g>
</svg>
