<svg width="49" height="49" viewBox="0 0 49 49" fill="none" xmlns="http://www.w3.org/2000/svg">
<circle cx="24.5" cy="24.5" r="24.5" fill="#232323"/>
<path d="M18.0967 14.8333C18.0964 15.4522 17.8503 16.0455 17.4125 16.4829C16.9747 16.9203 16.3811 17.1658 15.7622 17.1655C15.1434 17.1652 14.55 16.9191 14.1126 16.4813C13.6753 16.0435 13.4297 15.4498 13.4301 14.831C13.4304 14.2122 13.6765 13.6188 14.1143 13.1814C14.5521 12.7441 15.1457 12.4985 15.7646 12.4988C16.3834 12.4992 16.9768 12.7453 17.4141 13.1831C17.8515 13.6209 18.097 14.2145 18.0967 14.8333V14.8333ZM18.1667 18.8933H13.5001V33.5H18.1667V18.8933ZM25.5401 18.8933H20.8967V33.5H25.4934V25.835C25.4934 21.565 31.0584 21.1683 31.0584 25.835V33.5H35.6667V24.2483C35.6667 17.05 27.4301 17.3183 25.4934 20.8533L25.5401 18.8933V18.8933Z" fill="#F1F1F1"/>
</svg>
