<svg width="49" height="49" viewBox="0 0 49 49" fill="none" xmlns="http://www.w3.org/2000/svg">
<circle cx="24.5" cy="24.5" r="24.5" fill="#232323"/>
<g clip-path="url(#clip0_849_164)">
<path d="M31.118 28.6667C30.6503 28.6685 30.1877 28.7647 29.7581 28.9497C29.3285 29.1347 28.9407 29.4045 28.618 29.7431L20.1527 25.507C20.361 24.8755 20.361 24.1939 20.1527 23.5625L28.6319 19.25C29.2392 19.89 30.0629 20.2814 30.9427 20.348C31.8225 20.4146 32.6956 20.1517 33.3924 19.6104C34.0891 19.0691 34.5597 18.288 34.7127 17.4191C34.8657 16.5501 34.6902 15.6553 34.2202 14.9086C33.7502 14.1619 33.0193 13.6166 32.1697 13.3787C31.32 13.1408 30.4123 13.2273 29.6229 13.6214C28.8335 14.0155 28.2188 14.6891 27.8983 15.5111C27.5778 16.3332 27.5745 17.2451 27.8888 18.0695L19.493 22.3403C19.0396 21.7858 18.4257 21.385 17.7356 21.193C17.0455 21.001 16.3129 21.0272 15.6382 21.2679C14.9635 21.5086 14.3798 21.9521 13.9671 22.5376C13.5543 23.1231 13.3328 23.8219 13.3328 24.5382C13.3328 25.2546 13.5543 25.9534 13.9671 26.5388C14.3798 27.1243 14.9635 27.5678 15.6382 27.8085C16.3129 28.0492 17.0455 28.0754 17.7356 27.8834C18.4257 27.6914 19.0396 27.2907 19.493 26.7361L27.868 30.9514C27.7265 31.3314 27.6536 31.7335 27.6527 32.1389C27.6527 32.8257 27.8564 33.497 28.2379 34.068C28.6194 34.639 29.1617 35.084 29.7962 35.3468C30.4307 35.6096 31.1288 35.6784 31.8024 35.5444C32.4759 35.4104 33.0946 35.0797 33.5802 34.5941C34.0658 34.1085 34.3965 33.4899 34.5305 32.8163C34.6644 32.1428 34.5957 31.4446 34.3329 30.8102C34.0701 30.1757 33.625 29.6334 33.054 29.2519C32.483 28.8703 31.8117 28.6667 31.125 28.6667H31.118Z" fill="#F6F6F6"/>
</g>
<defs>
<clipPath id="clip0_849_164">
<rect width="25" height="25" fill="white" transform="translate(12 12)"/>
</clipPath>
</defs>
</svg>
