<svg width="49" height="49" viewBox="0 0 49 49" fill="none" xmlns="http://www.w3.org/2000/svg">
<circle cx="24.5" cy="24.5" r="24.5" fill="#232323"/>
<path d="M11.5809 23.1795C17.7561 20.4984 21.8729 18.7307 23.9313 17.8767C29.8152 15.438 31.0364 15.0145 31.8339 15.0001C32.0093 14.9973 32.3998 15.0405 32.6546 15.2459C32.8664 15.419 32.926 15.6532 32.9558 15.8177C32.9822 15.9819 33.0186 16.3563 32.9888 16.6486C32.6712 19.9868 31.2912 28.0874 30.5896 31.8264C30.2951 33.4084 29.7093 33.9388 29.1434 33.9906C27.9124 34.1034 26.9791 33.1805 25.7878 32.4023C23.9246 31.1841 22.8723 30.4261 21.0621 29.2377C18.9706 27.8641 20.3274 27.1091 21.5188 25.8754C21.8298 25.5525 27.2505 20.6392 27.3531 20.1936C27.3663 20.1378 27.3796 19.93 27.2538 19.8205C27.1314 19.7107 26.9494 19.7483 26.817 19.778C26.6283 19.8202 23.6533 21.7822 17.8818 25.6636C17.038 26.2422 16.2735 26.5242 15.5852 26.5094C14.8306 26.4932 13.3745 26.0832 12.2924 25.7329C10.9687 25.3031 9.91301 25.0758 10.0057 24.3458C10.052 23.9658 10.5782 23.5769 11.5809 23.1795V23.1795Z" fill="white"/>
</svg>
