<svg width="49" height="49" viewBox="0 0 49 49" fill="none" xmlns="http://www.w3.org/2000/svg">
<circle cx="24.5" cy="24.5" r="24.5" fill="#232323"/>
<g clip-path="url(#clip0_849_140)">
<path d="M33.9517 14.7798C32.7139 13.5768 31.2398 12.623 29.6153 11.9741C27.9909 11.3252 26.2485 10.9941 24.4899 11.0001C17.1206 11.0001 11.1148 16.7818 11.108 23.8798C11.108 26.1532 11.7256 28.3648 12.8917 30.323L11 37.0001L18.0943 35.2093C20.0568 36.2378 22.2555 36.7769 24.4899 36.7775H24.4966C31.8676 36.7775 37.8718 30.9957 37.8785 23.8912C37.8802 22.198 37.5339 20.5213 36.8597 18.9575C36.1855 17.3938 35.1966 15.9739 33.95 14.7798H33.9517ZM24.4899 34.5967C22.4969 34.5973 20.5406 34.0809 18.8266 33.1017L18.4216 32.8677L14.213 33.9305L15.3369 29.9768L15.0736 29.569C13.9595 27.8632 13.3703 25.8884 13.3743 23.8733C13.3743 17.9811 18.3643 13.1743 24.4966 13.1743C25.9576 13.1718 27.4046 13.4478 28.7542 13.9863C30.1039 14.5249 31.3295 15.3154 32.3604 16.3122C33.3949 17.3052 34.215 18.4855 34.7734 19.7852C35.3318 21.0849 35.6174 22.4782 35.6139 23.8847C35.6071 29.7981 30.6172 34.5967 24.4899 34.5967ZM30.5902 26.579C30.2578 26.4181 28.6158 25.6397 28.307 25.5292C27.9999 25.4236 27.7754 25.3683 27.5561 25.6901C27.3316 26.0102 26.6904 26.7398 26.498 26.9495C26.3056 27.1656 26.1065 27.19 25.7724 27.0307C25.4399 26.8682 24.3616 26.5302 23.0859 25.4301C22.0903 24.577 21.4237 23.5207 21.2246 23.2006C21.0322 22.8788 21.206 22.7066 21.3731 22.5457C21.5199 22.4027 21.7055 22.1687 21.8726 21.9835C22.0413 21.7982 22.097 21.6617 22.2067 21.4472C22.3164 21.2295 22.2641 21.0442 22.1814 20.8833C22.097 20.7225 21.4304 19.1348 21.1486 18.4946C20.8786 17.8625 20.6036 17.9502 20.3977 17.9421C20.2053 17.9307 19.9809 17.9307 19.7564 17.9307C19.587 17.9348 19.4202 17.9725 19.2665 18.0416C19.1129 18.1107 18.9758 18.2096 18.8638 18.3321C18.5566 18.6538 17.6977 19.4322 17.6977 21.0198C17.6977 22.6075 18.8958 24.1333 19.0646 24.3495C19.2299 24.5656 21.4169 27.814 24.7734 29.2115C25.5665 29.5446 26.1909 29.7412 26.6786 29.8907C27.4801 30.1377 28.2041 30.1003 28.7812 30.0207C29.4224 29.9265 30.7573 29.2407 31.0391 28.4883C31.3158 27.7343 31.3158 27.0908 31.2314 26.956C31.1488 26.8195 30.9243 26.7398 30.5902 26.579Z" fill="#F6F6F6"/>
</g>
<defs>
<clipPath id="clip0_849_140">
<rect width="27" height="26" fill="white" transform="translate(11 11)"/>
</clipPath>
</defs>
</svg>
