<svg width="691" height="363" viewBox="0 0 691 363" fill="none" xmlns="http://www.w3.org/2000/svg">
<path d="M211.7 333.851C213.6 333.851 215.25 334.171 216.65 334.811C218.05 335.431 219.13 336.331 219.89 337.511C220.65 338.671 221.03 340.041 221.03 341.621C221.03 343.201 220.65 344.571 219.89 345.731C219.13 346.891 218.05 347.791 216.65 348.431C215.25 349.051 213.6 349.361 211.7 349.361H208.04V354.851H202.1V333.851H211.7ZM211.34 344.681C212.56 344.681 213.48 344.421 214.1 343.901C214.72 343.361 215.03 342.601 215.03 341.621C215.03 340.641 214.72 339.881 214.1 339.341C213.48 338.801 212.56 338.531 211.34 338.531H208.04V344.681H211.34ZM236.941 350.771H228.061L226.411 354.851H220.351L229.621 333.851H235.471L244.771 354.851H238.591L236.941 350.771ZM235.201 346.391L232.501 339.671L229.801 346.391H235.201ZM260.233 343.901H265.483V352.601C264.283 353.461 262.903 354.121 261.343 354.581C259.783 355.041 258.223 355.271 256.663 355.271C254.463 355.271 252.483 354.811 250.723 353.891C248.963 352.951 247.583 351.651 246.583 349.991C245.583 348.331 245.083 346.451 245.083 344.351C245.083 342.251 245.583 340.371 246.583 338.711C247.583 337.051 248.973 335.761 250.753 334.841C252.533 333.901 254.543 333.431 256.783 333.431C258.743 333.431 260.503 333.761 262.063 334.421C263.623 335.081 264.923 336.031 265.963 337.271L262.183 340.691C260.763 339.131 259.063 338.351 257.083 338.351C255.283 338.351 253.833 338.901 252.733 340.001C251.633 341.081 251.083 342.531 251.083 344.351C251.083 345.511 251.333 346.551 251.833 347.471C252.333 348.371 253.033 349.081 253.933 349.601C254.833 350.101 255.863 350.351 257.023 350.351C258.163 350.351 259.233 350.121 260.233 349.661V343.901ZM286.108 350.261V354.851H269.248V333.851H285.718V338.441H275.128V341.981H284.458V346.421H275.128V350.261H286.108ZM318.115 333.851V354.851H313.225L303.955 343.661V354.851H298.135V333.851H303.025L312.295 345.041V333.851H318.115ZM332.895 355.271C330.675 355.271 328.675 354.801 326.895 353.861C325.135 352.921 323.745 351.621 322.725 349.961C321.725 348.301 321.225 346.431 321.225 344.351C321.225 342.271 321.725 340.401 322.725 338.741C323.745 337.081 325.135 335.781 326.895 334.841C328.675 333.901 330.675 333.431 332.895 333.431C335.115 333.431 337.105 333.901 338.865 334.841C340.645 335.781 342.035 337.081 343.035 338.741C344.055 340.401 344.565 342.271 344.565 344.351C344.565 346.431 344.055 348.301 343.035 349.961C342.035 351.621 340.645 352.921 338.865 353.861C337.105 354.801 335.115 355.271 332.895 355.271ZM332.895 350.351C333.955 350.351 334.915 350.101 335.775 349.601C336.635 349.101 337.315 348.401 337.815 347.501C338.315 346.581 338.565 345.531 338.565 344.351C338.565 343.171 338.315 342.131 337.815 341.231C337.315 340.311 336.635 339.601 335.775 339.101C334.915 338.601 333.955 338.351 332.895 338.351C331.835 338.351 330.875 338.601 330.015 339.101C329.155 339.601 328.475 340.311 327.975 341.231C327.475 342.131 327.225 343.171 327.225 344.351C327.225 345.531 327.475 346.581 327.975 347.501C328.475 348.401 329.155 349.101 330.015 349.601C330.875 350.101 331.835 350.351 332.895 350.351ZM351.853 338.561H345.403V333.851H364.213V338.561H357.793V354.851H351.853V338.561ZM381.097 338.441V343.061H390.367V347.651H381.097V354.851H375.157V333.851H391.627V338.441H381.097ZM404.819 355.271C402.599 355.271 400.599 354.801 398.819 353.861C397.059 352.921 395.669 351.621 394.649 349.961C393.649 348.301 393.149 346.431 393.149 344.351C393.149 342.271 393.649 340.401 394.649 338.741C395.669 337.081 397.059 335.781 398.819 334.841C400.599 333.901 402.599 333.431 404.819 333.431C407.039 333.431 409.029 333.901 410.789 334.841C412.569 335.781 413.959 337.081 414.959 338.741C415.979 340.401 416.489 342.271 416.489 344.351C416.489 346.431 415.979 348.301 414.959 349.961C413.959 351.621 412.569 352.921 410.789 353.861C409.029 354.801 407.039 355.271 404.819 355.271ZM404.819 350.351C405.879 350.351 406.839 350.101 407.699 349.601C408.559 349.101 409.239 348.401 409.739 347.501C410.239 346.581 410.489 345.531 410.489 344.351C410.489 343.171 410.239 342.131 409.739 341.231C409.239 340.311 408.559 339.601 407.699 339.101C406.839 338.601 405.879 338.351 404.819 338.351C403.759 338.351 402.799 338.601 401.939 339.101C401.079 339.601 400.399 340.311 399.899 341.231C399.399 342.131 399.149 343.171 399.149 344.351C399.149 345.531 399.399 346.581 399.899 347.501C400.399 348.401 401.079 349.101 401.939 349.601C402.799 350.101 403.759 350.351 404.819 350.351ZM429.29 355.271C426.17 355.271 423.74 354.421 422 352.721C420.28 351.021 419.42 348.611 419.42 345.491V333.851H425.36V345.311C425.36 348.671 426.69 350.351 429.35 350.351C431.99 350.351 433.31 348.671 433.31 345.311V333.851H439.16V345.491C439.16 348.611 438.29 351.021 436.55 352.721C434.83 354.421 432.41 355.271 429.29 355.271ZM463.164 333.851V354.851H458.274L449.004 343.661V354.851H443.184V333.851H448.074L457.344 345.041V333.851H463.164ZM467.354 333.851H477.284C479.584 333.851 481.624 334.281 483.404 335.141C485.184 336.001 486.564 337.221 487.544 338.801C488.524 340.381 489.014 342.231 489.014 344.351C489.014 346.471 488.524 348.321 487.544 349.901C486.564 351.481 485.184 352.701 483.404 353.561C481.624 354.421 479.584 354.851 477.284 354.851H467.354V333.851ZM477.044 350.111C478.844 350.111 480.284 349.601 481.364 348.581C482.464 347.561 483.014 346.151 483.014 344.351C483.014 342.551 482.464 341.141 481.364 340.121C480.284 339.101 478.844 338.591 477.044 338.591H473.294V350.111H477.044Z" fill="white"/>
<path d="M119.477 83.5794H111.424L106.49 90.4486H114.542L119.477 83.5794Z" fill="#53AAFF"/>
<path d="M119.799 189.958H127.852V162.243H119.88L119.799 162.358V189.958Z" fill="#53AAFF"/>
<path d="M127.852 194.306H119.799V194.522H127.852V194.306Z" fill="#53AAFF"/>
<path d="M25.8622 202.116L54.6359 162.07H46.583L17.8093 202.116V211.838H25.8622V202.116Z" fill="#53AAFF"/>
<path d="M25.8639 220.533H17.8093V237.107H25.8639V220.533Z" fill="#53AAFF"/>
<path d="M126.226 267.278H118.171V273.454H126.226V267.278Z" fill="#53AAFF"/>
<path d="M71.0987 127.952L55.9976 148.969H64.0522L79.1516 127.952H71.0987Z" fill="#53AAFF"/>
<path d="M258.295 189.326H285.111V184.978H269.559H254.007H249.994C250.402 195.598 251.834 205.427 254.289 214.466H262.342C260.225 206.676 258.891 198.286 258.295 189.326Z" fill="#53AAFF"/>
<path d="M260.37 151.142H252.315C250.686 159.644 249.848 168.757 249.848 178.516C249.848 179.232 249.885 179.919 249.895 180.628H257.948C257.94 179.919 257.901 179.232 257.901 178.516C257.901 168.757 258.74 159.646 260.37 151.142Z" fill="#53AAFF"/>
<path d="M363.038 220.533H382.649V216.187H359.918H357.293C356.653 217.605 355.97 218.934 355.227 220.155C351.569 226.168 347.04 230.116 341.644 232.007C342.944 232.456 344.3 232.777 345.703 232.995C352.768 231.882 358.546 227.733 363.038 220.533Z" fill="#53AAFF"/>
<path d="M256.753 222.255C257.791 225.163 258.928 227.993 260.201 230.72H268.256C266.982 227.995 265.846 225.163 264.808 222.255H256.753Z" fill="#53AAFF"/>
<path d="M271.92 237.797H263.867C270.657 249.663 279.444 258.944 290.265 265.587C302.919 273.364 317.39 277.251 333.663 277.251C335.016 277.251 336.34 277.184 337.669 277.13C323.04 276.532 309.908 272.712 298.317 265.587C287.497 258.944 278.709 249.663 271.92 237.797Z" fill="#53AAFF"/>
<path d="M498.192 179.684H510.579V172.606H496.216H495.225L474.021 202.116V217.987H482.074V202.116L498.192 179.684Z" fill="#53AAFF"/>
<path d="M582.439 237.108H574.384V237.265H582.439V237.108Z" fill="#53AAFF"/>
<path d="M577.373 254.78H569.318V273.454H577.373V254.78Z" fill="#53AAFF"/>
<path d="M576.011 194.522H584.066V162.243H576.094L576.011 162.361V194.522Z" fill="#53AAFF"/>
<path d="M539.157 111.465L516.832 142.535H524.887L547.212 111.465H539.157Z" fill="#53AAFF"/>
<path d="M89.3335 194.522H97.3881L119.799 162.357L119.88 162.243L127.614 151.142H119.561L89.3335 194.522Z" fill="#FF2B7F"/>
<path d="M186.63 176.326H178.577V194.52H186.63V176.326Z" fill="#FF2B7F"/>
<path d="M186.63 237.108H178.577V273.454H186.63V237.108Z" fill="#FF2B7F"/>
<path d="M214.839 194.522H206.786V209.11H196.222V216.187H206.786V237.108H214.839V234.258H223.246V229.91H214.839V194.522Z" fill="#FF2B7F"/>
<path d="M186.63 162.243H178.577V168.355H186.63V162.243Z" fill="#FF2B7F"/>
<path d="M178.351 90.4486L183.137 83.5794H175.084L170.298 90.4486H178.351Z" fill="#FF2B7F"/>
<path d="M125.622 142.447H133.675L163.848 99.1449H155.795L125.622 142.447Z" fill="#FF2B7F"/>
<path d="M345.722 277.13C347.066 277.184 348.403 277.251 349.769 277.251C365.862 277.251 380.24 273.364 392.899 265.587C396.962 263.091 400.709 260.188 404.205 256.956H396.15C392.655 260.188 388.908 263.092 384.845 265.587C373.251 272.712 360.2 276.53 345.722 277.13Z" fill="#FF2B7F"/>
<path d="M313.594 155.492C312.58 161.37 312.016 168.112 311.906 175.726H319.959C320.068 168.112 320.632 161.37 321.647 155.492H318.66H313.594Z" fill="#FF2B7F"/>
<path d="M422.603 231.546C425.997 224.459 428.555 216.729 430.339 208.395H422.284C420.502 216.729 417.943 224.459 414.548 231.546C410.678 239.626 405.972 246.622 400.486 252.608H404.587H435.691V248.26H412.238C416.159 243.292 419.633 237.747 422.603 231.546Z" fill="#FF2B7F"/>
<path d="M341.718 233.309C343.093 233.309 344.418 233.196 345.706 232.993C344.303 232.775 342.946 232.455 341.647 232.005C336.163 230.116 331.592 226.166 327.936 220.153C323.518 212.894 320.938 202.122 320.178 187.864H327.996V183.516H323.67H315.855H311.953C312.39 199.951 315.026 212.176 319.881 220.153C325.214 228.927 332.497 233.309 341.718 233.309Z" fill="#FF2B7F"/>
<path d="M642.843 162.243H634.789V194.522H642.843V162.243Z" fill="#FF2B7F"/>
<path d="M642.843 237.108H634.789V250.433H642.843V237.108Z" fill="#FF2B7F"/>
<path d="M599.33 128.896L630.907 83.5794H622.854L591.276 128.896H599.33Z" fill="#FF2B7F"/>
<path d="M637.778 259.129H629.723V273.454H637.778V259.129Z" fill="#FF2B7F"/>
<path d="M671.053 208.848H662.999V237.107H671.053V208.848Z" fill="#FF2B7F"/>
<path d="M545.547 194.522H553.601L576.011 162.361L576.094 162.243L590.2 141.998H582.145L545.547 194.522Z" fill="#FF2B7F"/>
<path d="M170.299 90.4486L175.084 83.5794H167.031H127.53H119.477L114.543 90.4486H170.299Z" fill="white"/>
<path d="M196.222 216.187V209.11H206.786V194.522H198.731H186.629H178.576V176.327H186.629H201.237V172.704V171.979H168.584V168.355H178.576V162.243H170.521H135.903H127.85V189.958H144.115V194.306H127.85V194.522H119.798H97.3864H89.3318L119.559 151.144H127.612H136.986V146.795H118.024V142.447H125.618L155.792 99.1449H163.846H180.236V94.7968H118.026H102.972L85.3974 119.256H108.268V123.604H96.1234H77.1655H74.2223H65.0211V127.952H71.0984H79.1513L64.0519 148.969H71.9562V155.52H33.9172V162.07H46.5833H54.6362L25.8625 202.116V211.838H17.8079H0V216.187H60.4872V220.533H25.8625V237.107H33.9155H118.17H126.224V258.581H133.578V262.929H150.27V267.277H126.223V273.452H134.276H170.521H178.576V237.107H186.629H198.731H206.786V216.185H196.222V216.187ZM75.3199 220.533H70.9717V216.187H75.3199V220.533ZM154.738 234.258H150.39V229.91H154.738V234.258Z" fill="white"/>
<path d="M422.284 208.395H414.373H352.27V216.187H357.295H359.919H382.651V220.533H363.04C358.548 227.733 352.77 231.882 345.707 232.993C344.418 233.194 343.093 233.309 341.718 233.309C332.498 233.309 325.215 228.927 319.883 220.155C315.028 212.176 312.392 199.952 311.955 183.517H309.282V175.726H311.908C312.017 168.112 312.581 161.37 313.596 155.492H318.662H321.649H326.715H346.448V151.144H343.655H284.345V155.492H279.279V151.144H260.37C258.74 159.646 257.901 168.759 257.901 178.517C257.901 179.233 257.938 179.921 257.948 180.63H269.559V184.978H285.111V189.326H258.295C258.891 198.288 260.226 206.676 262.34 214.466H254.288H239.867V222.255H256.753H264.808C265.846 225.163 266.982 227.993 268.256 230.72H279.277V237.797H271.922C278.711 249.663 287.499 258.944 298.321 265.587C309.912 272.712 323.044 276.53 337.672 277.13C339.015 277.184 340.352 277.251 341.72 277.251C343.072 277.251 344.396 277.184 345.725 277.13C360.201 276.532 373.254 272.712 384.85 265.587C388.913 263.091 392.66 260.188 396.155 256.956H332.015V252.608H400.49C405.976 246.622 410.682 239.626 414.552 231.546C417.943 224.457 420.503 216.727 422.284 208.395Z" fill="white"/>
<path d="M577.373 254.78V273.454H585.424H621.668H629.723V259.129H637.776H646.411V254.78H584.2H577.373Z" fill="white"/>
<path d="M654.944 194.522H642.842H634.787V162.243H626.733H592.115H584.062V194.522H576.007H553.598H545.543L582.142 142H590.196H611.691V135.448H564.479V128.898H591.272L622.851 83.5811H614.796H575.295H567.242L555.926 99.3273H572.936V103.675H550.202H544.75H518.48V111.467H539.15H547.205L524.88 142.537H528.983V146.708H541.442V151.056H518.759L508.357 165.532H545.015V172.609H510.574V179.686H498.187L482.069 202.117V217.988H527.262V222.337H496.748V226.507H482.071V237.108H490.125H574.381H582.436V237.265H585.298V241.612H600.629V245.96H582.436V250.431H634.786V237.107H642.84H654.942H662.997V208.848H597.329V204.5H662.997V194.522H654.944V194.522ZM593.271 90.4486H597.62V94.7968H593.271V90.4486ZM507.901 204.046H500.112V196.256H507.901V204.046ZM556.425 226.506H552.076V222.158H556.425V226.506ZM601.785 226.825H609.577V234.616H601.785V226.825Z" fill="white"/>
<path d="M541.447 151.054V146.706H528.99V146.883H518.717H513.709L500.31 165.529H508.364L518.766 151.054H541.447Z" fill="#53AAFF"/>
<path d="M572.943 103.674V99.3256H555.933L567.249 83.5794H559.194L544.755 103.674H550.209H572.943Z" fill="#53AAFF"/>
<path d="M96.1269 123.604H108.271V119.256H85.4009L102.974 94.7968H94.9212L77.348 119.256H77.1656V119.508L74.2224 123.604H77.1656H96.1269Z" fill="#53AAFF"/>
<path d="M126.226 258.581V237.108H118.171V258.581H102.476V262.93H133.58V258.581H126.226Z" fill="#53AAFF"/>
<path d="M671.051 200.152V194.522H662.999V204.5H664.662H686.053H690.146V200.152H671.051Z" fill="#FF2B7F"/>
<path d="M198.397 262.93H194.049V267.278H198.397V262.93Z" fill="#FF2B7F"/>
<path d="M597.62 90.4486H593.271V94.7967H597.62V90.4486Z" fill="#FF2B7F"/>
<path d="M67.196 104.942H62.8479V109.29H67.196V104.942Z" fill="#53AAFF"/>
<path d="M154.738 229.91H150.39V234.258H154.738V229.91Z" fill="#53AAFF"/>
<path d="M556.423 222.158H552.075V226.506H556.423V222.158Z" fill="#53AAFF"/>
<path d="M191.759 94.7968H187.411V99.1449H191.759V94.7968Z" fill="white"/>
<path d="M502.285 126.721H497.937V131.07H502.285V126.721Z" fill="white"/>
<path d="M161.411 136.549H157.063V140.897H161.411V136.549Z" fill="white"/>
<path d="M8.51391 170.529H4.16577V174.877H8.51391V170.529Z" fill="white"/>
<path d="M547.195 258.581H542.849V262.929H547.195V258.581Z" fill="white"/>
<path d="M657.933 254.78H653.585V259.128H657.933V254.78Z" fill="white"/>
<path d="M280.802 113.186H272.747C270.142 116.985 267.749 121.06 265.628 125.489C262.486 132.047 260.078 139.171 258.318 146.795H266.373C268.132 139.171 270.54 132.047 273.683 125.489C275.802 121.06 278.197 116.985 280.802 113.186Z" fill="#53AAFF"/>
<path d="M303.385 91.4449C314.976 84.3258 328.108 80.5028 342.736 79.905C341.407 79.8493 340.083 79.7818 338.731 79.7818C322.458 79.7818 307.987 83.6723 295.332 91.4449C289.155 95.2409 283.645 99.8997 278.782 105.394H286.835C291.698 99.8997 297.207 95.2409 303.385 91.4449Z" fill="#53AAFF"/>
<path d="M368.349 136.88C363.823 129.445 357.962 125.171 350.772 124.042C349.369 124.258 348.011 124.58 346.713 125.028C352.11 126.919 356.638 130.869 360.296 136.88C365.629 145.654 368.298 159.529 368.298 178.517C368.298 186.869 367.78 194.23 366.748 200.606H374.803C375.834 194.232 376.353 186.869 376.353 178.517C376.351 159.529 373.68 145.654 368.349 136.88Z" fill="#53AAFF"/>
<path d="M407.908 107.117H415.961C410.75 100.874 404.77 95.6276 397.969 91.4466C385.309 83.674 370.931 79.7835 354.839 79.7835C353.471 79.7835 352.133 79.851 350.791 79.9067C365.267 80.5045 378.32 84.3292 389.916 91.4466C396.717 95.6259 402.697 100.872 407.908 107.117Z" fill="#FF2B7F"/>
<path d="M346.784 123.726C338.081 123.726 331.107 127.637 325.867 135.448H305.581V139.796H323.377C322.355 141.899 321.45 144.225 320.672 146.795H328.724C329.881 142.978 331.303 139.67 333 136.882C336.656 130.872 341.227 126.922 346.711 125.029C348.012 124.58 349.368 124.259 350.771 124.043C349.484 123.839 348.159 123.726 346.784 123.726Z" fill="#FF2B7F"/>
<path d="M430.281 176.324C430.29 177.06 430.329 177.774 430.329 178.517C430.329 186.28 429.807 193.64 428.777 200.606H436.831C437.774 194.24 438.258 187.524 438.339 180.495H456.147V176.324H433.415H430.281V176.324Z" fill="#FF2B7F"/>
<path d="M419.615 125.489C425.982 138.788 429.493 154.295 430.184 171.976H438.238C437.546 154.295 434.035 138.788 427.669 125.489C426.03 122.068 424.23 118.859 422.301 115.815H414.247C416.177 118.858 417.977 122.068 419.615 125.489Z" fill="#FF2B7F"/>
<path d="M430.281 176.324H416.985V171.976H430.184C429.493 154.294 425.982 138.788 419.615 125.489C417.977 122.068 416.177 118.859 414.247 115.815H422.301H453.327V111.467H438.453H391.223H376.349V107.118H407.906C402.695 100.876 396.716 95.6292 389.912 91.4482C378.317 84.3291 365.264 80.5061 350.787 79.9084C349.46 79.8527 348.136 79.7851 346.784 79.7851C345.414 79.7851 344.077 79.8527 342.736 79.9084C328.108 80.5061 314.976 84.3308 303.385 91.4482C297.207 95.2442 291.698 99.9031 286.834 105.398H289.507V113.187H280.8C278.195 116.987 275.8 121.061 273.681 125.49C270.54 132.049 268.131 139.173 266.371 146.797H320.671C321.448 144.229 322.353 141.902 323.376 139.798H305.58V135.45H325.867C331.107 127.64 338.079 123.727 346.784 123.727C348.157 123.727 349.484 123.841 350.771 124.045C357.961 125.175 363.822 129.448 368.347 136.883C373.678 145.657 376.349 159.532 376.349 178.521C376.349 186.873 375.831 194.233 374.799 200.609H428.775C429.805 193.644 430.327 186.285 430.327 178.521C430.329 177.773 430.288 177.06 430.281 176.324ZM305.352 113.186H297.561V105.396H305.352V113.186ZM399.026 144.173H394.679V139.825H399.026V144.173ZM419.159 194.534H414.809V190.186H419.157V194.534H419.159Z" fill="white"/>
<path d="M451.931 147.248H444.142V155.039H451.931V147.248Z" fill="#FF2B7F"/>
<path d="M609.576 226.825H601.785V234.616H609.576V226.825Z" fill="#FF2B7F"/>
<path d="M634.936 96.1713H628.627V102.482H634.936V96.1713Z" fill="#FF2B7F"/>
<path d="M496.753 226.506V222.336H474.021V226.506V237.108H482.074V226.506H496.753Z" fill="#53AAFF"/>
<path d="M600.632 245.96V241.612H585.301H577.9H574.384V250.431H582.439V245.96H600.632Z" fill="#53AAFF"/>
<path d="M224.849 118.998V116.983H213.623V128.209H215.637V118.998H224.849Z" fill="#53AAFF"/>
<path d="M215.637 118.998V128.209V130.224H226.861V118.998H224.848H215.637Z" fill="#FF2B7F"/>
<path d="M354.488 30.2575L352.676 35.634H352.077L350.502 31.049L348.92 35.634H348.329L346.516 30.2575H347.1L348.651 34.8815L350.256 30.2575H350.786L352.369 34.9044L353.943 30.2575H354.488Z" fill="#E1E1E1"/>
<path d="M359.941 35.1425V35.634H356.14V30.2575H359.826V30.749H356.708V32.6616H359.488V33.1455H356.708V35.1425H359.941Z" fill="#E1E1E1"/>
<path d="M366.097 33.3186C366.289 33.5463 366.385 33.8396 366.385 34.198C366.385 34.6589 366.215 35.0134 365.874 35.2619C365.534 35.5104 365.031 35.634 364.365 35.634H361.892V30.2575H364.212C364.811 30.2575 365.275 30.3778 365.606 30.6187C365.936 30.8595 366.101 31.1999 366.101 31.64C366.101 31.9372 366.028 32.1894 365.882 32.3967C365.736 32.6039 365.535 32.759 365.279 32.8613C365.633 32.9382 365.905 33.0909 366.097 33.3186ZM362.461 30.7263V32.6772H364.173C364.609 32.6772 364.944 32.5939 365.18 32.4277C365.415 32.2612 365.533 32.0194 365.533 31.7016C365.533 31.3842 365.415 31.1422 365.18 30.9759C364.944 30.8095 364.609 30.7265 364.173 30.7265H362.461V30.7263ZM365.448 34.9199C365.694 34.7562 365.817 34.5001 365.817 34.1521C365.817 33.4811 365.33 33.1457 364.357 33.1457H362.46V35.1657H364.357C364.839 35.1657 365.203 35.084 365.448 34.9199Z" fill="#E1E1E1"/>
<path d="M370.924 30.2575H373.113C373.682 30.2575 374.183 30.3714 374.619 30.5995C375.054 30.8271 375.392 31.1445 375.632 31.5518C375.873 31.9589 375.993 32.4236 375.993 32.9459C375.993 33.4682 375.873 33.933 375.632 34.3399C375.392 34.747 375.054 35.0648 374.619 35.2927C374.183 35.5204 373.682 35.6342 373.113 35.6342H370.924V30.2575ZM373.082 35.1425C373.553 35.1425 373.966 35.0489 374.319 34.8622C374.672 34.6752 374.946 34.4167 375.141 34.0863C375.336 33.7561 375.433 33.3759 375.433 32.9457C375.433 32.5154 375.336 32.1352 375.141 31.8051C374.946 31.4745 374.672 31.2162 374.319 31.0291C373.966 30.8425 373.554 30.7488 373.082 30.7488H371.493V35.1423H373.082V35.1425Z" fill="#E1E1E1"/>
<path d="M381.685 35.1425V35.634H377.883V30.2575H381.569V30.749H378.451V32.6616H381.231V33.1455H378.451V35.1425H381.685Z" fill="#E1E1E1"/>
<path d="M388.029 30.2575L385.648 35.634H385.087L382.706 30.2575H383.321L385.379 34.9274L387.453 30.2575H388.029Z" fill="#E1E1E1"/>
<path d="M393.221 35.1425V35.634H389.419V30.2575H393.105V30.749H389.987V32.6616H392.767V33.1455H389.987V35.1425H393.221Z" fill="#E1E1E1"/>
<path d="M395.171 30.2575H395.74V35.1425H398.751V35.634H395.172V30.2575H395.171Z" fill="#E1E1E1"/>
<path d="M401.105 35.3231C400.672 35.085 400.334 34.7584 400.091 34.3437C399.848 33.9293 399.726 33.4631 399.726 32.9459C399.726 32.4287 399.848 31.9629 400.091 31.5481C400.334 31.1334 400.672 30.8068 401.105 30.5687C401.537 30.3306 402.02 30.2118 402.552 30.2118C403.085 30.2118 403.565 30.3296 403.992 30.5649C404.42 30.8007 404.757 31.1269 405.002 31.5444C405.248 31.9619 405.371 32.4289 405.371 32.9461C405.371 33.4633 405.248 33.9307 405.002 34.3478C404.757 34.7653 404.42 35.0919 403.992 35.3273C403.565 35.5626 403.085 35.6804 402.552 35.6804C402.02 35.6804 401.537 35.561 401.105 35.3231ZM403.704 34.8852C404.047 34.6931 404.316 34.4271 404.511 34.0863C404.705 33.746 404.802 33.3656 404.802 32.9457C404.802 32.5259 404.705 32.1456 404.511 31.8051C404.316 31.4647 404.047 31.1982 403.704 31.0062C403.361 30.814 402.977 30.7182 402.552 30.7182C402.127 30.7182 401.742 30.814 401.396 31.0062C401.051 31.1984 400.779 31.4647 400.582 31.8051C400.385 32.1454 400.287 32.5259 400.287 32.9457C400.287 33.3656 400.385 33.7458 400.582 34.0863C400.779 34.4271 401.051 34.6933 401.396 34.8852C401.742 35.0772 402.127 35.1732 402.552 35.1732C402.977 35.1732 403.361 35.0774 403.704 34.8852Z" fill="#E1E1E1"/>
<path d="M410.886 30.7492C411.275 31.077 411.47 31.5279 411.47 32.1011C411.47 32.6746 411.275 33.1239 410.886 33.449C410.497 33.7744 409.959 33.9369 409.273 33.9369H407.829V35.634H407.261V30.2575H409.273C409.959 30.2577 410.497 30.4218 410.886 30.7492ZM410.479 33.0882C410.76 32.855 410.901 32.5262 410.901 32.1011C410.901 31.6659 410.76 31.332 410.479 31.099C410.197 30.866 409.79 30.7494 409.258 30.7494H407.829V33.4376H409.258C409.79 33.4374 410.197 33.3212 410.479 33.0882Z" fill="#E1E1E1"/>
<path d="M417.115 35.1425V35.634H413.313V30.2575H417V30.749H413.881V32.6616H416.662V33.1455H413.881V35.1425H417.115Z" fill="#E1E1E1"/>
<path d="M422.737 35.634L421.508 33.9057C421.37 33.9214 421.226 33.9291 421.078 33.9291H419.634V35.634H419.065V30.2575H421.078C421.764 30.2575 422.301 30.4216 422.691 30.749C423.08 31.0768 423.274 31.5277 423.274 32.1009C423.274 32.5211 423.168 32.8756 422.956 33.1647C422.743 33.4543 422.44 33.6627 422.046 33.7907L423.359 35.634H422.737V35.634ZM422.284 33.0917C422.565 32.8564 422.706 32.5258 422.706 32.1007C422.706 31.6655 422.565 31.3316 422.284 31.0986C422.002 30.8656 421.595 30.749 421.062 30.749H419.634V33.4448H421.062C421.595 33.4448 422.002 33.3273 422.284 33.0917Z" fill="#E1E1E1"/>
<path d="M424.692 31.1953C424.612 31.1136 424.573 31.0135 424.573 30.896C424.573 30.7784 424.612 30.6796 424.692 30.6C424.771 30.5207 424.867 30.4812 424.98 30.4812C425.092 30.4812 425.189 30.5207 425.272 30.6C425.353 30.6796 425.394 30.7782 425.394 30.896C425.394 31.0137 425.353 31.1136 425.272 31.1953C425.189 31.2773 425.092 31.3184 424.98 31.3184C424.867 31.3184 424.771 31.2773 424.692 31.1953ZM425.279 33.8721C425.356 33.9514 425.394 34.0499 425.394 34.1681C425.394 34.2295 425.385 34.296 425.367 34.3675C425.349 34.4395 425.323 34.5212 425.287 34.6136L424.964 35.6732H424.596L424.857 34.5595C424.775 34.5341 424.708 34.4866 424.657 34.4175C424.606 34.3481 424.58 34.265 424.58 34.1681C424.58 34.0499 424.618 33.9514 424.695 33.8721C424.772 33.7928 424.869 33.7533 424.987 33.7533C425.105 33.7533 425.202 33.7928 425.279 33.8721Z" fill="#E1E1E1"/>
<path d="M423.959 6.27298H409.309V6.79903H423.959V6.27298Z" fill="#E1E1E1"/>
<path d="M423.977 5.29959H409.325V5.82525H423.977V5.29959Z" fill="#E1E1E1"/>
<path d="M423.959 4.32684H409.309V4.8527H423.959V4.32684Z" fill="#E1E1E1"/>
<path d="M423.959 3.35327H409.309V3.87952H423.959V3.35327Z" fill="#E1E1E1"/>
<path d="M424.484 22.9835H408.217V23.5107H424.484V22.9835Z" fill="#E1E1E1"/>
<path d="M424.481 22.0108H408.215V22.5368H424.481V22.0108Z" fill="#E1E1E1"/>
<path d="M424.484 21.0363H408.217V21.5619H424.484V21.0363Z" fill="#E1E1E1"/>
<path d="M424.484 20.0647H408.217V20.5903H424.484V20.0647Z" fill="#E1E1E1"/>
<path d="M423.556 6.46742L412.448 20.1646L412.856 20.4957L423.964 6.79853L423.556 6.46742Z" fill="#E1E1E1"/>
<path d="M422.208 6.343L410.94 20.2398L411.348 20.5709L422.616 6.67406L422.208 6.343Z" fill="#E1E1E1"/>
<path d="M420.77 6.34945L409.547 20.1902L409.956 20.5217L421.179 6.681L420.77 6.34945Z" fill="#E1E1E1"/>
<path d="M419.297 6.41011L408.222 20.067L408.63 20.398L419.705 6.7411L419.297 6.41011Z" fill="#E1E1E1"/>
<path d="M273.414 3.21755H276.456L278.953 10.1349L281.479 3.21755H284.493L281.02 12.2876L284.062 19.7789L290.405 3.13138H293.936L285.526 23.5101H282.771L278.982 14.3828L275.165 23.5101H272.409L264 3.13157H267.502L273.873 19.7791L276.916 12.2878L273.414 3.21755Z" fill="#E1E1E1"/>
<path d="M309.176 20.6687V23.5103H295.198V3.13159H308.918V5.97305H298.413V11.771H307.511V14.4403H298.413V20.6687H309.176Z" fill="#E1E1E1"/>
<path d="M325.335 20.6687V23.5103H311.357V3.13159H325.077V5.97305H314.572V11.771H323.67V14.4403H314.572V20.6687H325.335Z" fill="#E1E1E1"/>
<path d="M327.516 23.5103V3.16023H330.731V13.6367L340.317 3.13138H343.876L335.84 12.1439L344.335 23.5101H340.748L333.859 14.1244L330.731 17.3677V23.5101H327.516V23.5103Z" fill="#E1E1E1"/>
<path d="M358.485 13.0338H363.508V21.3575C362.359 22.1803 361.039 22.8118 359.547 23.2517C358.054 23.6918 356.562 23.9118 355.069 23.9118C352.964 23.9118 351.07 23.4668 349.386 22.5772C347.702 21.6875 346.382 20.4487 345.425 18.8601C344.468 17.272 343.99 15.4732 343.99 13.464C343.99 11.455 344.468 9.65663 345.425 8.06808C346.382 6.47992 347.712 5.24095 349.415 4.35099C351.118 3.46122 353.041 3.01624 355.184 3.01624C357.059 3.01624 358.743 3.33187 360.236 3.96332C361.728 4.59497 362.972 5.50398 363.966 6.69014L360.35 9.96225C358.992 8.46968 357.365 7.72359 355.471 7.72359C353.749 7.72359 352.361 8.24513 351.31 9.28781C350.257 10.3309 349.731 11.7231 349.731 13.464C349.731 14.574 349.97 15.5643 350.448 16.4348C350.926 17.3059 351.597 17.9847 352.457 18.4727C353.318 18.9606 354.303 19.2046 355.414 19.2046C356.504 19.2046 357.528 18.9848 358.485 18.5445V13.0338V13.0338Z" fill="#E1E1E1"/>
<path d="M383.254 19.1188V23.5103H367.124V3.41858H382.881V7.81011H372.749V11.197H381.675V15.4451H372.749V19.119H383.254V19.1188Z" fill="#E1E1E1"/>
<path d="M405.526 3.41858V23.5103H400.847L391.979 12.8042V23.5103H386.411V3.41858H391.089L399.958 14.1247V3.41858H405.526Z" fill="#E1E1E1"/>
<path d="M426 0H345.863V0.526442H426V0Z" fill="#E1E1E1"/>
<path d="M426 26.6267H345.863V27.1531H426V26.6267Z" fill="#E1E1E1"/>
</svg>
