<svg width="38" height="38" viewBox="0 0 38 38" fill="none" xmlns="http://www.w3.org/2000/svg">
<rect width="38" height="38" rx="6" fill="#333333"/>
<g clip-path="url(#clip0_975_147)">
<path d="M9.61108 11.0557H11.0555V12.5001H9.61108V11.0557Z" fill="#888888"/>
<path d="M12.5 11.0557H13.9444V12.5001H12.5V11.0557Z" fill="#888888"/>
<path d="M15.3889 11.0557H16.8334V12.5001H15.3889V11.0557Z" fill="#888888"/>
<path d="M29.1111 8.88867H8.8889C8.50581 8.88867 8.13841 9.04085 7.86753 9.31174C7.59664 9.58263 7.44446 9.95003 7.44446 10.3331V27.6664C7.44446 28.0495 7.59664 28.4169 7.86753 28.6878C8.13841 28.9587 8.50581 29.1109 8.8889 29.1109H29.1111C29.4942 29.1109 29.8616 28.9587 30.1325 28.6878C30.4034 28.4169 30.5556 28.0495 30.5556 27.6664V10.3331C30.5556 9.95003 30.4034 9.58263 30.1325 9.31174C29.8616 9.04085 29.4942 8.88867 29.1111 8.88867V8.88867ZM8.8889 10.3331H29.1111V13.3664H8.8889V10.3331ZM8.8889 27.6664V14.522H29.1111V27.6664H8.8889Z" fill="#888888"/>
<g clip-path="url(#clip1_975_147)">
<path d="M17.75 17.25H15.6667C15.5562 17.25 15.4502 17.2939 15.372 17.372C15.2939 17.4502 15.25 17.5562 15.25 17.6667V19.75C15.25 19.8605 15.2939 19.9665 15.372 20.0446C15.4502 20.1228 15.5562 20.1667 15.6667 20.1667H17.75C17.8605 20.1667 17.9665 20.1228 18.0446 20.0446C18.1228 19.9665 18.1667 19.8605 18.1667 19.75V17.6667C18.1667 17.5562 18.1228 17.4502 18.0446 17.372C17.9665 17.2939 17.8605 17.25 17.75 17.25V17.25ZM17.75 21.8333H15.6667C15.5562 21.8333 15.4502 21.8772 15.372 21.9554C15.2939 22.0335 15.25 22.1395 15.25 22.25V24.3333C15.25 24.4438 15.2939 24.5498 15.372 24.628C15.4502 24.7061 15.5562 24.75 15.6667 24.75H17.75C17.8605 24.75 17.9665 24.7061 18.0446 24.628C18.1228 24.5498 18.1667 24.4438 18.1667 24.3333V22.25C18.1667 22.1395 18.1228 22.0335 18.0446 21.9554C17.9665 21.8772 17.8605 21.8333 17.75 21.8333ZM22.3333 17.25H20.25C20.1395 17.25 20.0335 17.2939 19.9554 17.372C19.8772 17.4502 19.8333 17.5562 19.8333 17.6667V19.75C19.8333 19.8605 19.8772 19.9665 19.9554 20.0446C20.0335 20.1228 20.1395 20.1667 20.25 20.1667H22.3333C22.4438 20.1667 22.5498 20.1228 22.628 20.0446C22.7061 19.9665 22.75 19.8605 22.75 19.75V17.6667C22.75 17.5562 22.7061 17.4502 22.628 17.372C22.5498 17.2939 22.4438 17.25 22.3333 17.25V17.25ZM22.3333 21.8333H20.25C20.1395 21.8333 20.0335 21.8772 19.9554 21.9554C19.8772 22.0335 19.8333 22.1395 19.8333 22.25V24.3333C19.8333 24.4438 19.8772 24.5498 19.9554 24.628C20.0335 24.7061 20.1395 24.75 20.25 24.75H22.3333C22.4438 24.75 22.5498 24.7061 22.628 24.628C22.7061 24.5498 22.75 24.4438 22.75 24.3333V22.25C22.75 22.1395 22.7061 22.0335 22.628 21.9554C22.5498 21.8772 22.4438 21.8333 22.3333 21.8333Z" stroke="#888888" stroke-width="0.7" stroke-linejoin="round"/>
</g>
</g>
<defs>
<clipPath id="clip0_975_147">
<rect width="26" height="26" fill="white" transform="translate(6 6)"/>
</clipPath>
<clipPath id="clip1_975_147">
<rect width="10" height="10" fill="white" transform="translate(14 16)"/>
</clipPath>
</defs>
</svg>
