<svg width="215" height="215" viewBox="0 0 215 215" fill="none" xmlns="http://www.w3.org/2000/svg">
<path d="M46.2246 166.752C49.4282 159.724 51.6343 154.313 59.6078 154.125C73.9722 153.785 72.0746 166.696 77.2927 165.833C82.5107 164.971 75.7237 139.312 101.236 137.005C124.55 134.893 124.26 158.624 131.278 158.471C135.088 158.388 137.045 145.983 149.055 148.989C159.454 151.591 155.237 167.85 167.076 164.211C178.915 160.572 176.964 168.765 176.964 168.765C200.019 161.868 200.774 172.033 200.774 172.033H18.0471C18.0471 172.033 34.6075 157.642 46.2246 166.752Z" fill="#C8D9D2"/>
<path d="M58.2899 168.037C73.3574 168.037 85.572 155.822 85.572 140.755C85.572 125.687 73.3574 113.472 58.2899 113.472C43.2224 113.472 31.0078 125.687 31.0078 140.755C31.0078 155.822 43.2224 168.037 58.2899 168.037Z" stroke="#423C52" stroke-miterlimit="10" stroke-linecap="round"/>
<path d="M42.1184 166.673C33.7305 161.821 28.0872 152.752 28.0872 142.365" stroke="#423C52" stroke-miterlimit="10" stroke-linecap="round"/>
<path d="M143.087 168.037C158.155 168.037 170.369 155.822 170.369 140.755C170.369 125.687 158.155 113.472 143.087 113.472C128.02 113.472 115.805 125.687 115.805 140.755C115.805 155.822 128.02 168.037 143.087 168.037Z" stroke="#423C52" stroke-miterlimit="10" stroke-linecap="round"/>
<path d="M158.034 114.53C167.778 119.74 173.975 130.423 172.911 142.12" stroke="#423C52" stroke-miterlimit="10" stroke-linecap="round"/>
<path d="M143.087 140.754L127.176 92.6922C127.075 92.3867 127.048 92.0615 127.097 91.7434C127.146 91.4254 127.27 91.1235 127.459 90.8626C127.647 90.6017 127.895 90.3893 128.181 90.2427C128.468 90.0962 128.785 90.0198 129.107 90.0198H143.973C144.934 90.0198 145.886 90.2091 146.774 90.5769C147.661 90.9446 148.468 91.4837 149.148 92.1633C149.827 92.8428 150.366 93.6496 150.734 94.5375C151.101 95.4254 151.291 96.377 151.291 97.338C151.29 99.2787 150.519 101.14 149.147 102.512C147.774 103.884 145.913 104.655 143.972 104.655H141.356C140.936 104.656 140.522 104.553 140.151 104.355C139.78 104.158 139.463 103.873 139.229 103.524" stroke="#423C52" stroke-miterlimit="10" stroke-linecap="round"/>
<path d="M143.058 141.96C143.684 141.96 144.192 141.452 144.192 140.825C144.192 140.199 143.684 139.691 143.058 139.691C142.431 139.691 141.923 140.199 141.923 140.825C141.923 141.452 142.431 141.96 143.058 141.96Z" fill="white" stroke="#423C52" stroke-width="5" stroke-miterlimit="10" stroke-linecap="round"/>
<path d="M76.9661 110.547L58.2234 140.749H106.62L121.29 117.11C122.535 115.103 124.272 113.447 126.337 112.298C128.401 111.15 130.724 110.547 133.086 110.547H76.9661Z" stroke="#423C52" stroke-miterlimit="10" stroke-linecap="round"/>
<path d="M128.547 96.5878C129.792 94.5805 131.529 92.9242 133.594 91.7757C135.658 90.6272 137.981 90.0244 140.344 90.0244" stroke="#423C52" stroke-miterlimit="10" stroke-linecap="round"/>
<path d="M99.9886 151.183H86.0842V153.243H99.9886V151.183Z" stroke="#423C52" stroke-miterlimit="10" stroke-linecap="round"/>
<path d="M84.4814 102.371H69.3458C68.5866 102.371 67.9712 102.986 67.9712 103.745V104.008C67.9712 104.767 68.5866 105.383 69.3458 105.383H84.4814C85.2405 105.383 85.8559 104.767 85.8559 104.008V103.745C85.8559 102.986 85.2405 102.371 84.4814 102.371Z" stroke="#423C52" stroke-miterlimit="10" stroke-linecap="round"/>
<path d="M76.9131 110.547V105.383" stroke="#423C52" stroke-miterlimit="10" stroke-linecap="round"/>
<path d="M58.2234 141.884C58.85 141.884 59.3579 141.376 59.3579 140.75C59.3579 140.123 58.85 139.615 58.2234 139.615C57.5968 139.615 57.0889 140.123 57.0889 140.75C57.0889 141.376 57.5968 141.884 58.2234 141.884Z" fill="white" stroke="#423C52" stroke-width="5" stroke-miterlimit="10" stroke-linecap="round"/>
<path d="M99.5877 140.749H84.0487C83.4672 140.75 82.8952 140.603 82.3858 140.322C81.8764 140.042 81.4462 139.637 81.1352 139.146C80.8242 138.654 80.6426 138.092 80.6071 137.512C80.5717 136.932 80.6837 136.352 80.9326 135.826L96.7765 102.367H75.177C73.6721 102.368 72.1973 101.945 70.9219 101.146C69.6465 100.347 68.6223 99.2044 67.9666 97.8498L85.5674 84.4502H110.643C119.577 84.4502 125.246 94.0274 120.943 101.859L99.5877 140.749Z" fill="#423C52"/>
<path d="M99.5875 140.75C99.0855 141.976 97.5311 147.13 100.289 148.3C102.9 149.406 102.649 150.909 102.649 150.909H85.5325C85.1388 150.909 84.7508 150.815 84.4008 150.634C84.0508 150.454 83.7491 150.192 83.5206 149.872C83.2921 149.551 83.1435 149.18 83.0872 148.791C83.0309 148.401 83.0685 148.004 83.1969 147.631L85.5699 140.754L99.5875 140.75Z" fill="#907B00"/>
<path d="M96.1594 142.671H99.2353C99.4047 142.671 99.5672 142.738 99.6871 142.858C99.8069 142.978 99.8742 143.14 99.8742 143.31V143.31C99.8742 143.479 99.8069 143.642 99.6871 143.761C99.5672 143.881 99.4047 143.948 99.2353 143.948H98.7725" stroke="white" stroke-width="2" stroke-miterlimit="10"/>
<path d="M96.1594 143.948H99.2353C99.4047 143.948 99.5672 144.016 99.6871 144.136C99.8069 144.255 99.8742 144.418 99.8742 144.587V144.587C99.8742 144.757 99.8069 144.919 99.6871 145.039C99.5672 145.159 99.4047 145.226 99.2353 145.226H98.7725" stroke="white" stroke-width="0.5" stroke-miterlimit="10"/>
<path d="M102.649 150.91H85.5328C85.1388 150.91 84.7506 150.816 84.4004 150.635C84.0503 150.455 83.7483 150.193 83.5197 149.873C83.291 149.552 83.1424 149.181 83.0861 148.791C83.0299 148.401 83.0676 148.004 83.1962 147.631L83.3596 147.157C83.4469 147.744 83.742 148.28 84.1911 148.667C84.6403 149.054 85.2136 149.267 85.8066 149.267H101.862C102.78 150.121 102.649 150.91 102.649 150.91Z" fill="white"/>
<path d="M144.349 92.0969C144.349 92.0969 149.985 92.5989 150.821 89.6873C151.657 86.7757 150.541 82.6594 148.905 81.6554C148.556 81.4418 142.131 81.2903 142.131 81.2903L137.888 90.684C143.109 90.7451 145.106 90.1729 145.106 90.1729C145.106 90.1729 143.867 90.4239 144.349 92.0969Z" fill="#FFDB00"/>
<path d="M148.541 91.6388C148.869 91.3359 149.109 90.9489 149.233 90.5198C149.545 89.4327 149.586 88.2699 149.428 87.0715" stroke="#423C52" stroke-linecap="round" stroke-linejoin="round"/>
<path d="M137.888 90.6842L145.142 90.0837C145.545 90.0504 145.921 89.8667 146.195 89.5689C146.47 89.2712 146.622 88.8812 146.622 88.4764V87.3774" stroke="#423C52" stroke-linecap="round" stroke-linejoin="round"/>
<path d="M111.902 53.3787L110.503 57.1235L108.16 57.0852L98.9316 56.9474L105.29 48.5933L111.902 53.3787Z" fill="#FFDB00"/>
<path d="M108.188 48.5931L108.888 52.7441C108.982 53.3054 109.272 53.8152 109.706 54.1828C110.141 54.5505 110.691 54.7522 111.261 54.7521H114.78C114.975 54.7518 115.168 54.7108 115.347 54.6317C115.525 54.5527 115.685 54.4373 115.817 54.2929C115.948 54.1486 116.048 53.9784 116.11 53.7933C116.172 53.6082 116.195 53.4122 116.177 53.2178L116.016 51.4709H116.553C116.632 51.4709 116.71 51.4525 116.781 51.4173C116.852 51.382 116.914 51.3308 116.961 51.2677C117.009 51.2046 117.042 51.1312 117.057 51.0534C117.071 50.9756 117.068 50.8954 117.046 50.8192L115.918 46.7822L108.188 48.5931Z" fill="#FFDB00"/>
<path d="M106.86 48.5933H108.806V52.1739H106.86C106.646 52.1741 106.433 52.132 106.234 52.0499C106.036 51.9679 105.855 51.8475 105.703 51.6957C105.551 51.5439 105.431 51.3636 105.348 51.1652C105.266 50.9667 105.224 50.754 105.224 50.5392V50.2279C105.224 49.7944 105.396 49.3786 105.703 49.072C106.009 48.7655 106.425 48.5933 106.859 48.5933H106.86Z" fill="#FFDB00"/>
<path d="M105.348 50.5347C105.348 51.5241 106.453 52.4012 107.441 52.4012H109.435" stroke="#423C52" stroke-miterlimit="10" stroke-linecap="round"/>
<path d="M107.928 50.6587C107.928 50.3683 107.812 50.0897 107.607 49.8843C107.401 49.6789 107.123 49.5635 106.832 49.5635" stroke="#423C52" stroke-miterlimit="10" stroke-linecap="round"/>
<path d="M113.609 50.3073C113.776 50.3073 113.911 50.1259 113.911 49.9021C113.911 49.6783 113.776 49.4968 113.609 49.4968C113.443 49.4968 113.308 49.6783 113.308 49.9021C113.308 50.1259 113.443 50.3073 113.609 50.3073Z" fill="#423C52"/>
<path d="M112.204 48.5935C112.204 48.5935 113.208 48.1581 113.91 48.1252" stroke="#423C52" stroke-miterlimit="10" stroke-linecap="round"/>
<path d="M104.609 49.2247L104.744 48.6771C105.12 47.1378 105.976 45.7578 107.187 44.7358C108.398 43.7137 109.902 43.1024 111.482 42.9899L113.159 42.8713C113.75 42.8177 114.34 42.9929 114.806 43.3608C115.272 43.7288 115.58 44.2614 115.665 44.8492L115.918 46.5888L104.609 49.2247Z" fill="white" stroke="#423C52" stroke-linecap="round" stroke-linejoin="round"/>
<path d="M104.609 49.2249L120.402 45.5986" stroke="#423C52" stroke-miterlimit="10" stroke-linecap="round"/>
<path d="M110.503 48.0339C109.545 50.2172 110.64 51.5862 110.97 51.8345C111.912 52.54 115.239 51.6857 116.019 51.4694C116.019 51.4694 116.686 56.0129 115.927 56.1307C114.528 56.3479 109.568 54.8091 108.899 53.5376C108.677 53.1178 108.967 51.6355 108.923 50.606C108.891 49.8238 108.806 48.5916 108.188 48.5916L110.503 48.0339Z" fill="#423C52"/>
<path d="M110.503 57.1235L94.7276 49.7725C94.0223 49.4439 93.2195 49.3918 92.4777 49.6263C91.7358 49.8609 91.1089 50.3651 90.7207 51.0393L86.4675 58.4323C85.6058 60.1419 87.1064 62.0887 88.9793 61.6917L110.503 57.1235Z" fill="#FE552F"/>
<path d="M99.1089 56.9473H108.622C110.494 56.9496 112.329 57.4672 113.926 58.4434C115.523 59.4195 116.821 60.8164 117.676 62.4811C120.849 68.6292 127.99 77.9745 142.657 80.0884L137.889 90.7672C137.889 90.7672 122.183 97.2101 104.614 84.4603H96.1955C89.3042 84.4604 82.603 86.7208 77.1197 90.895L67.9715 97.8599C67.9715 97.8599 61.9393 85.2416 75.1637 71.2304C79.7912 66.3273 83.6255 63.0899 86.6037 60.9605C90.2514 58.3509 94.6239 56.9477 99.1089 56.9473V56.9473Z" fill="#FE552F"/>
<path d="M105.569 60.9121C109.724 68.9623 120.812 83.0264 140.007 85.7938" stroke="white" stroke-width="0.5" stroke-miterlimit="10" stroke-linecap="round"/>
<path d="M104.211 61.354C108.21 69.595 119.996 84.193 139.409 86.9905" stroke="white" stroke-width="0.5" stroke-miterlimit="10" stroke-linecap="round"/>
<path d="M86.6045 60.8592C90.2527 58.2523 94.6249 56.8517 99.1088 56.8533H110.325" stroke="#423C52" stroke-miterlimit="10" stroke-linecap="round"/>
<path d="M104.767 84.7572C102.029 82.8707 97.7322 76.697 97.7322 76.697" stroke="#423C52" stroke-miterlimit="10" stroke-linecap="round"/>
<path d="M142.467 80.2729L137.793 90.855C137.793 90.855 122.088 97.2988 104.519 84.549" stroke="#423C52" stroke-miterlimit="10" stroke-linecap="round"/>
</svg>
