<svg width="766" height="567" viewBox="0 0 766 567" fill="none" xmlns="http://www.w3.org/2000/svg">
<path d="M146.506 523.631V536H145.216V530.292H137.476V536H136.168V523.631H137.476V529.144H145.216V523.631H146.506ZM158.371 531.741H150.596C150.667 532.707 151.038 533.491 151.709 534.092C152.381 534.681 153.229 534.975 154.254 534.975C154.831 534.975 155.361 534.875 155.844 534.675C156.327 534.463 156.745 534.156 157.099 533.756L157.806 534.569C157.393 535.063 156.875 535.44 156.251 535.7C155.638 535.959 154.961 536.088 154.218 536.088C153.264 536.088 152.416 535.888 151.674 535.488C150.943 535.075 150.372 534.51 149.96 533.791C149.547 533.073 149.341 532.26 149.341 531.353C149.341 530.446 149.536 529.633 149.924 528.914C150.325 528.195 150.867 527.636 151.55 527.235C152.245 526.835 153.023 526.635 153.883 526.635C154.743 526.635 155.514 526.835 156.198 527.235C156.881 527.636 157.417 528.195 157.806 528.914C158.194 529.621 158.389 530.434 158.389 531.353L158.371 531.741ZM153.883 527.712C152.987 527.712 152.233 528.001 151.621 528.578C151.02 529.144 150.678 529.886 150.596 530.805H157.187C157.105 529.886 156.757 529.144 156.145 528.578C155.544 528.001 154.79 527.712 153.883 527.712ZM160.942 522.888H162.197V536H160.942V522.888ZM165.688 522.888H166.942V536H165.688V522.888ZM174.233 536.088C173.337 536.088 172.53 535.888 171.812 535.488C171.093 535.075 170.528 534.51 170.115 533.791C169.703 533.073 169.497 532.26 169.497 531.353C169.497 530.446 169.703 529.633 170.115 528.914C170.528 528.195 171.093 527.636 171.812 527.235C172.53 526.835 173.337 526.635 174.233 526.635C175.128 526.635 175.935 526.835 176.653 527.235C177.372 527.636 177.932 528.195 178.332 528.914C178.744 529.633 178.951 530.446 178.951 531.353C178.951 532.26 178.744 533.073 178.332 533.791C177.932 534.51 177.372 535.075 176.653 535.488C175.935 535.888 175.128 536.088 174.233 536.088ZM174.233 534.975C174.892 534.975 175.481 534.828 176 534.533C176.53 534.227 176.942 533.797 177.237 533.243C177.531 532.69 177.678 532.059 177.678 531.353C177.678 530.646 177.531 530.016 177.237 529.462C176.942 528.908 176.53 528.484 176 528.19C175.481 527.883 174.892 527.73 174.233 527.73C173.573 527.73 172.978 527.883 172.448 528.19C171.93 528.484 171.517 528.908 171.211 529.462C170.916 530.016 170.769 530.646 170.769 531.353C170.769 532.059 170.916 532.69 171.211 533.243C171.517 533.797 171.93 534.227 172.448 534.533C172.978 534.828 173.573 534.975 174.233 534.975ZM191.032 535.435C190.796 535.647 190.501 535.812 190.148 535.929C189.806 536.035 189.447 536.088 189.07 536.088C188.198 536.088 187.527 535.853 187.056 535.382C186.584 534.91 186.349 534.245 186.349 533.385V527.765H184.688V526.705H186.349V524.673H187.603V526.705H190.431V527.765H187.603V533.314C187.603 533.868 187.739 534.292 188.01 534.586C188.293 534.869 188.693 535.01 189.211 535.01C189.471 535.01 189.718 534.969 189.954 534.887C190.201 534.804 190.413 534.686 190.59 534.533L191.032 535.435ZM198.051 526.635C199.217 526.635 200.142 526.976 200.825 527.659C201.52 528.331 201.868 529.315 201.868 530.61V536H200.613V530.734C200.613 529.768 200.372 529.032 199.889 528.525C199.406 528.019 198.717 527.765 197.821 527.765C196.82 527.765 196.025 528.066 195.436 528.667C194.859 529.256 194.57 530.074 194.57 531.123V536H193.315V522.888H194.57V528.331C194.912 527.789 195.383 527.371 195.984 527.076C196.585 526.782 197.274 526.635 198.051 526.635ZM213.402 531.741H205.627C205.697 532.707 206.069 533.491 206.74 534.092C207.411 534.681 208.26 534.975 209.285 534.975C209.862 534.975 210.392 534.875 210.875 534.675C211.358 534.463 211.776 534.156 212.13 533.756L212.836 534.569C212.424 535.063 211.906 535.44 211.281 535.7C210.669 535.959 209.991 536.088 209.249 536.088C208.295 536.088 207.447 535.888 206.705 535.488C205.974 535.075 205.403 534.51 204.991 533.791C204.578 533.073 204.372 532.26 204.372 531.353C204.372 530.446 204.567 529.633 204.955 528.914C205.356 528.195 205.898 527.636 206.581 527.235C207.276 526.835 208.054 526.635 208.913 526.635C209.773 526.635 210.545 526.835 211.228 527.235C211.912 527.636 212.448 528.195 212.836 528.914C213.225 529.621 213.419 530.434 213.419 531.353L213.402 531.741ZM208.913 527.712C208.018 527.712 207.264 528.001 206.652 528.578C206.051 529.144 205.709 529.886 205.627 530.805H212.218C212.135 529.886 211.788 529.144 211.175 528.578C210.575 528.001 209.821 527.712 208.913 527.712ZM217.175 528.525C217.469 527.901 217.905 527.43 218.482 527.112C219.071 526.794 219.796 526.635 220.656 526.635V527.854L220.355 527.836C219.378 527.836 218.612 528.137 218.058 528.737C217.505 529.338 217.228 530.18 217.228 531.264V536H215.973V526.705H217.175V528.525ZM230.934 531.741H223.159C223.23 532.707 223.601 533.491 224.273 534.092C224.944 534.681 225.792 534.975 226.817 534.975C227.394 534.975 227.924 534.875 228.407 534.675C228.89 534.463 229.309 534.156 229.662 533.756L230.369 534.569C229.957 535.063 229.438 535.44 228.814 535.7C228.201 535.959 227.524 536.088 226.782 536.088C225.828 536.088 224.979 535.888 224.237 535.488C223.507 535.075 222.935 534.51 222.523 533.791C222.111 533.073 221.905 532.26 221.905 531.353C221.905 530.446 222.099 529.633 222.488 528.914C222.888 528.195 223.43 527.636 224.114 527.235C224.809 526.835 225.586 526.635 226.446 526.635C227.306 526.635 228.078 526.835 228.761 527.235C229.444 527.636 229.98 528.195 230.369 528.914C230.758 529.621 230.952 530.434 230.952 531.353L230.934 531.741ZM226.446 527.712C225.551 527.712 224.797 528.001 224.184 528.578C223.583 529.144 223.242 529.886 223.159 530.805H229.75C229.668 529.886 229.32 529.144 228.708 528.578C228.107 528.001 227.353 527.712 226.446 527.712ZM233.647 534.162C233.918 534.162 234.142 534.257 234.319 534.445C234.495 534.622 234.584 534.846 234.584 535.116C234.584 535.258 234.56 535.411 234.513 535.576C234.478 535.741 234.419 535.929 234.336 536.141L233.594 538.58H232.746L233.347 536.018C233.158 535.959 233.005 535.853 232.887 535.7C232.769 535.535 232.711 535.34 232.711 535.116C232.711 534.846 232.799 534.622 232.976 534.445C233.152 534.257 233.376 534.162 233.647 534.162ZM246.77 535.435C246.534 535.647 246.24 535.812 245.886 535.929C245.545 536.035 245.185 536.088 244.808 536.088C243.937 536.088 243.265 535.853 242.794 535.382C242.323 534.91 242.087 534.245 242.087 533.385V527.765H240.426V526.705H242.087V524.673H243.342V526.705H246.169V527.765H243.342V533.314C243.342 533.868 243.477 534.292 243.748 534.586C244.031 534.869 244.431 535.01 244.95 535.01C245.209 535.01 245.456 534.969 245.692 534.887C245.939 534.804 246.151 534.686 246.328 534.533L246.77 535.435ZM253.789 526.635C254.956 526.635 255.881 526.976 256.564 527.659C257.259 528.331 257.606 529.315 257.606 530.61V536H256.352V530.734C256.352 529.768 256.11 529.032 255.627 528.525C255.144 528.019 254.455 527.765 253.56 527.765C252.558 527.765 251.763 528.066 251.174 528.667C250.597 529.256 250.308 530.074 250.308 531.123V536H249.054V522.888H250.308V528.331C250.65 527.789 251.121 527.371 251.722 527.076C252.323 526.782 253.012 526.635 253.789 526.635ZM269.14 531.741H261.365C261.436 532.707 261.807 533.491 262.478 534.092C263.15 534.681 263.998 534.975 265.023 534.975C265.6 534.975 266.13 534.875 266.613 534.675C267.096 534.463 267.514 534.156 267.868 533.756L268.575 534.569C268.162 535.063 267.644 535.44 267.02 535.7C266.407 535.959 265.73 536.088 264.988 536.088C264.033 536.088 263.185 535.888 262.443 535.488C261.713 535.075 261.141 534.51 260.729 533.791C260.317 533.073 260.11 532.26 260.11 531.353C260.11 530.446 260.305 529.633 260.694 528.914C261.094 528.195 261.636 527.636 262.319 527.235C263.014 526.835 263.792 526.635 264.652 526.635C265.512 526.635 266.283 526.835 266.967 527.235C267.65 527.636 268.186 528.195 268.575 528.914C268.963 529.621 269.158 530.434 269.158 531.353L269.14 531.741ZM264.652 527.712C263.756 527.712 263.003 528.001 262.39 528.578C261.789 529.144 261.448 529.886 261.365 530.805H267.956C267.874 529.886 267.526 529.144 266.914 528.578C266.313 528.001 265.559 527.712 264.652 527.712ZM289.978 526.705L286.461 536H285.278L282.344 528.384L279.411 536H278.227L274.728 526.705H275.93L278.845 534.604L281.832 526.705H282.91L285.878 534.604L288.829 526.705H289.978ZM299.701 531.741H291.926C291.997 532.707 292.368 533.491 293.039 534.092C293.711 534.681 294.559 534.975 295.584 534.975C296.161 534.975 296.691 534.875 297.174 534.675C297.657 534.463 298.076 534.156 298.429 533.756L299.136 534.569C298.724 535.063 298.205 535.44 297.581 535.7C296.968 535.959 296.291 536.088 295.549 536.088C294.594 536.088 293.746 535.888 293.004 535.488C292.274 535.075 291.702 534.51 291.29 533.791C290.878 533.073 290.672 532.26 290.672 531.353C290.672 530.446 290.866 529.633 291.255 528.914C291.655 528.195 292.197 527.636 292.88 527.235C293.575 526.835 294.353 526.635 295.213 526.635C296.073 526.635 296.845 526.835 297.528 527.235C298.211 527.636 298.747 528.195 299.136 528.914C299.525 529.621 299.719 530.434 299.719 531.353L299.701 531.741ZM295.213 527.712C294.318 527.712 293.564 528.001 292.951 528.578C292.35 529.144 292.009 529.886 291.926 530.805H298.517C298.435 529.886 298.087 529.144 297.475 528.578C296.874 528.001 296.12 527.712 295.213 527.712ZM307.061 526.635C307.933 526.635 308.722 526.835 309.429 527.235C310.136 527.624 310.69 528.178 311.09 528.896C311.491 529.615 311.691 530.434 311.691 531.353C311.691 532.272 311.491 533.09 311.09 533.809C310.69 534.527 310.136 535.087 309.429 535.488C308.722 535.888 307.933 536.088 307.061 536.088C306.284 536.088 305.583 535.923 304.959 535.594C304.346 535.264 303.851 534.787 303.474 534.162V536H302.273V522.888H303.527V528.472C303.916 527.872 304.411 527.418 305.012 527.112C305.624 526.794 306.307 526.635 307.061 526.635ZM306.973 534.975C307.621 534.975 308.21 534.828 308.74 534.533C309.27 534.227 309.683 533.797 309.977 533.243C310.283 532.69 310.436 532.059 310.436 531.353C310.436 530.646 310.283 530.016 309.977 529.462C309.683 528.908 309.27 528.484 308.74 528.19C308.21 527.883 307.621 527.73 306.973 527.73C306.313 527.73 305.718 527.883 305.188 528.19C304.67 528.484 304.258 528.908 303.951 529.462C303.657 530.016 303.51 530.646 303.51 531.353C303.51 532.059 303.657 532.69 303.951 533.243C304.258 533.797 304.67 534.227 305.188 534.533C305.718 534.828 306.313 534.975 306.973 534.975ZM316.74 536.088C315.986 536.088 315.262 535.982 314.567 535.77C313.883 535.546 313.347 535.27 312.959 534.94L313.524 533.95C313.913 534.257 314.402 534.51 314.991 534.71C315.58 534.899 316.192 534.993 316.829 534.993C317.677 534.993 318.301 534.863 318.702 534.604C319.114 534.333 319.32 533.956 319.32 533.473C319.32 533.131 319.208 532.866 318.984 532.678C318.761 532.478 318.478 532.33 318.136 532.236C317.795 532.13 317.341 532.03 316.776 531.936C316.022 531.794 315.415 531.653 314.955 531.512C314.496 531.359 314.101 531.105 313.772 530.752C313.453 530.398 313.294 529.91 313.294 529.285C313.294 528.508 313.618 527.872 314.266 527.377C314.914 526.882 315.815 526.635 316.97 526.635C317.571 526.635 318.171 526.717 318.772 526.882C319.373 527.035 319.868 527.241 320.257 527.5L319.709 528.508C318.943 527.978 318.03 527.712 316.97 527.712C316.169 527.712 315.562 527.854 315.15 528.137C314.749 528.419 314.549 528.79 314.549 529.25C314.549 529.603 314.661 529.886 314.885 530.098C315.12 530.31 315.409 530.469 315.751 530.575C316.092 530.669 316.563 530.77 317.164 530.876C317.906 531.017 318.501 531.158 318.949 531.3C319.397 531.441 319.78 531.682 320.098 532.024C320.416 532.366 320.575 532.837 320.575 533.438C320.575 534.251 320.233 534.899 319.55 535.382C318.878 535.853 317.942 536.088 316.74 536.088ZM322.894 526.705H324.149V536H322.894V526.705ZM323.53 524.673C323.271 524.673 323.053 524.585 322.876 524.408C322.7 524.231 322.611 524.019 322.611 523.772C322.611 523.536 322.7 523.33 322.876 523.153C323.053 522.977 323.271 522.888 323.53 522.888C323.789 522.888 324.007 522.977 324.184 523.153C324.361 523.318 324.449 523.519 324.449 523.754C324.449 524.013 324.361 524.231 324.184 524.408C324.007 524.585 323.789 524.673 323.53 524.673ZM332.534 535.435C332.299 535.647 332.004 535.812 331.651 535.929C331.309 536.035 330.95 536.088 330.573 536.088C329.701 536.088 329.03 535.853 328.558 535.382C328.087 534.91 327.852 534.245 327.852 533.385V527.765H326.191V526.705H327.852V524.673H329.106V526.705H331.934V527.765H329.106V533.314C329.106 533.868 329.242 534.292 329.513 534.586C329.795 534.869 330.196 535.01 330.714 535.01C330.973 535.01 331.221 534.969 331.456 534.887C331.704 534.804 331.916 534.686 332.093 534.533L332.534 535.435ZM342.584 531.741H334.809C334.879 532.707 335.25 533.491 335.922 534.092C336.593 534.681 337.441 534.975 338.466 534.975C339.044 534.975 339.574 534.875 340.057 534.675C340.54 534.463 340.958 534.156 341.311 533.756L342.018 534.569C341.606 535.063 341.087 535.44 340.463 535.7C339.851 535.959 339.173 536.088 338.431 536.088C337.477 536.088 336.629 535.888 335.886 535.488C335.156 535.075 334.585 534.51 334.172 533.791C333.76 533.073 333.554 532.26 333.554 531.353C333.554 530.446 333.748 529.633 334.137 528.914C334.538 528.195 335.079 527.636 335.763 527.235C336.458 526.835 337.235 526.635 338.095 526.635C338.955 526.635 339.727 526.835 340.41 527.235C341.093 527.636 341.629 528.195 342.018 528.914C342.407 529.621 342.601 530.434 342.601 531.353L342.584 531.741ZM338.095 527.712C337.2 527.712 336.446 528.001 335.833 528.578C335.233 529.144 334.891 529.886 334.809 530.805H341.4C341.317 529.886 340.97 529.144 340.357 528.578C339.756 528.001 339.002 527.712 338.095 527.712ZM363.421 526.705L359.905 536H358.721L355.788 528.384L352.854 536H351.67L348.172 526.705H349.373L352.289 534.604L355.275 526.705H356.353L359.322 534.604L362.273 526.705H363.421ZM365.31 526.705H366.565V536H365.31V526.705ZM365.947 524.673C365.687 524.673 365.469 524.585 365.293 524.408C365.116 524.231 365.028 524.019 365.028 523.772C365.028 523.536 365.116 523.33 365.293 523.153C365.469 522.977 365.687 522.888 365.947 522.888C366.206 522.888 366.424 522.977 366.6 523.153C366.777 523.318 366.865 523.519 366.865 523.754C366.865 524.013 366.777 524.231 366.6 524.408C366.424 524.585 366.206 524.673 365.947 524.673ZM370.056 522.888H371.311V536H370.056V522.888ZM374.801 522.888H376.056V536H374.801V522.888ZM388.96 526.635C389.832 526.635 390.622 526.835 391.328 527.235C392.035 527.624 392.589 528.178 392.989 528.896C393.39 529.615 393.59 530.434 393.59 531.353C393.59 532.272 393.39 533.09 392.989 533.809C392.589 534.527 392.035 535.087 391.328 535.488C390.622 535.888 389.832 536.088 388.96 536.088C388.183 536.088 387.482 535.923 386.858 535.594C386.245 535.264 385.75 534.787 385.373 534.162V536H384.172V522.888H385.426V528.472C385.815 527.872 386.31 527.418 386.911 527.112C387.523 526.794 388.207 526.635 388.96 526.635ZM388.872 534.975C389.52 534.975 390.109 534.828 390.639 534.533C391.169 534.227 391.582 533.797 391.876 533.243C392.182 532.69 392.336 532.059 392.336 531.353C392.336 530.646 392.182 530.016 391.876 529.462C391.582 528.908 391.169 528.484 390.639 528.19C390.109 527.883 389.52 527.73 388.872 527.73C388.212 527.73 387.618 527.883 387.087 528.19C386.569 528.484 386.157 528.908 385.85 529.462C385.556 530.016 385.409 530.646 385.409 531.353C385.409 532.059 385.556 532.69 385.85 533.243C386.157 533.797 386.569 534.227 387.087 534.533C387.618 534.828 388.212 534.975 388.872 534.975ZM404.241 531.741H396.466C396.536 532.707 396.908 533.491 397.579 534.092C398.251 534.681 399.099 534.975 400.124 534.975C400.701 534.975 401.231 534.875 401.714 534.675C402.197 534.463 402.615 534.156 402.969 533.756L403.675 534.569C403.263 535.063 402.745 535.44 402.12 535.7C401.508 535.959 400.83 536.088 400.088 536.088C399.134 536.088 398.286 535.888 397.544 535.488C396.813 535.075 396.242 534.51 395.83 533.791C395.417 533.073 395.211 532.26 395.211 531.353C395.211 530.446 395.406 529.633 395.794 528.914C396.195 528.195 396.737 527.636 397.42 527.235C398.115 526.835 398.893 526.635 399.753 526.635C400.612 526.635 401.384 526.835 402.067 527.235C402.751 527.636 403.287 528.195 403.675 528.914C404.064 529.621 404.259 530.434 404.259 531.353L404.241 531.741ZM399.753 527.712C398.857 527.712 398.103 528.001 397.491 528.578C396.89 529.144 396.548 529.886 396.466 530.805H403.057C402.974 529.886 402.627 529.144 402.014 528.578C401.414 528.001 400.66 527.712 399.753 527.712ZM412.639 528.525C412.933 527.901 413.369 527.43 413.946 527.112C414.535 526.794 415.26 526.635 416.12 526.635V527.854L415.819 527.836C414.841 527.836 414.076 528.137 413.522 528.737C412.968 529.338 412.692 530.18 412.692 531.264V536H411.437V526.705H412.639V528.525ZM426.398 531.741H418.623C418.694 532.707 419.065 533.491 419.736 534.092C420.408 534.681 421.256 534.975 422.281 534.975C422.858 534.975 423.388 534.875 423.871 534.675C424.354 534.463 424.772 534.156 425.126 533.756L425.833 534.569C425.42 535.063 424.902 535.44 424.278 535.7C423.665 535.959 422.988 536.088 422.246 536.088C421.291 536.088 420.443 535.888 419.701 535.488C418.971 535.075 418.399 534.51 417.987 533.791C417.575 533.073 417.368 532.26 417.368 531.353C417.368 530.446 417.563 529.633 417.952 528.914C418.352 528.195 418.894 527.636 419.577 527.235C420.272 526.835 421.05 526.635 421.91 526.635C422.77 526.635 423.541 526.835 424.225 527.235C424.908 527.636 425.444 528.195 425.833 528.914C426.221 529.621 426.416 530.434 426.416 531.353L426.398 531.741ZM421.91 527.712C421.014 527.712 420.261 528.001 419.648 528.578C419.047 529.144 418.706 529.886 418.623 530.805H425.214C425.132 529.886 424.784 529.144 424.172 528.578C423.571 528.001 422.817 527.712 421.91 527.712ZM431.962 526.635C433.175 526.635 434.106 526.941 434.754 527.553C435.402 528.154 435.726 529.05 435.726 530.239V536H434.524V534.551C434.242 535.034 433.823 535.411 433.27 535.682C432.728 535.953 432.08 536.088 431.326 536.088C430.289 536.088 429.465 535.841 428.852 535.346C428.239 534.851 427.933 534.198 427.933 533.385C427.933 532.595 428.216 531.959 428.781 531.476C429.359 530.993 430.272 530.752 431.52 530.752H434.471V530.186C434.471 529.385 434.247 528.779 433.8 528.366C433.352 527.942 432.698 527.73 431.838 527.73C431.249 527.73 430.684 527.83 430.142 528.031C429.6 528.219 429.135 528.484 428.746 528.826L428.181 527.889C428.652 527.489 429.217 527.182 429.877 526.97C430.537 526.746 431.232 526.635 431.962 526.635ZM431.52 535.099C432.227 535.099 432.834 534.94 433.34 534.622C433.847 534.292 434.224 533.821 434.471 533.208V531.688H431.556C429.965 531.688 429.17 532.242 429.17 533.349C429.17 533.891 429.376 534.321 429.789 534.639C430.201 534.946 430.778 535.099 431.52 535.099ZM447.65 522.888V536H446.448V534.162C446.071 534.787 445.571 535.264 444.946 535.594C444.334 535.923 443.639 536.088 442.861 536.088C441.989 536.088 441.2 535.888 440.493 535.488C439.787 535.087 439.233 534.527 438.832 533.809C438.432 533.09 438.231 532.272 438.231 531.353C438.231 530.434 438.432 529.615 438.832 528.896C439.233 528.178 439.787 527.624 440.493 527.235C441.2 526.835 441.989 526.635 442.861 526.635C443.615 526.635 444.293 526.794 444.893 527.112C445.506 527.418 446.007 527.872 446.395 528.472V522.888H447.65ZM442.967 534.975C443.615 534.975 444.198 534.828 444.717 534.533C445.247 534.227 445.659 533.797 445.954 533.243C446.26 532.69 446.413 532.059 446.413 531.353C446.413 530.646 446.26 530.016 445.954 529.462C445.659 528.908 445.247 528.484 444.717 528.19C444.198 527.883 443.615 527.73 442.967 527.73C442.308 527.73 441.713 527.883 441.182 528.19C440.664 528.484 440.252 528.908 439.946 529.462C439.651 530.016 439.504 530.646 439.504 531.353C439.504 532.059 439.651 532.69 439.946 533.243C440.252 533.797 440.664 534.227 441.182 534.533C441.713 534.828 442.308 534.975 442.967 534.975ZM458.954 526.705L454.307 537.113C453.93 537.985 453.494 538.603 452.999 538.969C452.505 539.334 451.91 539.516 451.215 539.516C450.767 539.516 450.349 539.446 449.96 539.304C449.571 539.163 449.236 538.951 448.953 538.668L449.536 537.732C450.007 538.203 450.573 538.439 451.232 538.439C451.656 538.439 452.016 538.321 452.31 538.085C452.617 537.85 452.899 537.449 453.158 536.884L453.565 535.982L449.412 526.705H450.72L454.219 534.604L457.717 526.705H458.954ZM468.597 526.635C469.811 526.635 470.741 526.941 471.389 527.553C472.037 528.154 472.361 529.05 472.361 530.239V536H471.16V534.551C470.877 535.034 470.459 535.411 469.905 535.682C469.363 535.953 468.715 536.088 467.961 536.088C466.925 536.088 466.1 535.841 465.487 535.346C464.875 534.851 464.569 534.198 464.569 533.385C464.569 532.595 464.851 531.959 465.417 531.476C465.994 530.993 466.907 530.752 468.156 530.752H471.107V530.186C471.107 529.385 470.883 528.779 470.435 528.366C469.988 527.942 469.334 527.73 468.474 527.73C467.885 527.73 467.319 527.83 466.777 528.031C466.235 528.219 465.77 528.484 465.381 528.826L464.816 527.889C465.287 527.489 465.853 527.182 466.512 526.97C467.172 526.746 467.867 526.635 468.597 526.635ZM468.156 535.099C468.863 535.099 469.469 534.94 469.976 534.622C470.482 534.292 470.859 533.821 471.107 533.208V531.688H468.191C466.601 531.688 465.806 532.242 465.806 533.349C465.806 533.891 466.012 534.321 466.424 534.639C466.836 534.946 467.414 535.099 468.156 535.099ZM478.261 536.088C477.507 536.088 476.782 535.982 476.087 535.77C475.404 535.546 474.868 535.27 474.479 534.94L475.044 533.95C475.433 534.257 475.922 534.51 476.511 534.71C477.1 534.899 477.713 534.993 478.349 534.993C479.197 534.993 479.821 534.863 480.222 534.604C480.634 534.333 480.84 533.956 480.84 533.473C480.84 533.131 480.729 532.866 480.505 532.678C480.281 532.478 479.998 532.33 479.657 532.236C479.315 532.13 478.861 532.03 478.296 531.936C477.542 531.794 476.935 531.653 476.476 531.512C476.016 531.359 475.622 531.105 475.292 530.752C474.974 530.398 474.815 529.91 474.815 529.285C474.815 528.508 475.139 527.872 475.787 527.377C476.435 526.882 477.336 526.635 478.49 526.635C479.091 526.635 479.692 526.717 480.293 526.882C480.893 527.035 481.388 527.241 481.777 527.5L481.229 528.508C480.463 527.978 479.55 527.712 478.49 527.712C477.689 527.712 477.082 527.854 476.67 528.137C476.27 528.419 476.069 528.79 476.069 529.25C476.069 529.603 476.181 529.886 476.405 530.098C476.641 530.31 476.929 530.469 477.271 530.575C477.613 530.669 478.084 530.77 478.685 530.876C479.427 531.017 480.022 531.158 480.469 531.3C480.917 531.441 481.3 531.682 481.618 532.024C481.936 532.366 482.095 532.837 482.095 533.438C482.095 534.251 481.753 534.899 481.07 535.382C480.399 535.853 479.462 536.088 478.261 536.088ZM491.531 536.088C490.777 536.088 490.052 535.982 489.357 535.77C488.674 535.546 488.138 535.27 487.749 534.94L488.315 533.95C488.703 534.257 489.192 534.51 489.781 534.71C490.37 534.899 490.983 534.993 491.619 534.993C492.467 534.993 493.092 534.863 493.492 534.604C493.904 534.333 494.111 533.956 494.111 533.473C494.111 533.131 493.999 532.866 493.775 532.678C493.551 532.478 493.268 532.33 492.927 532.236C492.585 532.13 492.132 532.03 491.566 531.936C490.812 531.794 490.205 531.653 489.746 531.512C489.287 531.359 488.892 531.105 488.562 530.752C488.244 530.398 488.085 529.91 488.085 529.285C488.085 528.508 488.409 527.872 489.057 527.377C489.705 526.882 490.606 526.635 491.76 526.635C492.361 526.635 492.962 526.717 493.563 526.882C494.164 527.035 494.658 527.241 495.047 527.5L494.499 528.508C493.734 527.978 492.821 527.712 491.76 527.712C490.959 527.712 490.353 527.854 489.94 528.137C489.54 528.419 489.34 528.79 489.34 529.25C489.34 529.603 489.451 529.886 489.675 530.098C489.911 530.31 490.2 530.469 490.541 530.575C490.883 530.669 491.354 530.77 491.955 530.876C492.697 531.017 493.292 531.158 493.74 531.3C494.187 531.441 494.57 531.682 494.888 532.024C495.206 532.366 495.365 532.837 495.365 533.438C495.365 534.251 495.024 534.899 494.34 535.382C493.669 535.853 492.732 536.088 491.531 536.088ZM501.484 536.088C500.589 536.088 499.782 535.888 499.063 535.488C498.344 535.075 497.779 534.51 497.367 533.791C496.954 533.073 496.748 532.26 496.748 531.353C496.748 530.446 496.954 529.633 497.367 528.914C497.779 528.195 498.344 527.636 499.063 527.235C499.782 526.835 500.589 526.635 501.484 526.635C502.379 526.635 503.186 526.835 503.905 527.235C504.623 527.636 505.183 528.195 505.583 528.914C505.996 529.633 506.202 530.446 506.202 531.353C506.202 532.26 505.996 533.073 505.583 533.791C505.183 534.51 504.623 535.075 503.905 535.488C503.186 535.888 502.379 536.088 501.484 536.088ZM501.484 534.975C502.144 534.975 502.733 534.828 503.251 534.533C503.781 534.227 504.193 533.797 504.488 533.243C504.782 532.69 504.93 532.059 504.93 531.353C504.93 530.646 504.782 530.016 504.488 529.462C504.193 528.908 503.781 528.484 503.251 528.19C502.733 527.883 502.144 527.73 501.484 527.73C500.824 527.73 500.229 527.883 499.699 528.19C499.181 528.484 498.768 528.908 498.462 529.462C498.168 530.016 498.02 530.646 498.02 531.353C498.02 532.059 498.168 532.69 498.462 533.243C498.768 533.797 499.181 534.227 499.699 534.533C500.229 534.828 500.824 534.975 501.484 534.975ZM512.562 536.088C511.667 536.088 510.86 535.888 510.142 535.488C509.423 535.075 508.858 534.51 508.445 533.791C508.033 533.073 507.827 532.26 507.827 531.353C507.827 530.446 508.033 529.633 508.445 528.914C508.858 528.195 509.423 527.636 510.142 527.235C510.86 526.835 511.667 526.635 512.562 526.635C513.458 526.635 514.265 526.835 514.983 527.235C515.702 527.636 516.262 528.195 516.662 528.914C517.074 529.633 517.281 530.446 517.281 531.353C517.281 532.26 517.074 533.073 516.662 533.791C516.262 534.51 515.702 535.075 514.983 535.488C514.265 535.888 513.458 536.088 512.562 536.088ZM512.562 534.975C513.222 534.975 513.811 534.828 514.33 534.533C514.86 534.227 515.272 533.797 515.566 533.243C515.861 532.69 516.008 532.059 516.008 531.353C516.008 530.646 515.861 530.016 515.566 529.462C515.272 528.908 514.86 528.484 514.33 528.19C513.811 527.883 513.222 527.73 512.562 527.73C511.903 527.73 511.308 527.883 510.778 528.19C510.259 528.484 509.847 528.908 509.541 529.462C509.246 530.016 509.099 530.646 509.099 531.353C509.099 532.059 509.246 532.69 509.541 533.243C509.847 533.797 510.259 534.227 510.778 534.533C511.308 534.828 511.903 534.975 512.562 534.975ZM524.578 526.635C525.744 526.635 526.669 526.976 527.352 527.659C528.047 528.331 528.394 529.315 528.394 530.61V536H527.14V530.734C527.14 529.768 526.898 529.032 526.415 528.525C525.932 528.019 525.243 527.765 524.348 527.765C523.347 527.765 522.551 528.066 521.962 528.667C521.385 529.256 521.097 530.074 521.097 531.123V536H519.842V526.705H521.044V528.419C521.385 527.854 521.856 527.418 522.457 527.112C523.07 526.794 523.777 526.635 524.578 526.635ZM539.677 526.635C540.89 526.635 541.821 526.941 542.469 527.553C543.117 528.154 543.441 529.05 543.441 530.239V536H542.239V534.551C541.956 535.034 541.538 535.411 540.984 535.682C540.442 535.953 539.795 536.088 539.041 536.088C538.004 536.088 537.179 535.841 536.567 535.346C535.954 534.851 535.648 534.198 535.648 533.385C535.648 532.595 535.931 531.959 536.496 531.476C537.073 530.993 537.986 530.752 539.235 530.752H542.186V530.186C542.186 529.385 541.962 528.779 541.514 528.366C541.067 527.942 540.413 527.73 539.553 527.73C538.964 527.73 538.399 527.83 537.857 528.031C537.315 528.219 536.849 528.484 536.461 528.826L535.895 527.889C536.366 527.489 536.932 527.182 537.592 526.97C538.251 526.746 538.946 526.635 539.677 526.635ZM539.235 535.099C539.942 535.099 540.548 534.94 541.055 534.622C541.562 534.292 541.939 533.821 542.186 533.208V531.688H539.27C537.68 531.688 536.885 532.242 536.885 533.349C536.885 533.891 537.091 534.321 537.503 534.639C537.916 534.946 538.493 535.099 539.235 535.099ZM549.34 536.088C548.586 536.088 547.861 535.982 547.166 535.77C546.483 535.546 545.947 535.27 545.558 534.94L546.124 533.95C546.513 534.257 547.001 534.51 547.59 534.71C548.179 534.899 548.792 534.993 549.428 534.993C550.276 534.993 550.901 534.863 551.301 534.604C551.714 534.333 551.92 533.956 551.92 533.473C551.92 533.131 551.808 532.866 551.584 532.678C551.36 532.478 551.077 532.33 550.736 532.236C550.394 532.13 549.941 532.03 549.375 531.936C548.621 531.794 548.015 531.653 547.555 531.512C547.096 531.359 546.701 531.105 546.371 530.752C546.053 530.398 545.894 529.91 545.894 529.285C545.894 528.508 546.218 527.872 546.866 527.377C547.514 526.882 548.415 526.635 549.57 526.635C550.17 526.635 550.771 526.717 551.372 526.882C551.973 527.035 552.468 527.241 552.856 527.5L552.308 528.508C551.543 527.978 550.63 527.712 549.57 527.712C548.768 527.712 548.162 527.854 547.749 528.137C547.349 528.419 547.149 528.79 547.149 529.25C547.149 529.603 547.261 529.886 547.484 530.098C547.72 530.31 548.009 530.469 548.35 530.575C548.692 530.669 549.163 530.77 549.764 530.876C550.506 531.017 551.101 531.158 551.549 531.3C551.996 531.441 552.379 531.682 552.697 532.024C553.015 532.366 553.174 532.837 553.174 533.438C553.174 534.251 552.833 534.899 552.149 535.382C551.478 535.853 550.541 536.088 549.34 536.088ZM564.907 526.635C565.779 526.635 566.568 526.835 567.275 527.235C567.982 527.624 568.536 528.178 568.936 528.896C569.337 529.615 569.537 530.434 569.537 531.353C569.537 532.283 569.337 533.108 568.936 533.827C568.536 534.545 567.982 535.105 567.275 535.505C566.58 535.894 565.791 536.088 564.907 536.088C564.153 536.088 563.47 535.935 562.857 535.629C562.257 535.311 561.762 534.851 561.373 534.251V539.428H560.118V526.705H561.32V528.543C561.697 527.93 562.192 527.459 562.804 527.129C563.429 526.8 564.13 526.635 564.907 526.635ZM564.819 534.975C565.467 534.975 566.056 534.828 566.586 534.533C567.116 534.227 567.528 533.797 567.823 533.243C568.129 532.69 568.282 532.059 568.282 531.353C568.282 530.646 568.129 530.021 567.823 529.48C567.528 528.926 567.116 528.496 566.586 528.19C566.056 527.883 565.467 527.73 564.819 527.73C564.159 527.73 563.564 527.883 563.034 528.19C562.516 528.496 562.103 528.926 561.797 529.48C561.503 530.021 561.355 530.646 561.355 531.353C561.355 532.059 561.503 532.69 561.797 533.243C562.103 533.797 562.516 534.227 563.034 534.533C563.564 534.828 564.159 534.975 564.819 534.975ZM575.894 536.088C574.998 536.088 574.191 535.888 573.473 535.488C572.754 535.075 572.189 534.51 571.776 533.791C571.364 533.073 571.158 532.26 571.158 531.353C571.158 530.446 571.364 529.633 571.776 528.914C572.189 528.195 572.754 527.636 573.473 527.235C574.191 526.835 574.998 526.635 575.894 526.635C576.789 526.635 577.596 526.835 578.314 527.235C579.033 527.636 579.593 528.195 579.993 528.914C580.405 529.633 580.612 530.446 580.612 531.353C580.612 532.26 580.405 533.073 579.993 533.791C579.593 534.51 579.033 535.075 578.314 535.488C577.596 535.888 576.789 536.088 575.894 536.088ZM575.894 534.975C576.553 534.975 577.142 534.828 577.661 534.533C578.191 534.227 578.603 533.797 578.898 533.243C579.192 532.69 579.339 532.059 579.339 531.353C579.339 530.646 579.192 530.016 578.898 529.462C578.603 528.908 578.191 528.484 577.661 528.19C577.142 527.883 576.553 527.73 575.894 527.73C575.234 527.73 574.639 527.883 574.109 528.19C573.591 528.484 573.178 528.908 572.872 529.462C572.577 530.016 572.43 530.646 572.43 531.353C572.43 532.059 572.577 532.69 572.872 533.243C573.178 533.797 573.591 534.227 574.109 534.533C574.639 534.828 575.234 534.975 575.894 534.975ZM585.665 536.088C584.911 536.088 584.186 535.982 583.491 535.77C582.808 535.546 582.272 535.27 581.883 534.94L582.449 533.95C582.837 534.257 583.326 534.51 583.915 534.71C584.504 534.899 585.117 534.993 585.753 534.993C586.601 534.993 587.226 534.863 587.626 534.604C588.038 534.333 588.245 533.956 588.245 533.473C588.245 533.131 588.133 532.866 587.909 532.678C587.685 532.478 587.402 532.33 587.061 532.236C586.719 532.13 586.265 532.03 585.7 531.936C584.946 531.794 584.339 531.653 583.88 531.512C583.42 531.359 583.026 531.105 582.696 530.752C582.378 530.398 582.219 529.91 582.219 529.285C582.219 528.508 582.543 527.872 583.191 527.377C583.839 526.882 584.74 526.635 585.894 526.635C586.495 526.635 587.096 526.717 587.697 526.882C588.298 527.035 588.792 527.241 589.181 527.5L588.633 528.508C587.868 527.978 586.955 527.712 585.894 527.712C585.093 527.712 584.487 527.854 584.074 528.137C583.674 528.419 583.473 528.79 583.473 529.25C583.473 529.603 583.585 529.886 583.809 530.098C584.045 530.31 584.333 530.469 584.675 530.575C585.017 530.669 585.488 530.77 586.089 530.876C586.831 531.017 587.426 531.158 587.873 531.3C588.321 531.441 588.704 531.682 589.022 532.024C589.34 532.366 589.499 532.837 589.499 533.438C589.499 534.251 589.158 534.899 588.474 535.382C587.803 535.853 586.866 536.088 585.665 536.088ZM594.31 536.088C593.556 536.088 592.832 535.982 592.137 535.77C591.453 535.546 590.917 535.27 590.529 534.94L591.094 533.95C591.483 534.257 591.972 534.51 592.561 534.71C593.15 534.899 593.762 534.993 594.398 534.993C595.247 534.993 595.871 534.863 596.272 534.604C596.684 534.333 596.89 533.956 596.89 533.473C596.89 533.131 596.778 532.866 596.554 532.678C596.33 532.478 596.048 532.33 595.706 532.236C595.364 532.13 594.911 532.03 594.345 531.936C593.591 531.794 592.985 531.653 592.525 531.512C592.066 531.359 591.671 531.105 591.341 530.752C591.023 530.398 590.864 529.91 590.864 529.285C590.864 528.508 591.188 527.872 591.836 527.377C592.484 526.882 593.385 526.635 594.54 526.635C595.141 526.635 595.741 526.717 596.342 526.882C596.943 527.035 597.438 527.241 597.827 527.5L597.279 528.508C596.513 527.978 595.6 527.712 594.54 527.712C593.739 527.712 593.132 527.854 592.72 528.137C592.319 528.419 592.119 528.79 592.119 529.25C592.119 529.603 592.231 529.886 592.455 530.098C592.69 530.31 592.979 530.469 593.321 530.575C593.662 530.669 594.133 530.77 594.734 530.876C595.476 531.017 596.071 531.158 596.519 531.3C596.967 531.441 597.349 531.682 597.668 532.024C597.986 532.366 598.145 532.837 598.145 533.438C598.145 534.251 597.803 534.899 597.12 535.382C596.448 535.853 595.512 536.088 594.31 536.088ZM600.464 526.705H601.719V536H600.464V526.705ZM601.1 524.673C600.841 524.673 600.623 524.585 600.446 524.408C600.27 524.231 600.181 524.019 600.181 523.772C600.181 523.536 600.27 523.33 600.446 523.153C600.623 522.977 600.841 522.888 601.1 522.888C601.359 522.888 601.577 522.977 601.754 523.153C601.931 523.318 602.019 523.519 602.019 523.754C602.019 524.013 601.931 524.231 601.754 524.408C601.577 524.585 601.359 524.673 601.1 524.673ZM609.998 526.635C610.87 526.635 611.659 526.835 612.366 527.235C613.073 527.624 613.627 528.178 614.027 528.896C614.428 529.615 614.628 530.434 614.628 531.353C614.628 532.272 614.428 533.09 614.027 533.809C613.627 534.527 613.073 535.087 612.366 535.488C611.659 535.888 610.87 536.088 609.998 536.088C609.221 536.088 608.52 535.923 607.895 535.594C607.283 535.264 606.788 534.787 606.411 534.162V536H605.21V522.888H606.464V528.472C606.853 527.872 607.348 527.418 607.948 527.112C608.561 526.794 609.244 526.635 609.998 526.635ZM609.91 534.975C610.558 534.975 611.147 534.828 611.677 534.533C612.207 534.227 612.619 533.797 612.914 533.243C613.22 532.69 613.373 532.059 613.373 531.353C613.373 530.646 613.22 530.016 612.914 529.462C612.619 528.908 612.207 528.484 611.677 528.19C611.147 527.883 610.558 527.73 609.91 527.73C609.25 527.73 608.655 527.883 608.125 528.19C607.607 528.484 607.195 528.908 606.888 529.462C606.594 530.016 606.446 530.646 606.446 531.353C606.446 532.059 606.594 532.69 606.888 533.243C607.195 533.797 607.607 534.227 608.125 534.533C608.655 534.828 609.25 534.975 609.91 534.975ZM617.186 522.888H618.44V536H617.186V522.888ZM630.024 531.741H622.249C622.32 532.707 622.691 533.491 623.362 534.092C624.034 534.681 624.882 534.975 625.907 534.975C626.484 534.975 627.014 534.875 627.497 534.675C627.98 534.463 628.398 534.156 628.752 533.756L629.459 534.569C629.046 535.063 628.528 535.44 627.904 535.7C627.291 535.959 626.614 536.088 625.872 536.088C624.917 536.088 624.069 535.888 623.327 535.488C622.597 535.075 622.025 534.51 621.613 533.791C621.201 533.073 620.994 532.26 620.994 531.353C620.994 530.446 621.189 529.633 621.578 528.914C621.978 528.195 622.52 527.636 623.203 527.235C623.898 526.835 624.676 526.635 625.536 526.635C626.396 526.635 627.167 526.835 627.851 527.235C628.534 527.636 629.07 528.195 629.459 528.914C629.847 529.621 630.042 530.434 630.042 531.353L630.024 531.741ZM625.536 527.712C624.641 527.712 623.887 528.001 623.274 528.578C622.673 529.144 622.332 529.886 622.249 530.805H628.84C628.758 529.886 628.41 529.144 627.798 528.578C627.197 528.001 626.443 527.712 625.536 527.712ZM313.807 545.631H316.104V558H313.807V545.631ZM319.962 544.765C320.374 544.765 320.716 544.9 320.987 545.171C321.258 545.442 321.393 545.79 321.393 546.214C321.393 546.426 321.364 546.632 321.305 546.832C321.258 547.032 321.158 547.333 321.004 547.733L320.086 550.243H318.654L319.361 547.521C319.102 547.427 318.896 547.268 318.743 547.044C318.601 546.809 318.53 546.532 318.53 546.214C318.53 545.79 318.666 545.442 318.937 545.171C319.208 544.9 319.55 544.765 319.962 544.765ZM323.551 544.888H325.76V558H323.551V544.888ZM328.659 544.888H330.868V558H328.659V544.888ZM341.566 558.124C340.801 558.124 340.053 558.024 339.322 557.823C338.592 557.623 338.009 557.37 337.573 557.063L338.421 555.385C338.845 555.667 339.352 555.897 339.941 556.074C340.542 556.239 341.131 556.321 341.708 556.321C343.027 556.321 343.687 555.974 343.687 555.279C343.687 554.949 343.516 554.719 343.175 554.59C342.845 554.46 342.309 554.336 341.566 554.218C340.789 554.101 340.153 553.965 339.658 553.812C339.175 553.659 338.751 553.394 338.386 553.017C338.032 552.628 337.856 552.092 337.856 551.409C337.856 550.514 338.227 549.801 338.969 549.271C339.723 548.729 340.736 548.458 342.008 548.458C342.656 548.458 343.304 548.534 343.952 548.688C344.6 548.829 345.13 549.023 345.542 549.271L344.694 550.949C343.893 550.478 342.992 550.243 341.991 550.243C341.343 550.243 340.848 550.343 340.506 550.543C340.176 550.731 340.011 550.985 340.011 551.303C340.011 551.656 340.188 551.91 340.542 552.063C340.907 552.204 341.466 552.34 342.22 552.469C342.974 552.587 343.593 552.722 344.076 552.876C344.559 553.029 344.971 553.288 345.313 553.653C345.666 554.018 345.843 554.537 345.843 555.208C345.843 556.092 345.46 556.798 344.694 557.329C343.928 557.859 342.886 558.124 341.566 558.124ZM356.616 553.335C356.616 553.488 356.604 553.706 356.58 553.989H349.176C349.306 554.684 349.642 555.237 350.184 555.65C350.737 556.05 351.42 556.251 352.233 556.251C353.27 556.251 354.124 555.909 354.796 555.226L355.979 556.586C355.555 557.093 355.019 557.476 354.371 557.735C353.724 557.994 352.993 558.124 352.18 558.124C351.144 558.124 350.231 557.918 349.441 557.505C348.652 557.093 348.039 556.522 347.604 555.791C347.18 555.049 346.967 554.213 346.967 553.282C346.967 552.363 347.174 551.538 347.586 550.808C348.01 550.066 348.593 549.489 349.335 549.076C350.077 548.664 350.914 548.458 351.845 548.458C352.763 548.458 353.582 548.664 354.301 549.076C355.031 549.477 355.597 550.048 355.997 550.79C356.409 551.521 356.616 552.369 356.616 553.335ZM351.845 550.225C351.138 550.225 350.537 550.437 350.042 550.861C349.559 551.273 349.265 551.827 349.159 552.522H354.513C354.419 551.839 354.13 551.285 353.647 550.861C353.164 550.437 352.563 550.225 351.845 550.225ZM367.608 553.335C367.608 553.488 367.596 553.706 367.573 553.989H360.169C360.298 554.684 360.634 555.237 361.176 555.65C361.73 556.05 362.413 556.251 363.226 556.251C364.262 556.251 365.116 555.909 365.788 555.226L366.972 556.586C366.548 557.093 366.012 557.476 365.364 557.735C364.716 557.994 363.986 558.124 363.173 558.124C362.136 558.124 361.223 557.918 360.434 557.505C359.644 557.093 359.032 556.522 358.596 555.791C358.172 555.049 357.96 554.213 357.96 553.282C357.96 552.363 358.166 551.538 358.578 550.808C359.002 550.066 359.586 549.489 360.328 549.076C361.07 548.664 361.906 548.458 362.837 548.458C363.756 548.458 364.575 548.664 365.293 549.076C366.024 549.477 366.589 550.048 366.99 550.79C367.402 551.521 367.608 552.369 367.608 553.335ZM362.837 550.225C362.13 550.225 361.529 550.437 361.035 550.861C360.552 551.273 360.257 551.827 360.151 552.522H365.505C365.411 551.839 365.122 551.285 364.639 550.861C364.156 550.437 363.556 550.225 362.837 550.225ZM383.449 548.564L379.031 558.76C378.619 559.785 378.118 560.503 377.529 560.916C376.94 561.34 376.227 561.552 375.391 561.552C374.92 561.552 374.454 561.475 373.995 561.322C373.535 561.169 373.158 560.957 372.864 560.686L373.747 559.06C373.959 559.261 374.207 559.42 374.49 559.537C374.784 559.655 375.079 559.714 375.373 559.714C375.762 559.714 376.08 559.614 376.327 559.414C376.586 559.213 376.822 558.878 377.034 558.406L377.193 558.035L373.076 548.564H375.373L378.342 555.544L381.328 548.564H383.449ZM388.811 558.124C387.857 558.124 386.997 557.918 386.231 557.505C385.466 557.093 384.865 556.522 384.429 555.791C384.005 555.049 383.793 554.213 383.793 553.282C383.793 552.351 384.005 551.521 384.429 550.79C384.865 550.06 385.466 549.489 386.231 549.076C386.997 548.664 387.857 548.458 388.811 548.458C389.777 548.458 390.643 548.664 391.409 549.076C392.174 549.489 392.769 550.06 393.193 550.79C393.629 551.521 393.847 552.351 393.847 553.282C393.847 554.213 393.629 555.049 393.193 555.791C392.769 556.522 392.174 557.093 391.409 557.505C390.643 557.918 389.777 558.124 388.811 558.124ZM388.811 556.233C389.624 556.233 390.296 555.962 390.826 555.42C391.356 554.878 391.621 554.165 391.621 553.282C391.621 552.398 391.356 551.686 390.826 551.144C390.296 550.602 389.624 550.331 388.811 550.331C387.998 550.331 387.327 550.602 386.797 551.144C386.278 551.686 386.019 552.398 386.019 553.282C386.019 554.165 386.278 554.878 386.797 555.42C387.327 555.962 387.998 556.233 388.811 556.233ZM405.095 548.564V558H402.992V556.798C402.639 557.222 402.197 557.552 401.667 557.788C401.137 558.012 400.566 558.124 399.953 558.124C398.693 558.124 397.697 557.776 396.967 557.081C396.248 556.374 395.889 555.332 395.889 553.953V548.564H398.098V553.653C398.098 554.501 398.286 555.137 398.663 555.561C399.052 555.974 399.6 556.18 400.306 556.18C401.096 556.18 401.72 555.938 402.18 555.455C402.651 554.961 402.886 554.254 402.886 553.335V548.564H405.095ZM412.871 544.888H415.08V558H412.871V544.888ZM421.584 548.458C422.974 548.458 424.034 548.794 424.764 549.465C425.506 550.125 425.877 551.126 425.877 552.469V558H423.792V556.851C423.521 557.264 423.133 557.582 422.626 557.806C422.131 558.018 421.531 558.124 420.824 558.124C420.117 558.124 419.498 558.006 418.968 557.77C418.438 557.523 418.026 557.187 417.731 556.763C417.449 556.327 417.307 555.838 417.307 555.296C417.307 554.448 417.619 553.771 418.244 553.264C418.88 552.746 419.875 552.487 421.23 552.487H423.669V552.345C423.669 551.686 423.468 551.179 423.068 550.826C422.679 550.472 422.096 550.296 421.318 550.296C420.788 550.296 420.264 550.378 419.746 550.543C419.239 550.708 418.809 550.938 418.456 551.232L417.59 549.624C418.085 549.247 418.68 548.959 419.375 548.758C420.07 548.558 420.806 548.458 421.584 548.458ZM421.283 556.516C421.837 556.516 422.326 556.392 422.75 556.145C423.186 555.885 423.492 555.52 423.669 555.049V553.953H421.389C420.117 553.953 419.481 554.372 419.481 555.208C419.481 555.609 419.64 555.927 419.958 556.162C420.276 556.398 420.718 556.516 421.283 556.516ZM434.384 557.488C434.125 557.7 433.807 557.859 433.43 557.965C433.065 558.071 432.676 558.124 432.264 558.124C431.227 558.124 430.426 557.853 429.861 557.311C429.295 556.769 429.013 555.98 429.013 554.943V550.402H427.458V548.635H429.013V546.479H431.221V548.635H433.748V550.402H431.221V554.89C431.221 555.349 431.333 555.703 431.557 555.95C431.781 556.186 432.105 556.304 432.529 556.304C433.024 556.304 433.436 556.174 433.766 555.915L434.384 557.488ZM444.762 553.335C444.762 553.488 444.75 553.706 444.726 553.989H437.322C437.452 554.684 437.788 555.237 438.329 555.65C438.883 556.05 439.566 556.251 440.379 556.251C441.416 556.251 442.27 555.909 442.941 555.226L444.125 556.586C443.701 557.093 443.165 557.476 442.517 557.735C441.869 557.994 441.139 558.124 440.326 558.124C439.29 558.124 438.377 557.918 437.587 557.505C436.798 557.093 436.185 556.522 435.75 555.791C435.325 555.049 435.113 554.213 435.113 553.282C435.113 552.363 435.32 551.538 435.732 550.808C436.156 550.066 436.739 549.489 437.481 549.076C438.223 548.664 439.06 548.458 439.99 548.458C440.909 548.458 441.728 548.664 442.447 549.076C443.177 549.477 443.743 550.048 444.143 550.79C444.555 551.521 444.762 552.369 444.762 553.335ZM439.99 550.225C439.284 550.225 438.683 550.437 438.188 550.861C437.705 551.273 437.411 551.827 437.305 552.522H442.659C442.564 551.839 442.276 551.285 441.793 550.861C441.31 550.437 440.709 550.225 439.99 550.225ZM448.986 549.942C449.622 548.953 450.741 548.458 452.343 548.458V550.561C452.155 550.525 451.984 550.508 451.831 550.508C450.971 550.508 450.3 550.761 449.817 551.268C449.334 551.762 449.092 552.481 449.092 553.423V558H446.883V548.564H448.986V549.942Z" fill="white"/>
<path d="M372.973 454.462C482.729 454.462 571.704 365.487 571.704 255.731C571.704 145.975 482.729 57 372.973 57C263.217 57 174.242 145.975 174.242 255.731C174.242 365.487 263.217 454.462 372.973 454.462Z" fill="#232323"/>
<path d="M145.937 373.101C216.461 373.101 273.631 315.931 273.631 245.407C273.631 174.884 216.461 117.713 145.937 117.713C75.4135 117.713 18.2429 174.884 18.2429 245.407C18.2429 315.931 75.4135 373.101 145.937 373.101Z" fill="#232323"/>
<path d="M703.745 307.372C703.745 377.896 646.571 435.066 576.05 435.066C505.523 435.066 448.352 377.896 448.352 307.372C448.352 236.848 505.523 179.677 576.05 179.677C646.572 179.677 703.745 236.848 703.745 307.372Z" fill="#232323"/>
<path d="M640.294 229.235C659.689 229.235 675.411 213.513 675.411 194.119C675.411 174.725 659.689 159.002 640.294 159.002C620.9 159.002 605.178 174.725 605.178 194.119C605.178 213.513 620.9 229.235 640.294 229.235Z" fill="#232323"/>
<path d="M191.076 114.684C203.772 114.684 214.064 104.392 214.064 91.6962C214.064 79.0002 203.772 68.708 191.076 68.708C178.38 68.708 168.088 79.0002 168.088 91.6962C168.088 104.392 178.38 114.684 191.076 114.684Z" fill="#232323"/>
<path d="M111.293 460.084L108.19 449.82L107.058 446.075L90.8155 392.367L82.1247 363.632L68.9404 320.041H68.7059H52.3628H51.6007L43.4863 348.612L37.0095 371.415L30.5372 394.205L24.6284 415.007L11.8263 460.084H0.428955V477.187H122.097V460.084H111.293Z" fill="#050505"/>
<path d="M54.4235 195.289C47.9284 195.289 42.0968 194.032 36.9286 191.518C31.8303 189.004 27.8145 185.477 24.8812 180.937C22.0178 176.398 20.586 171.264 20.586 165.537C20.586 159.811 22.0178 154.712 24.8812 150.242C27.8145 145.703 31.8303 142.176 36.9286 139.662C42.0968 137.147 47.9284 135.89 54.4235 135.89C61.4075 135.89 67.3788 137.392 72.3375 140.395C77.2961 143.398 80.7183 147.554 82.604 152.861L64.271 161.871C62.0361 156.842 58.7187 154.328 54.3188 154.328C51.5252 154.328 49.1855 155.306 47.2998 157.261C45.484 159.217 44.5761 161.976 44.5761 165.537C44.5761 169.169 45.484 171.963 47.2998 173.918C49.1855 175.874 51.5252 176.852 54.3188 176.852C58.7187 176.852 62.0361 174.337 64.271 169.309L82.604 178.318C80.7183 183.626 77.2961 187.781 72.3375 190.785C67.3788 193.788 61.4075 195.289 54.4235 195.289ZM117.84 195.289C111.485 195.289 105.758 194.032 100.66 191.518C95.631 188.934 91.6851 185.407 88.8216 180.937C85.9582 176.398 84.5265 171.264 84.5265 165.537C84.5265 159.811 85.9582 154.712 88.8216 150.242C91.6851 145.703 95.631 142.176 100.66 139.662C105.758 137.147 111.485 135.89 117.84 135.89C124.265 135.89 129.992 137.147 135.021 139.662C140.119 142.176 144.065 145.703 146.859 150.242C149.722 154.712 151.154 159.811 151.154 165.537C151.154 171.264 149.722 176.398 146.859 180.937C144.065 185.407 140.119 188.934 135.021 191.518C129.992 194.032 124.265 195.289 117.84 195.289ZM117.84 176.852C120.564 176.852 122.799 175.874 124.545 173.918C126.291 171.893 127.164 169.099 127.164 165.537C127.164 161.976 126.291 159.217 124.545 157.261C122.799 155.306 120.564 154.328 117.84 154.328C115.116 154.328 112.882 155.306 111.136 157.261C109.39 159.217 108.517 161.976 108.517 165.537C108.517 169.099 109.39 171.893 111.136 173.918C112.882 175.874 115.116 176.852 117.84 176.852ZM198.373 135.89C205.427 135.89 211.084 138.02 215.344 142.281C219.674 146.541 221.839 152.966 221.839 161.557V194.242H198.163V165.642C198.163 159.077 195.824 155.795 191.144 155.795C188.49 155.795 186.325 156.738 184.649 158.623C183.043 160.439 182.24 163.337 182.24 167.318V194.242H158.564V136.938H181.087V142.595C183.322 140.36 185.906 138.684 188.84 137.567C191.773 136.449 194.951 135.89 198.373 135.89ZM254.54 195.289C249.651 195.289 244.832 194.765 240.083 193.718C235.334 192.67 231.492 191.308 228.559 189.632L235.054 174.023C237.708 175.629 240.851 176.886 244.483 177.794C248.114 178.702 251.641 179.156 255.063 179.156C257.787 179.156 259.673 178.947 260.721 178.528C261.838 178.039 262.397 177.34 262.397 176.432C262.397 175.525 261.698 174.896 260.301 174.547C258.975 174.198 256.775 173.848 253.702 173.499C249.022 172.94 245.041 172.242 241.759 171.404C238.476 170.496 235.578 168.785 233.064 166.271C230.619 163.757 229.397 160.16 229.397 155.48C229.397 151.779 230.515 148.462 232.75 145.528C234.984 142.595 238.302 140.255 242.702 138.509C247.172 136.763 252.514 135.89 258.73 135.89C263.06 135.89 267.285 136.309 271.406 137.147C275.596 137.916 279.158 139.068 282.092 140.605L275.596 156.214C270.568 153.42 265.051 152.023 259.044 152.023C253.876 152.023 251.292 152.931 251.292 154.747C251.292 155.655 251.991 156.319 253.387 156.738C254.784 157.087 256.984 157.436 259.987 157.785C264.666 158.344 268.612 159.077 271.825 159.985C275.108 160.893 277.971 162.604 280.415 165.118C282.93 167.633 284.187 171.229 284.187 175.909C284.187 179.471 283.069 182.718 280.834 185.651C278.6 188.585 275.247 190.924 270.777 192.67C266.308 194.416 260.895 195.289 254.54 195.289ZM333.574 192.251C330.012 194.277 325.158 195.289 319.012 195.289C310.981 195.289 304.8 193.369 300.47 189.527C296.14 185.616 293.974 179.785 293.974 172.033V157.366H286.117V140.081H293.974V124.052H317.65V140.081H329.383V157.366H317.65V171.823C317.65 173.569 318.104 174.931 319.012 175.909C319.92 176.886 321.107 177.375 322.574 177.375C324.599 177.375 326.38 176.852 327.917 175.804L333.574 192.251ZM362.064 143.119C366.255 138.3 372.436 135.89 380.607 135.89V156.842C378.721 156.563 376.975 156.423 375.369 156.423C367.267 156.423 363.217 160.544 363.217 168.785V194.242H339.541V136.938H362.064V143.119ZM449.964 136.938V194.242H427.44V188.794C425.345 190.959 422.901 192.6 420.107 193.718C417.314 194.765 414.345 195.289 411.203 195.289C403.939 195.289 398.108 193.089 393.708 188.689C389.308 184.22 387.108 177.515 387.108 168.575V136.938H410.783V164.49C410.783 168.401 411.412 171.194 412.669 172.871C413.926 174.547 415.777 175.385 418.221 175.385C420.526 175.385 422.447 174.477 423.983 172.661C425.52 170.775 426.288 167.842 426.288 163.861V136.938H449.964ZM491.265 195.289C484.769 195.289 478.938 194.032 473.77 191.518C468.671 189.004 464.656 185.477 461.722 180.937C458.859 176.398 457.427 171.264 457.427 165.537C457.427 159.811 458.859 154.712 461.722 150.242C464.656 145.703 468.671 142.176 473.77 139.662C478.938 137.147 484.769 135.89 491.265 135.89C498.249 135.89 504.22 137.392 509.179 140.395C514.137 143.398 517.559 147.554 519.445 152.861L501.112 161.871C498.877 156.842 495.56 154.328 491.16 154.328C488.366 154.328 486.027 155.306 484.141 157.261C482.325 159.217 481.417 161.976 481.417 165.537C481.417 169.169 482.325 171.963 484.141 173.918C486.027 175.874 488.366 176.852 491.16 176.852C495.56 176.852 498.877 174.337 501.112 169.309L519.445 178.318C517.559 183.626 514.137 187.781 509.179 190.785C504.22 193.788 498.249 195.289 491.265 195.289ZM568.158 192.251C564.597 194.277 559.743 195.289 553.597 195.289C545.565 195.289 539.384 193.369 535.054 189.527C530.724 185.616 528.559 179.785 528.559 172.033V157.366H520.702V140.081H528.559V124.052H552.235V140.081H563.968V157.366H552.235V171.823C552.235 173.569 552.689 174.931 553.597 175.909C554.505 176.886 555.692 177.375 557.159 177.375C559.184 177.375 560.965 176.852 562.501 175.804L568.158 192.251ZM574.126 136.938H597.801V194.242H574.126V136.938ZM585.963 132.329C581.703 132.329 578.246 131.211 575.592 128.976C573.008 126.671 571.716 123.773 571.716 120.281C571.716 116.789 573.008 113.926 575.592 111.691C578.246 109.386 581.703 108.234 585.963 108.234C590.294 108.234 593.751 109.316 596.335 111.481C598.919 113.646 600.211 116.44 600.211 119.862C600.211 123.494 598.919 126.497 596.335 128.871C593.751 131.176 590.294 132.329 585.963 132.329ZM638.571 195.289C632.216 195.289 626.489 194.032 621.39 191.518C616.362 188.934 612.416 185.407 609.552 180.937C606.689 176.398 605.257 171.264 605.257 165.537C605.257 159.811 606.689 154.712 609.552 150.242C612.416 145.703 616.362 142.176 621.39 139.662C626.489 137.147 632.216 135.89 638.571 135.89C644.996 135.89 650.723 137.147 655.752 139.662C660.85 142.176 664.796 145.703 667.59 150.242C670.453 154.712 671.885 159.811 671.885 165.537C671.885 171.264 670.453 176.398 667.59 180.937C664.796 185.407 660.85 188.934 655.752 191.518C650.723 194.032 644.996 195.289 638.571 195.289ZM638.571 176.852C641.295 176.852 643.53 175.874 645.276 173.918C647.022 171.893 647.895 169.099 647.895 165.537C647.895 161.976 647.022 159.217 645.276 157.261C643.53 155.306 641.295 154.328 638.571 154.328C635.847 154.328 633.612 155.306 631.866 157.261C630.12 159.217 629.247 161.976 629.247 165.537C629.247 169.099 630.12 171.893 631.866 173.918C633.612 175.874 635.847 176.852 638.571 176.852ZM719.104 135.89C726.158 135.89 731.815 138.02 736.075 142.281C740.405 146.541 742.57 152.966 742.57 161.557V194.242H718.894V165.642C718.894 159.077 716.555 155.795 711.875 155.795C709.221 155.795 707.056 156.738 705.38 158.623C703.774 160.439 702.971 163.337 702.971 167.318V194.242H679.295V136.938H701.818V142.595C704.053 140.36 706.637 138.684 709.571 137.567C712.504 136.449 715.682 135.89 719.104 135.89Z" fill="white"/>
<path d="M230.489 87.891H223.655V86.1131H239.378V87.891H232.545V105.559H230.489V87.891ZM258.914 86.1131V105.559H256.886V96.5861H244.718V105.559H242.663V86.1131H244.718V94.7804H256.886V86.1131H258.914ZM265.261 86.1131H267.317V105.559H265.261V86.1131ZM279.005 105.726C277.561 105.726 276.172 105.494 274.838 105.031C273.523 104.568 272.505 103.957 271.782 103.198L272.588 101.614C273.292 102.318 274.227 102.892 275.394 103.337C276.561 103.763 277.764 103.976 279.005 103.976C280.746 103.976 282.052 103.661 282.922 103.031C283.793 102.383 284.228 101.55 284.228 100.531C284.228 99.7531 283.987 99.1326 283.506 98.6696C283.043 98.2066 282.469 97.8548 281.783 97.614C281.098 97.3547 280.144 97.0769 278.922 96.7806C277.459 96.4102 276.292 96.0583 275.422 95.725C274.551 95.3731 273.801 94.8453 273.171 94.1415C272.56 93.4377 272.255 92.484 272.255 91.2802C272.255 90.2986 272.514 89.4096 273.033 88.6133C273.551 87.7984 274.347 87.1502 275.422 86.6687C276.496 86.1872 277.829 85.9464 279.422 85.9464C280.533 85.9464 281.617 86.1038 282.672 86.4187C283.746 86.715 284.672 87.1317 285.45 87.6688L284.756 89.3078C283.941 88.7707 283.07 88.3725 282.144 88.1132C281.218 87.8354 280.311 87.6965 279.422 87.6965C277.718 87.6965 276.431 88.0299 275.561 88.6966C274.709 89.3448 274.283 90.1875 274.283 91.2246C274.283 92.0024 274.514 92.6321 274.977 93.1136C275.459 93.5766 276.051 93.9378 276.755 94.1971C277.477 94.4378 278.44 94.7064 279.644 95.0027C281.07 95.3546 282.218 95.7064 283.089 96.0583C283.978 96.3917 284.728 96.9102 285.339 97.614C285.95 98.2992 286.256 99.2345 286.256 100.42C286.256 101.401 285.987 102.3 285.45 103.114C284.932 103.911 284.126 104.55 283.033 105.031C281.941 105.494 280.598 105.726 279.005 105.726ZM324.702 86.1131L318.146 105.559H315.979L310.284 88.9744L304.562 105.559H302.423L295.866 86.1131H297.978L303.589 102.837L309.395 86.1131H311.312L317.035 102.92L322.73 86.1131H324.702ZM342.222 103.781V105.559H328.471V86.1131H341.806V87.891H330.527V94.8082H340.583V96.5584H330.527V103.781H342.222ZM359.306 95.5305C360.583 95.8083 361.565 96.3639 362.25 97.1973C362.954 98.0122 363.306 99.0678 363.306 100.364C363.306 102.031 362.685 103.318 361.445 104.226C360.222 105.115 358.407 105.559 356 105.559H347.055V86.1131H355.444C357.611 86.1131 359.287 86.5483 360.472 87.4187C361.676 88.2892 362.278 89.5208 362.278 91.1135C362.278 92.1876 362.009 93.1044 361.472 93.8637C360.954 94.6045 360.232 95.1601 359.306 95.5305ZM349.11 87.8077V94.8638H355.305C356.879 94.8638 358.092 94.5675 358.944 93.9748C359.796 93.3637 360.222 92.484 360.222 91.3357C360.222 90.1875 359.796 89.317 358.944 88.7244C358.092 88.1132 356.879 87.8077 355.305 87.8077H349.11ZM355.972 103.865C357.713 103.865 359.028 103.568 359.917 102.976C360.806 102.383 361.25 101.457 361.25 100.198C361.25 97.7714 359.491 96.5584 355.972 96.5584H349.11V103.865H355.972ZM373.36 105.726C371.915 105.726 370.526 105.494 369.193 105.031C367.878 104.568 366.859 103.957 366.137 103.198L366.942 101.614C367.646 102.318 368.581 102.892 369.748 103.337C370.915 103.763 372.119 103.976 373.36 103.976C375.1 103.976 376.406 103.661 377.277 103.031C378.147 102.383 378.582 101.55 378.582 100.531C378.582 99.7531 378.341 99.1326 377.86 98.6696C377.397 98.2066 376.823 97.8548 376.138 97.614C375.452 97.3547 374.499 97.0769 373.276 96.7806C371.813 96.4102 370.646 96.0583 369.776 95.725C368.906 95.3731 368.155 94.8453 367.526 94.1415C366.915 93.4377 366.609 92.484 366.609 91.2802C366.609 90.2986 366.868 89.4096 367.387 88.6133C367.905 87.7984 368.702 87.1502 369.776 86.6687C370.85 86.1872 372.184 85.9464 373.776 85.9464C374.888 85.9464 375.971 86.1038 377.027 86.4187C378.101 86.715 379.027 87.1317 379.805 87.6688L379.11 89.3078C378.295 88.7707 377.425 88.3725 376.499 88.1132C375.573 87.8354 374.665 87.6965 373.776 87.6965C372.072 87.6965 370.785 88.0299 369.915 88.6966C369.063 89.3448 368.637 90.1875 368.637 91.2246C368.637 92.0024 368.869 92.6321 369.332 93.1136C369.813 93.5766 370.406 93.9378 371.109 94.1971C371.832 94.4378 372.795 94.7064 373.999 95.0027C375.425 95.3546 376.573 95.7064 377.443 96.0583C378.332 96.3917 379.082 96.9102 379.693 97.614C380.305 98.2992 380.61 99.2345 380.61 100.42C380.61 101.401 380.342 102.3 379.805 103.114C379.286 103.911 378.48 104.55 377.388 105.031C376.295 105.494 374.952 105.726 373.36 105.726ZM385.089 86.1131H387.145V105.559H385.089V86.1131ZM397.25 87.891H390.416V86.1131H406.14V87.891H399.306V105.559H397.25V87.891ZM423.175 103.781V105.559H409.424V86.1131H422.758V87.891H411.48V94.8082H421.536V96.5584H411.48V103.781H423.175ZM435.278 86.1131H437.333V105.559H435.278V86.1131ZM449.022 105.726C447.578 105.726 446.189 105.494 444.855 105.031C443.54 104.568 442.522 103.957 441.799 103.198L442.605 101.614C443.309 102.318 444.244 102.892 445.411 103.337C446.577 103.763 447.781 103.976 449.022 103.976C450.763 103.976 452.069 103.661 452.939 103.031C453.81 102.383 454.245 101.55 454.245 100.531C454.245 99.7531 454.004 99.1326 453.522 98.6696C453.059 98.2066 452.485 97.8548 451.8 97.614C451.115 97.3547 450.161 97.0769 448.939 96.7806C447.476 96.4102 446.309 96.0583 445.439 95.725C444.568 95.3731 443.818 94.8453 443.188 94.1415C442.577 93.4377 442.272 92.484 442.272 91.2802C442.272 90.2986 442.531 89.4096 443.049 88.6133C443.568 87.7984 444.364 87.1502 445.439 86.6687C446.513 86.1872 447.846 85.9464 449.439 85.9464C450.55 85.9464 451.633 86.1038 452.689 86.4187C453.763 86.715 454.689 87.1317 455.467 87.6688L454.773 89.3078C453.958 88.7707 453.087 88.3725 452.161 88.1132C451.235 87.8354 450.328 87.6965 449.439 87.6965C447.735 87.6965 446.448 88.0299 445.577 88.6966C444.725 89.3448 444.3 90.1875 444.3 91.2246C444.3 92.0024 444.531 92.6321 444.994 93.1136C445.476 93.5766 446.068 93.9378 446.772 94.1971C447.494 94.4378 448.457 94.7064 449.661 95.0027C451.087 95.3546 452.235 95.7064 453.106 96.0583C453.995 96.3917 454.745 96.9102 455.356 97.614C455.967 98.2992 456.273 99.2345 456.273 100.42C456.273 101.401 456.004 102.3 455.467 103.114C454.949 103.911 454.143 104.55 453.05 105.031C451.958 105.494 450.615 105.726 449.022 105.726ZM475.856 105.726C473.338 105.726 471.374 105.003 469.967 103.559C468.559 102.114 467.856 100.012 467.856 97.2529V86.1131H469.911V97.1695C469.911 99.429 470.421 101.114 471.439 102.225C472.458 103.337 473.93 103.892 475.856 103.892C477.801 103.892 479.283 103.337 480.301 102.225C481.32 101.114 481.829 99.429 481.829 97.1695V86.1131H483.829V97.2529C483.829 100.012 483.125 102.114 481.718 103.559C480.329 105.003 478.375 105.726 475.856 105.726ZM506.275 86.1131V105.559H504.581L492.08 89.78V105.559H490.024V86.1131H491.718L504.247 101.892V86.1131H506.275ZM512.622 86.1131H520.54C522.595 86.1131 524.41 86.5298 525.984 87.3632C527.559 88.1781 528.781 89.3263 529.651 90.8079C530.522 92.271 530.957 93.947 530.957 95.8361C530.957 97.7251 530.522 99.4104 529.651 100.892C528.781 102.355 527.559 103.503 525.984 104.337C524.41 105.152 522.595 105.559 520.54 105.559H512.622V86.1131ZM520.428 103.781C522.132 103.781 523.623 103.448 524.901 102.781C526.179 102.096 527.17 101.161 527.873 99.9753C528.577 98.7715 528.929 97.3918 528.929 95.8361C528.929 94.2804 528.577 92.9099 527.873 91.7246C527.17 90.5208 526.179 89.5856 524.901 88.9189C523.623 88.2336 522.132 87.891 520.428 87.891H514.678V103.781H520.428ZM549.324 103.781V105.559H535.573V86.1131H548.908V87.891H537.629V94.8082H547.685V96.5584H537.629V103.781H549.324ZM567.435 105.559L562.991 99.3086C562.491 99.3641 561.972 99.3919 561.435 99.3919H556.212V105.559H554.157V86.1131H561.435C563.917 86.1131 565.861 86.7057 567.269 87.891C568.676 89.0763 569.38 90.706 569.38 92.7803C569.38 94.2989 568.991 95.5861 568.213 96.6417C567.454 97.6788 566.361 98.4289 564.935 98.8919L569.686 105.559H567.435ZM561.379 97.6418C563.306 97.6418 564.778 97.2158 565.796 96.3639C566.815 95.512 567.324 94.3174 567.324 92.7803C567.324 91.2061 566.815 90.0023 565.796 89.1689C564.778 88.317 563.306 87.891 561.379 87.891H556.212V97.6418H561.379Z" fill="white"/>
<path d="M765.429 466.271H0.667969V492.494H765.429V466.271Z" fill="#050505"/>
<path d="M57.6313 461.145L109.815 277.416H131.558L187.066 460.962L57.6313 461.145Z" fill="#FF6C22"/>
<path d="M199.429 455.443H44.7622V477.188H199.429V455.443Z" fill="#E0682B"/>
<path d="M148.318 332.833L99.4986 313.74L91.2654 342.727L159.364 369.361L148.318 332.833Z" fill="#ECEFF1"/>
<path d="M83.0368 371.697L74.8043 400.684L181.452 442.395L170.404 405.867L83.0368 371.697Z" fill="#ECEFF1"/>
<path opacity="0.18" d="M181.751 442.395L180.311 437.635L159.664 369.361L148.617 332.833L131.858 277.416H110.783L124.716 323.485L127.543 332.833L135.763 360.014L138.589 369.361L146.803 396.519L157.849 433.048L159.237 437.635L160.677 442.395L164.622 455.443H178.656H185.696L181.751 442.395Z" fill="#666666"/>
<path d="M537.02 232.787L582.617 477.534H558.156L514.303 232.781L537.02 232.787Z" fill="#333333"/>
<path d="M526.243 232.787L571.84 477.534H547.38L503.526 232.781L526.243 232.787Z" fill="#666666"/>
<path d="M283.003 232.787L328.603 477.534H304.141L260.287 232.781L283.003 232.787Z" fill="#333333"/>
<path d="M272.226 232.787L317.824 477.534H293.363L249.51 232.781L272.226 232.787Z" fill="#666666"/>
<path d="M224.409 232.787L178.985 477.534H203.446L247.076 232.183L224.409 232.787Z" fill="#4D4D4D"/>
<path d="M497.675 365.185H241.804L233.657 357.301L489.531 232.787L497.675 240.67V365.185Z" fill="#CCCCCC"/>
<path d="M233.657 357.301H264.319L233.657 320.025V357.301Z" fill="#ECEFF1"/>
<path d="M338.02 232.787L440.444 357.301H489.531V345.044L397.187 232.787H338.02Z" fill="#ECEFF1"/>
<path d="M233.657 232.787V247.931L323.624 357.301H381.141L278.716 232.787H233.657Z" fill="#ECEFF1"/>
<path d="M489.531 232.787H456.493L489.531 272.95V232.787Z" fill="#ECEFF1"/>
<path d="M233.657 320.025L264.319 357.301H323.624L233.657 247.931V320.025Z" fill="#FF6C22"/>
<path d="M278.716 232.787L381.141 357.301H440.444L338.02 232.787H278.716Z" fill="#FF6C22"/>
<path d="M456.494 232.787H397.188L489.531 345.044V272.95L456.494 232.787Z" fill="#FF6C22"/>
<path d="M497.675 365.185L489.531 357.301H233.657L241.671 365.316L497.675 365.185Z" fill="#B2B2B2"/>
<path d="M500.653 232.787L455.23 477.534H479.693L523.774 232.787H500.653Z" fill="#4D4D4D"/>
<path d="M471.902 411.585H196.306V431.967H471.902V411.585Z" fill="#4D4D4D"/>
<path d="M468.58 402.059H192.983V422.441H468.58V402.059Z" fill="#999999"/>
<path d="M210.971 232.787L165.548 477.534H190.008L233.638 232.183L210.971 232.787Z" fill="#999999"/>
<path d="M489.531 232.787L444.109 477.534H468.568L511.994 232.787H489.531Z" fill="#999999"/>
<path d="M754.626 462.884L751.521 452.62L750.388 448.874L734.145 395.167L725.457 366.431L712.273 322.841H712.036H695.695H694.933L686.818 351.413L680.341 374.215L673.869 397.006L667.96 417.81L655.159 462.884H643.762V479.989H765.429V462.884H754.626Z" fill="#050505"/>
<path d="M546.452 461.145L598.633 277.416H620.377L675.887 460.962L546.452 461.145Z" fill="#FF6C22"/>
<path d="M688.25 455.443H533.583V477.188H688.25V455.443Z" fill="#E0682B"/>
<path d="M637.136 332.833L588.316 313.74L580.084 342.727L648.182 369.361L637.136 332.833Z" fill="#ECEFF1"/>
<path d="M571.858 371.697L563.622 400.684L670.27 442.395L659.225 405.867L571.858 371.697Z" fill="#ECEFF1"/>
<path opacity="0.18" d="M670.57 442.395L669.13 437.635L648.483 369.361L637.435 332.833L620.677 277.416H599.602L613.535 323.485L616.36 332.833L624.582 360.014L627.407 369.361L635.623 396.519L646.669 433.048L648.056 437.635L649.495 442.395L653.442 455.443H667.475H674.517L670.57 442.395Z" fill="#666666"/>
<path d="M392.488 30.2573L390.676 35.6338H390.077L388.502 31.0488L386.92 35.6338H386.329L384.516 30.2573H385.1L386.651 34.8813L388.256 30.2573H388.786L390.369 34.9042L391.943 30.2573H392.488Z" fill="#E1E1E1"/>
<path d="M397.941 35.1423V35.6338H394.14V30.2573H397.826V30.7488H394.708V32.6615H397.488V33.1453H394.708V35.1423H397.941Z" fill="#E1E1E1"/>
<path d="M404.097 33.3184C404.289 33.5461 404.385 33.8394 404.385 34.1978C404.385 34.6587 404.215 35.0132 403.874 35.2617C403.534 35.5102 403.031 35.6338 402.365 35.6338H399.892V30.2573H402.212C402.811 30.2573 403.275 30.3777 403.606 30.6185C403.936 30.8593 404.101 31.1997 404.101 31.6398C404.101 31.937 404.028 32.1892 403.882 32.3965C403.736 32.6037 403.535 32.7588 403.279 32.8611C403.633 32.938 403.905 33.0907 404.097 33.3184ZM400.461 30.7261V32.677H402.173C402.609 32.677 402.944 32.5937 403.18 32.4275C403.415 32.261 403.533 32.0192 403.533 31.7014C403.533 31.384 403.415 31.142 403.18 30.9757C402.944 30.8093 402.609 30.7263 402.173 30.7263H400.461V30.7261ZM403.448 34.9197C403.694 34.756 403.817 34.4999 403.817 34.1519C403.817 33.4809 403.33 33.1455 402.357 33.1455H400.46V35.1655H402.357C402.839 35.1655 403.203 35.0838 403.448 34.9197Z" fill="#E1E1E1"/>
<path d="M408.924 30.2573H411.113C411.682 30.2573 412.183 30.3712 412.619 30.5993C413.054 30.827 413.392 31.1443 413.632 31.5516C413.873 31.9587 413.993 32.4234 413.993 32.9457C413.993 33.468 413.873 33.9328 413.632 34.3397C413.392 34.7468 413.054 35.0646 412.619 35.2925C412.183 35.5202 411.682 35.634 411.113 35.634H408.924V30.2573ZM411.082 35.1423C411.553 35.1423 411.966 35.0487 412.319 34.862C412.672 34.675 412.946 34.4165 413.141 34.0861C413.336 33.7559 413.433 33.3757 413.433 32.9455C413.433 32.5152 413.336 32.135 413.141 31.8049C412.946 31.4743 412.672 31.216 412.319 31.0289C411.966 30.8423 411.554 30.7486 411.082 30.7486H409.493V35.1421H411.082V35.1423Z" fill="#E1E1E1"/>
<path d="M419.685 35.1423V35.6338H415.883V30.2573H419.569V30.7488H416.451V32.6615H419.231V33.1453H416.451V35.1423H419.685Z" fill="#E1E1E1"/>
<path d="M426.029 30.2573L423.648 35.6338H423.087L420.706 30.2573H421.321L423.379 34.9272L425.453 30.2573H426.029Z" fill="#E1E1E1"/>
<path d="M431.221 35.1423V35.6338H427.419V30.2573H431.106V30.7488H427.987V32.6615H430.768V33.1453H427.987V35.1423H431.221Z" fill="#E1E1E1"/>
<path d="M433.172 30.2573H433.74V35.1423H436.751V35.6338H433.172V30.2573H433.172Z" fill="#E1E1E1"/>
<path d="M439.105 35.323C438.672 35.0849 438.334 34.7583 438.091 34.3435C437.848 33.9292 437.726 33.463 437.726 32.9458C437.726 32.4285 437.848 31.9627 438.091 31.548C438.334 31.1332 438.672 30.8066 439.105 30.5685C439.537 30.3304 440.02 30.2117 440.552 30.2117C441.085 30.2117 441.565 30.3294 441.993 30.5648C442.42 30.8005 442.757 31.1268 443.003 31.5443C443.248 31.9618 443.371 32.4287 443.371 32.9459C443.371 33.4632 443.248 33.9305 443.003 34.3476C442.757 34.7651 442.42 35.0918 441.993 35.3271C441.565 35.5625 441.085 35.6802 440.552 35.6802C440.02 35.6802 439.537 35.5609 439.105 35.323ZM441.705 34.8851C442.048 34.6929 442.316 34.4269 442.511 34.0862C442.705 33.7458 442.803 33.3654 442.803 32.9456C442.803 32.5257 442.705 32.1455 442.511 31.8049C442.316 31.4646 442.048 31.198 441.705 31.006C441.362 30.8139 440.977 30.7181 440.552 30.7181C440.127 30.7181 439.742 30.8139 439.397 31.006C439.051 31.1982 438.779 31.4646 438.582 31.8049C438.386 32.1453 438.287 32.5257 438.287 32.9456C438.287 33.3654 438.385 33.7456 438.582 34.0862C438.779 34.4269 439.051 34.6931 439.397 34.8851C439.742 35.077 440.127 35.173 440.552 35.173C440.977 35.173 441.362 35.0772 441.705 34.8851Z" fill="#E1E1E1"/>
<path d="M448.886 30.749C449.275 31.0768 449.47 31.5277 449.47 32.1009C449.47 32.6744 449.275 33.1237 448.886 33.4488C448.497 33.7742 447.959 33.9367 447.273 33.9367H445.829V35.6338H445.261V30.2573H447.273C447.959 30.2575 448.497 30.4216 448.886 30.749ZM448.479 33.088C448.76 32.8548 448.901 32.526 448.901 32.1009C448.901 31.6657 448.76 31.3318 448.479 31.0988C448.197 30.8658 447.79 30.7492 447.257 30.7492H445.829V33.4374H447.257C447.79 33.4372 448.197 33.321 448.479 33.088Z" fill="#E1E1E1"/>
<path d="M455.114 35.1423V35.6338H451.313V30.2573H454.999V30.7488H451.881V32.6615H454.661V33.1453H451.881V35.1423H455.114Z" fill="#E1E1E1"/>
<path d="M460.737 35.6338L459.508 33.9055C459.37 33.9212 459.226 33.9289 459.078 33.9289H457.634V35.6338H457.065V30.2573H459.078C459.764 30.2573 460.301 30.4214 460.691 30.7488C461.079 31.0766 461.274 31.5275 461.274 32.1007C461.274 32.5209 461.168 32.8754 460.956 33.1645C460.743 33.4541 460.44 33.6625 460.045 33.7905L461.359 35.6338H460.737V35.6338ZM460.284 33.0915C460.565 32.8562 460.706 32.5256 460.706 32.1005C460.706 31.6653 460.565 31.3314 460.284 31.0984C460.002 30.8654 459.595 30.7488 459.062 30.7488H457.634V33.4446H459.062C459.595 33.4446 460.002 33.3271 460.284 33.0915Z" fill="#E1E1E1"/>
<path d="M462.692 31.1953C462.612 31.1136 462.573 31.0135 462.573 30.896C462.573 30.7784 462.612 30.6796 462.692 30.6C462.771 30.5207 462.867 30.4812 462.98 30.4812C463.093 30.4812 463.19 30.5207 463.272 30.6C463.354 30.6796 463.395 30.7782 463.395 30.896C463.395 31.0137 463.354 31.1136 463.272 31.1953C463.19 31.2773 463.093 31.3184 462.98 31.3184C462.867 31.3184 462.771 31.2773 462.692 31.1953ZM463.279 33.8721C463.356 33.9514 463.395 34.0499 463.395 34.1681C463.395 34.2295 463.386 34.296 463.368 34.3675C463.35 34.4395 463.323 34.5212 463.287 34.6136L462.964 35.6732H462.596L462.857 34.5595C462.775 34.5341 462.708 34.4866 462.657 34.4175C462.606 34.3481 462.58 34.265 462.58 34.1681C462.58 34.0499 462.619 33.9514 462.695 33.8721C462.772 33.7928 462.87 33.7533 462.987 33.7533C463.105 33.7533 463.202 33.7928 463.279 33.8721Z" fill="#E1E1E1"/>
<path d="M461.96 6.27295H447.309V6.799H461.96V6.27295Z" fill="#E1E1E1"/>
<path d="M461.977 5.29956H447.325V5.82522H461.977V5.29956Z" fill="#E1E1E1"/>
<path d="M461.96 4.3269H447.309V4.85276H461.96V4.3269Z" fill="#E1E1E1"/>
<path d="M461.96 3.35327H447.309V3.87952H461.96V3.35327Z" fill="#E1E1E1"/>
<path d="M462.484 22.9834H446.217V23.5106H462.484V22.9834Z" fill="#E1E1E1"/>
<path d="M462.481 22.0107H446.215V22.5368H462.481V22.0107Z" fill="#E1E1E1"/>
<path d="M462.484 21.0361H446.217V21.5618H462.484V21.0361Z" fill="#E1E1E1"/>
<path d="M462.484 20.0647H446.217V20.5904H462.484V20.0647Z" fill="#E1E1E1"/>
<path d="M461.556 6.46742L450.448 20.1646L450.856 20.4957L461.964 6.79853L461.556 6.46742Z" fill="#E1E1E1"/>
<path d="M460.208 6.34291L448.94 20.2397L449.348 20.5708L460.616 6.67397L460.208 6.34291Z" fill="#E1E1E1"/>
<path d="M458.77 6.3492L447.547 20.1899L447.956 20.5215L459.179 6.68075L458.77 6.3492Z" fill="#E1E1E1"/>
<path d="M457.297 6.41002L446.222 20.0669L446.63 20.3979L457.705 6.74101L457.297 6.41002Z" fill="#E1E1E1"/>
<path d="M311.414 3.21752H314.456L316.953 10.1349L319.479 3.21752H322.493L319.02 12.2876L322.062 19.7789L328.405 3.13135H331.936L323.526 23.5101H320.771L316.982 14.3827L313.165 23.5101H310.409L302 3.13154H305.502L311.873 19.7791L314.916 12.2878L311.414 3.21752Z" fill="#E1E1E1"/>
<path d="M347.176 20.6687V23.5103H333.198V3.13159H346.918V5.97305H336.413V11.771H345.511V14.4403H336.413V20.6687H347.176Z" fill="#E1E1E1"/>
<path d="M363.335 20.6687V23.5103H349.357V3.13159H363.076V5.97305H352.572V11.771H361.67V14.4403H352.572V20.6687H363.335Z" fill="#E1E1E1"/>
<path d="M365.516 23.5103V3.1602H368.73V13.6366L378.317 3.13135H381.876L373.839 12.1439L382.335 23.5101H378.747L371.859 14.1244L368.731 17.3677V23.5101H365.516V23.5103Z" fill="#E1E1E1"/>
<path d="M396.485 13.0336H401.508V21.3574C400.359 22.1802 399.039 22.8117 397.547 23.2516C396.054 23.6916 394.562 23.9117 393.069 23.9117C390.964 23.9117 389.07 23.4667 387.386 22.5771C385.702 21.6873 384.382 20.4486 383.425 18.86C382.468 17.2719 381.99 15.4731 381.99 13.4639C381.99 11.4549 382.468 9.65651 383.425 8.06796C384.382 6.4798 385.712 5.24083 387.415 4.35087C389.118 3.4611 391.041 3.01611 393.184 3.01611C395.059 3.01611 396.743 3.33174 398.236 3.9632C399.728 4.59485 400.972 5.50386 401.966 6.69002L398.35 9.96213C396.992 8.46956 395.365 7.72347 393.471 7.72347C391.749 7.72347 390.361 8.24501 389.31 9.28769C388.257 10.3308 387.731 11.723 387.731 13.4639C387.731 14.5739 387.97 15.5642 388.448 16.4347C388.926 17.3058 389.597 17.9846 390.457 18.4726C391.318 18.9605 392.303 19.2045 393.414 19.2045C394.504 19.2045 395.528 18.9847 396.485 18.5444V13.0336V13.0336Z" fill="#E1E1E1"/>
<path d="M421.254 19.1187V23.5102H405.124V3.41846H420.881V7.80999H410.749V11.1969H419.675V15.445H410.749V19.1189H421.254V19.1187Z" fill="#E1E1E1"/>
<path d="M443.526 3.41846V23.5102H438.848L429.979 12.8041V23.5102H424.411V3.41846H429.089L437.958 14.1246V3.41846H443.526Z" fill="#E1E1E1"/>
<path d="M464 0H383.863V0.526442H464V0Z" fill="#E1E1E1"/>
<path d="M464 26.6267H383.863V27.1531H464V26.6267Z" fill="#E1E1E1"/>
</svg>
