<svg width="38" height="38" viewBox="0 0 38 38" fill="none" xmlns="http://www.w3.org/2000/svg">
<rect width="38" height="38" rx="6" fill="#333333"/>
<g clip-path="url(#clip0_975_196)">
<path d="M9.61108 11.0557H11.0555V12.5001H9.61108V11.0557Z" fill="#888888"/>
<path d="M12.5 11.0557H13.9444V12.5001H12.5V11.0557Z" fill="#888888"/>
<path d="M15.3889 11.0557H16.8334V12.5001H15.3889V11.0557Z" fill="#888888"/>
<path d="M29.1111 8.88867H8.8889C8.50581 8.88867 8.13841 9.04085 7.86753 9.31174C7.59664 9.58263 7.44446 9.95003 7.44446 10.3331V27.6664C7.44446 28.0495 7.59664 28.4169 7.86753 28.6878C8.13841 28.9587 8.50581 29.1109 8.8889 29.1109H29.1111C29.4942 29.1109 29.8616 28.9587 30.1325 28.6878C30.4034 28.4169 30.5556 28.0495 30.5556 27.6664V10.3331C30.5556 9.95003 30.4034 9.58263 30.1325 9.31174C29.8616 9.04085 29.4942 8.88867 29.1111 8.88867V8.88867ZM8.8889 10.3331H29.1111V13.3664H8.8889V10.3331ZM8.8889 27.6664V14.522H29.1111V27.6664H8.8889Z" fill="#888888"/>
<path d="M16.6667 24.5L13.1667 21L16.6667 17.5L17.4979 18.3313L14.8146 21.0146L17.4834 23.6833L16.6667 24.5ZM21.3334 24.5L20.5021 23.6688L23.1854 20.9854L20.5167 18.3167L21.3334 17.5L24.8334 21L21.3334 24.5Z" fill="#888888"/>
</g>
<defs>
<clipPath id="clip0_975_196">
<rect width="26" height="26" fill="white" transform="translate(6 6)"/>
</clipPath>
</defs>
</svg>
