<svg width="38" height="38" viewBox="0 0 38 38" fill="none" xmlns="http://www.w3.org/2000/svg">
<rect width="38" height="38" rx="6" fill="#333333"/>
<path d="M15.8 18.1501C15.8 17.6182 15.9048 17.0916 16.1083 16.6002C16.3118 16.1089 16.6102 15.6624 16.9862 15.2863C17.3623 14.9102 17.8088 14.6119 18.3002 14.4084C18.7915 14.2049 19.3182 14.1001 19.85 14.1001C20.3819 14.1001 20.9085 14.2049 21.3999 14.4084C21.8913 14.6119 22.3377 14.9102 22.7138 15.2863C23.0899 15.6624 23.3882 16.1089 23.5917 16.6002C23.7953 17.0916 23.9 17.6182 23.9 18.1501C23.9 19.2242 23.4733 20.2544 22.7138 21.0139C21.9543 21.7734 20.9242 22.2001 19.85 22.2001C18.7759 22.2001 17.7458 21.7734 16.9862 21.0139C16.2267 20.2544 15.8 19.2242 15.8 18.1501V18.1501ZM19.85 15.4501C19.1339 15.4501 18.4472 15.7346 17.9408 16.2409C17.4345 16.7473 17.15 17.434 17.15 18.1501C17.15 18.8662 17.4345 19.5529 17.9408 20.0593C18.4472 20.5656 19.1339 20.8501 19.85 20.8501C20.5661 20.8501 21.2529 20.5656 21.7592 20.0593C22.2656 19.5529 22.55 18.8662 22.55 18.1501C22.55 17.434 22.2656 16.7473 21.7592 16.2409C21.2529 15.7346 20.5661 15.4501 19.85 15.4501V15.4501ZM17.15 8.0251C17.15 7.84608 17.0789 7.67439 16.9523 7.5478C16.8257 7.42121 16.654 7.3501 16.475 7.3501C16.296 7.3501 16.1243 7.42121 15.9977 7.5478C15.8711 7.67439 15.8 7.84608 15.8 8.0251V10.0501H15.125C14.2299 10.0501 13.3715 10.4057 12.7385 11.0386C12.1056 11.6715 11.75 12.53 11.75 13.4251V14.1001H9.72503C9.54601 14.1001 9.37432 14.1712 9.24773 14.2978C9.12114 14.4244 9.05003 14.5961 9.05003 14.7751C9.05003 14.9541 9.12114 15.1258 9.24773 15.2524C9.37432 15.379 9.54601 15.4501 9.72503 15.4501H11.75V17.4751H9.72503C9.60835 17.4751 9.49365 17.5052 9.39213 17.5627C9.2906 17.6202 9.20571 17.7031 9.14574 17.8032C9.08577 17.9032 9.05277 18.0172 9.04995 18.1338C9.04714 18.2505 9.07461 18.3658 9.12968 18.4687C9.75643 18.2572 10.4135 18.1496 11.075 18.1501C11.7851 18.1501 12.4655 18.2716 13.1 18.4957V13.4251C13.1 12.888 13.3134 12.373 13.6931 11.9932C14.0729 11.6134 14.588 11.4001 15.125 11.4001H24.575C25.1121 11.4001 25.6272 11.6134 26.0069 11.9932C26.3867 12.373 26.6 12.888 26.6 13.4251V22.8751C26.6 23.4122 26.3867 23.9272 26.0069 24.307C25.6272 24.6868 25.1121 24.9001 24.575 24.9001H17.1136C17.0622 25.3605 16.958 25.8135 16.8031 26.2501H19.175V28.2751C19.175 28.4541 19.2461 28.6258 19.3727 28.7524C19.4993 28.879 19.671 28.9501 19.85 28.9501C20.029 28.9501 20.2007 28.879 20.3273 28.7524C20.4539 28.6258 20.525 28.4541 20.525 28.2751V26.2501H22.55V28.2751C22.55 28.4541 22.6211 28.6258 22.7477 28.7524C22.8743 28.879 23.046 28.9501 23.225 28.9501C23.404 28.9501 23.5757 28.879 23.7023 28.7524C23.8289 28.6258 23.9 28.4541 23.9 28.2751V26.2501H24.575C25.4701 26.2501 26.3286 25.8945 26.9615 25.2616C27.5944 24.6286 27.95 23.7702 27.95 22.8751V22.2001H29.975C30.154 22.2001 30.3257 22.129 30.4523 22.0024C30.5789 21.8758 30.65 21.7041 30.65 21.5251C30.65 21.3461 30.5789 21.1744 30.4523 21.0478C30.3257 20.9212 30.154 20.8501 29.975 20.8501H27.95V18.8251H29.975C30.154 18.8251 30.3257 18.754 30.4523 18.6274C30.5789 18.5008 30.65 18.3291 30.65 18.1501C30.65 17.9711 30.5789 17.7994 30.4523 17.6728C30.3257 17.5462 30.154 17.4751 29.975 17.4751H27.95V15.4501H29.975C30.154 15.4501 30.3257 15.379 30.4523 15.2524C30.5789 15.1258 30.65 14.9541 30.65 14.7751C30.65 14.5961 30.5789 14.4244 30.4523 14.2978C30.3257 14.1712 30.154 14.1001 29.975 14.1001H27.95V13.4251C27.95 12.53 27.5944 11.6715 26.9615 11.0386C26.3286 10.4057 25.4701 10.0501 24.575 10.0501H23.9V8.0251C23.9 7.84608 23.8289 7.67439 23.7023 7.5478C23.5757 7.42121 23.404 7.3501 23.225 7.3501C23.046 7.3501 22.8743 7.42121 22.7477 7.5478C22.6211 7.67439 22.55 7.84608 22.55 8.0251V10.0501H20.525V8.0251C20.525 7.84608 20.4539 7.67439 20.3273 7.5478C20.2007 7.42121 20.029 7.3501 19.85 7.3501C19.671 7.3501 19.4993 7.42121 19.3727 7.5478C19.2461 7.67439 19.175 7.84608 19.175 8.0251V10.0501H17.15V8.0251ZM11.075 28.9501C12.1361 28.9501 13.1162 28.5991 13.9046 28.0091L17.3471 31.4516C17.4737 31.5784 17.6454 31.6497 17.8246 31.6498C18.0037 31.6499 18.1755 31.5789 18.3023 31.4523C18.429 31.3258 18.5003 31.154 18.5004 30.9749C18.5005 30.7958 18.4295 30.6239 18.3029 30.4972L14.8604 27.0547C15.4976 26.2025 15.8286 25.1603 15.7996 24.0966C15.7707 23.0329 15.3836 22.0102 14.701 21.1939C14.0184 20.3777 13.0802 19.8157 12.0385 19.5991C10.9967 19.3824 9.91233 19.5237 8.96089 20.0001C8.00944 20.4765 7.24665 21.2601 6.79603 22.2241C6.3454 23.188 6.23332 24.2758 6.47794 25.3113C6.72255 26.3469 7.30954 27.2696 8.14386 27.93C8.97818 28.5903 10.011 28.9498 11.075 28.9501V28.9501ZM11.075 27.6001C10.1799 27.6001 9.32148 27.2445 8.68854 26.6116C8.05561 25.9786 7.70003 25.1202 7.70003 24.2251C7.70003 23.33 8.05561 22.4715 8.68854 21.8386C9.32148 21.2057 10.1799 20.8501 11.075 20.8501C11.9701 20.8501 12.8286 21.2057 13.4615 21.8386C14.0944 22.4715 14.45 23.33 14.45 24.2251C14.45 25.1202 14.0944 25.9786 13.4615 26.6116C12.8286 27.2445 11.9701 27.6001 11.075 27.6001Z" fill="#888888"/>
</svg>
