<?xml version="1.0" encoding="utf-8"?>
<!-- Generator: Adobe Illustrator 16.0.0, SVG Export Plug-In . SVG Version: 6.00 Build 0)  -->
<!DOCTYPE svg PUBLIC "-//W3C//DTD SVG 1.1//EN" "http://www.w3.org/Graphics/SVG/1.1/DTD/svg11.dtd">
<svg version="1.1" id="Layer_1" xmlns="http://www.w3.org/2000/svg" xmlns:xlink="http://www.w3.org/1999/xlink" x="0px" y="0px"
	 width="1080px" height="1080px" viewBox="0 0 1080 1080" enable-background="new 0 0 1080 1080" xml:space="preserve">
<rect fill="#0E0E0E" width="1080" height="1080"/>
<g>
	<g>
		<g>
			
				<text transform="matrix(1 0 0 1 164.8213 708.377)" fill="#E1E1E1" font-family="'Montserrat-Regular'" font-size="74.8828" letter-spacing="5">WEB DEVELOPER</text>
		</g>
		<g>
			
				<text transform="matrix(1 0 0 1 924.6563 697.8262)" fill="#E1E1E1" font-family="'Montserrat-Regular'" font-size="74.8828" letter-spacing="5">;</text>
		</g>
	</g>
	<g>
		<g>
			<g>
				<g>
					<g>
						<g>
							<rect x="779.811" y="422.124" fill="#E1E1E1" width="142.836" height="5.128"/>
						</g>
						<g>
							<rect x="779.969" y="412.634" fill="#E1E1E1" width="142.846" height="5.125"/>
						</g>
						<g>
							<rect x="779.811" y="403.152" fill="#E1E1E1" width="142.836" height="5.125"/>
						</g>
						<g>
							<rect x="779.811" y="393.658" fill="#E1E1E1" width="142.836" height="5.13"/>
						</g>
					</g>
					<g>
						<g>
							<rect x="769.163" y="585.039" fill="#E1E1E1" width="158.593" height="5.141"/>
						</g>
						<g>
							<rect x="769.145" y="575.559" fill="#E1E1E1" width="158.589" height="5.129"/>
						</g>
						<g>
							<rect x="769.163" y="566.057" fill="#E1E1E1" width="158.593" height="5.125"/>
						</g>
						<g>
							<rect x="769.163" y="556.586" fill="#E1E1E1" width="158.593" height="5.125"/>
						</g>
					</g>
					<g>
						<g>
							<polygon fill="#E1E1E1" points="922.646,427.245 814.352,560.783 810.369,557.559 918.658,424.015 							"/>
						</g>
						<g>
							<polygon fill="#E1E1E1" points="909.62,426 799.752,561.49 795.767,558.268 905.642,422.771 							"/>
						</g>
						<g>
							<polygon fill="#E1E1E1" points="895.589,426.06 786.166,561.004 782.182,557.768 891.608,422.832 							"/>
						</g>
						<g>
							<polygon fill="#E1E1E1" points="881.099,426.664 773.125,559.813 769.145,556.586 877.127,423.436 							"/>
						</g>
					</g>
				</g>
			</g>
			<g>
				
					<text transform="matrix(1 0 0 1 133.4785 589.8584)" fill="#E1E1E1" font-family="'Montserrat-ExtraBold'" font-size="279.8315">GEN</text>
			</g>
		</g>
		<rect x="161.226" y="360.968" fill="#E1E1E1" width="781.314" height="5.132"/>
		<rect x="161.226" y="620.561" fill="#E1E1E1" width="781.314" height="5.131"/>
	</g>
</g>
</svg>
