<?xml version="1.0" encoding="utf-8"?>
<!-- Generator: Adobe Illustrator 16.0.0, SVG Export Plug-In . SVG Version: 6.00 Build 0)  -->
<!DOCTYPE svg PUBLIC "-//W3C//DTD SVG 1.1//EN" "http://www.w3.org/Graphics/SVG/1.1/DTD/svg11.dtd">
<svg version="1.1" id="Layer_1" xmlns="http://www.w3.org/2000/svg" xmlns:xlink="http://www.w3.org/1999/xlink" x="0px" y="0px"
	 width="300px" height="70px" viewBox="0 0 300 70" enable-background="new 0 0 300 70" xml:space="preserve">
<g>
	<path fill="#999999" d="M72.536,38.172h6.449c-0.759,2.087-2.764,3.396-5.292,3.396c-3.451,0-5.769-2.401-5.769-5.975
		c0-3.519,2.372-5.978,5.769-5.978c2.568,0,4.721,1.453,5.357,3.615l0.118,0.401h3.268l-0.138-0.672
		c-0.791-3.833-4.35-6.51-8.654-6.51c-5.187,0-8.952,3.845-8.952,9.143c0,5.297,3.786,9.141,9.001,9.141
		c5.126,0,8.777-3.735,8.878-9.083l0.011-0.571H72.536V38.172z"/>
	<path fill="#999999" d="M95.578,35.189c0.973-0.914,1.588-2.298,1.588-3.687c0-2.745-2.253-4.814-5.241-4.814h-7.143V44.45h7.216
		c3.139,0,5.599-2.25,5.599-5.122C97.596,37.59,96.84,36.074,95.578,35.189z M87.968,36.89h4.029c1.333,0,2.339,0.944,2.339,2.198
		c0,1.273-0.994,2.197-2.363,2.197h-4.004V36.89z M91.875,33.729h-3.907v-3.875h3.907c1.14,0,2.034,0.851,2.034,1.937
		C93.909,32.896,93.034,33.729,91.875,33.729z"/>
	<rect x="100.114" y="26.688" fill="#999999" width="3.211" height="17.762"/>
	<polygon fill="#999999" points="119.101,34.232 114.515,26.688 110.924,26.688 117.445,37.412 117.445,44.45 120.727,44.45 
		120.727,37.413 127.297,26.688 123.704,26.688 	"/>
	<path fill="#999999" d="M134.481,30.23c-4.047,0-7.099,3.112-7.099,7.239c0,4.143,3.052,7.266,7.099,7.266
		c2.989,0,5.475-1.693,6.649-4.531l0.32-0.772h-3.303l-0.161,0.282c-0.705,1.246-1.95,1.93-3.505,1.93
		c-1.912,0-3.361-1.091-3.839-2.83h10.774l0.054-0.644c0.018-0.208,0.035-0.415,0.035-0.626
		C141.505,33.305,138.551,30.23,134.481,30.23z M134.481,33.252c1.793,0,3.167,0.976,3.72,2.591h-7.471
		C131.279,34.249,132.69,33.252,134.481,33.252z"/>
	<path fill="#999999" d="M146.092,31.764l-0.199-1.271h-2.49V44.45h3.141v-7.524c0-2.231,1.111-3.46,3.127-3.46h1.867v-3.019h-1.702
		C148.321,30.447,147.067,30.889,146.092,31.764z"/>
	<path fill="#999999" d="M161.733,38.159c0,2.196-1.168,3.508-3.124,3.508c-1.943,0-3.104-1.312-3.104-3.508v-7.666h-3.141v8.001
		c0,3.732,2.511,6.24,6.244,6.24c3.807,0,6.265-2.45,6.265-6.24v-8.001h-3.141V38.159z"/>
	<path fill="#999999" d="M172.577,35.753c-1.911-0.291-2.709-0.539-2.709-1.324c0-0.937,1.172-1.271,2.269-1.271
		c1.063,0,2.345,0.282,2.413,1.631l0.026,0.532h3.008l-0.016-0.576c-0.081-2.743-2.194-4.515-5.386-4.515
		c-3.236,0-5.41,1.716-5.41,4.269c0,3.392,2.961,3.908,5.13,4.285c2.016,0.33,2.859,0.618,2.859,1.541
		c0,0.992-1.236,1.438-2.462,1.438c-0.595,0-2.544-0.133-2.646-1.826l-0.031-0.526h-3.11l0.027,0.585
		c0.132,2.88,2.366,4.739,5.692,4.739c3.376,0,5.646-1.81,5.646-4.506C177.877,36.606,174.817,36.112,172.577,35.753z"/>
	<path fill="#999999" d="M190.654,31.84c-1.259-1.045-2.874-1.61-4.658-1.61c-4.113,0-7.215,3.125-7.215,7.268
		c0,4.126,3.102,7.236,7.215,7.236c1.757,0,3.355-0.553,4.61-1.574l0.144,1.29h2.725V30.493h-2.643L190.654,31.84z M186.137,41.667
		c-2.378,0-4.171-1.805-4.171-4.198c0-2.375,1.793-4.167,4.171-4.167c2.404,0,4.15,1.753,4.15,4.167
		C190.287,39.901,188.541,41.667,186.137,41.667z"/>
	<rect x="196.42" y="25.93" fill="#999999" width="3.137" height="18.52"/>
	<path fill="#999999" d="M208.605,30.23c-4.047,0-7.099,3.112-7.099,7.239c0,4.143,3.052,7.266,7.099,7.266
		c2.983,0,5.47-1.693,6.651-4.529l0.321-0.774h-3.306l-0.161,0.282c-0.705,1.246-1.95,1.93-3.506,1.93
		c-1.91,0-3.357-1.091-3.838-2.83h10.256l0.516-0.069l0.048-0.507c0.021-0.232,0.042-0.461,0.042-0.693
		C215.629,33.305,212.674,30.23,208.605,30.23z M208.605,33.252c1.793,0,3.168,0.976,3.722,2.591h-7.471
		C205.404,34.249,206.814,33.252,208.605,33.252z"/>
	<path fill="#999999" d="M232.281,30.23c-1.632,0-3.209,0.742-4.294,1.979c-0.903-1.268-2.32-1.979-4.004-1.979
		c-1.395,0-2.718,0.509-3.763,1.425l-0.217-1.162h-2.473V44.45h3.137v-7.67c0-1.983,1.284-3.598,2.864-3.598
		c2.058,0,2.366,1.972,2.366,3.147v8.12h3.116v-7.67c0-2.018,1.258-3.598,2.862-3.598c2.037,0,2.341,1.972,2.341,3.147v8.12h3.141
		v-8.761C237.358,32.475,235.271,30.23,232.281,30.23z"/>
	<path fill="#999999" d="M257.378,35.189c0.975-0.913,1.589-2.297,1.589-3.687c0-2.745-2.254-4.814-5.24-4.814h-7.144V44.45h7.212
		c3.141,0,5.6-2.25,5.6-5.122C259.395,37.59,258.64,36.074,257.378,35.189z M249.765,36.89h4.03c1.336,0,2.344,0.944,2.344,2.198
		c0,1.273-0.994,2.197-2.365,2.197h-4.009V36.89z M253.679,33.729h-3.914v-3.875h3.914c1.14,0,2.031,0.851,2.031,1.937
		C255.71,32.896,254.836,33.729,253.679,33.729z"/>
	<path fill="#999999" d="M272.53,31.84c-1.26-1.045-2.876-1.61-4.659-1.61c-4.113,0-7.215,3.125-7.215,7.268
		c0,4.126,3.102,7.236,7.215,7.236c1.758,0,3.356-0.552,4.609-1.573l0.142,1.289h2.728V30.493h-2.641L272.53,31.84z M268.012,41.667
		c-2.377,0-4.17-1.805-4.17-4.198c0-2.375,1.793-4.167,4.17-4.167c2.405,0,4.15,1.753,4.15,4.167
		C272.162,39.901,270.417,41.667,268.012,41.667z"/>
	<path fill="#999999" d="M280.981,31.761l-0.195-1.268h-2.49V44.45h3.139v-7.524c0-2.231,1.109-3.46,3.124-3.46h1.87v-3.019h-1.706
		C283.207,30.447,281.954,30.888,280.981,31.761z"/>
	<path fill="#999999" d="M296.623,30.493v7.666c0,2.196-1.169,3.508-3.125,3.508c-1.943,0-3.104-1.312-3.104-3.508v-7.666h-3.136
		v8.001c0,3.732,2.507,6.24,6.239,6.24c3.807,0,6.267-2.45,6.267-6.24v-8.001H296.623z"/>
</g>
<g>
	<g>
		<path fill="#999999" d="M39.881,50.999L39.881,50.999c0.655,0.386,1.886,1.289,3.307,3.232c0,0,2.86,4.259,6.077,4.468
			c0,0,2.264,0.388,3.604,3.543c0,0,0.063,0.089,0.181,0.156c0,0,0.391-0.014,0.975,0.028c0.221-1.222,0.339-2.48,0.339-3.764
			c0-9.789-6.693-18.012-15.752-20.347v11.856C39.452,50.604,39.881,50.999,39.881,50.999z"/>
		<path fill="#999999" d="M12.737,62.477c0.062,0.033,0.094,0.063,0.094,0.063c0.563,0.134,2.819,0.521,4.117-1.607
			c0,0,0.863-1.878,2.323-1.981c0,0,1.22,0.076,2.055-2.752c0,0,0.49-2.366,3.112-4.101c0.306-0.187,1.48-0.611,1.48-0.611v-0.001
			c0.729-0.193,1.641-0.513,2.526-0.849v-0.08v-0.112V38.232c-9.231,2.212-16.095,10.521-16.095,20.431
			c0,1.287,0.119,2.546,0.341,3.771C12.695,62.438,12.715,62.456,12.737,62.477z"/>
	</g>
	<g>
		<polygon fill="#999999" points="34.979,23.112 37.357,23.112 37.357,0.666 34.979,1.971 		"/>
		<polygon fill="#999999" points="29.74,9.43 29.736,9.424 29.736,23.112 32.115,23.112 32.115,8.127 		"/>
		<g>
			<polygon fill="#999999" points="17.155,27.881 17.164,27.881 17.155,27.875 			"/>
			<polygon fill="#999999" points="18.454,25.502 18.455,25.502 17.164,27.881 32.115,27.881 32.115,25.502 			"/>
		</g>
		<polygon fill="#999999" points="22.418,20.733 21.127,23.112 32.115,23.112 32.115,20.733 		"/>
		<g>
			<polygon fill="#999999" points="34.979,20.733 34.979,23.112 43.999,23.112 42.708,20.733 			"/>
			<polygon fill="#999999" points="43.999,23.112 44.003,23.112 44.003,23.107 			"/>
		</g>
		<polygon fill="#999999" points="47.292,25.502 47.292,25.502 34.979,25.502 34.979,27.881 48.571,27.881 48.571,27.86 		"/>
		<path fill="#999999" d="M37.357,49.646V25.502h-2.379V49.15C35.898,49.238,36.692,49.423,37.357,49.646z"/>
		<path fill="#999999" d="M30.18,49.948c0,0,0.001,0,0.002-0.001c0.589-0.237,1.364-0.464,1.933-0.616V25.502h-2.379v24.626
			C29.888,50.066,30.038,50.006,30.18,49.948z"/>
	</g>
	<path fill="#898989" d="M62.262,67.993c-0.156-0.03-0.304-0.064-0.448-0.101l-0.011,0.015h-5.54c0,0-0.988-0.032-1.385-0.719
		c0,0-0.344-0.811-1.596-0.503c0,0,1.398-0.986,2.19-0.07c0,0,0.357,0.427,1.146,0.451h3.234c-1.247-0.813-1.563-1.771-1.563-1.771
		c-0.595-1.371-1.429-1.414-1.429-1.414l-7.526-0.217c-1.31,0-1.569,0.178-1.569,0.178c-1.647,0.854-1.727,0.398-1.727,0.398
		c0.997-0.916,1.679-1.374,2.104-1.601c0.003-0.001,0.493-0.228,1.066-0.228c0.575,0,0.575,0,0.575,0h1.001
		c0-1.747-1.906-2.125-1.906-2.125c-4.091-0.912-8.142-6.711-8.142-6.711c-0.616-0.854-1.351-1.093-1.351-1.093
		c-0.933-0.159-3.833-1.39-3.833-1.39c-2.342-1.23-3.27-0.537-3.27-0.537c-1.959,1.55-5.467,2.345-5.467,2.345
		c-3.614,0.636-4.25,5.282-4.25,5.282l4.409-1.51c0.497-0.178,0.854,0.14,0.854,0.14c1.45,1.787,1.808,3.097,1.808,3.097
		c-1.728-1.827-2.145-1.747-2.145-1.747c-0.417-0.12-6.314,1.708-6.314,1.708c-2.86,0.694-3.157,2.302-3.157,2.302
		c-0.205,0.431-0.472,0.771-0.776,1.041c2.114,0.061,2.725-0.11,2.725-0.11c2.501-0.692,2.583-0.333,2.583-0.333
		c-0.221,0.178-2.316,1.011-2.316,1.011c-1.008,0.4-2.193,0.394-2.193,0.394s-3.627,0.079-4.387-0.017c-0.001,0-0.004,0-0.005-0.001
		c-0.512-0.04-0.852-0.117-0.852-0.117c-1.927-0.198-2.404,1.986-2.404,1.986c-0.298,1.668-7.803,3.753-7.803,3.753
		c-0.832,0.245,0,0.22,0,0.22h63.822C65.002,68.688,62.262,67.993,62.262,67.993z"/>
	<path fill="#999999" d="M37.699,66.484c-0.12-2.701-1.362-5.204-1.362-5.204c-1.481-2.304-1.616-4.964-1.616-4.964
		c-0.16-3.178,5.093-3.617,5.093-3.617c-0.251-0.158-0.427-0.216-0.427-0.216c-0.933-0.159-3.833-1.39-3.833-1.39
		c-2.342-1.23-3.27-0.537-3.27-0.537c-1.959,1.55-5.467,2.345-5.467,2.345c-3.614,0.636-4.25,5.282-4.25,5.282l4.409-1.51
		c0.497-0.178,0.854,0.14,0.854,0.14c1.45,1.787,1.808,3.097,1.808,3.097c-1.728-1.827-2.145-1.747-2.145-1.747
		c-0.417-0.12-6.314,1.708-6.314,1.708c-2.86,0.694-3.157,2.302-3.157,2.302c-0.205,0.431-0.472,0.771-0.776,1.041
		c2.114,0.061,2.725-0.11,2.725-0.11c2.501-0.692,2.583-0.333,2.583-0.333c-0.221,0.178-2.316,1.011-2.316,1.011
		c-1.008,0.4-2.193,0.394-2.193,0.394s-3.627,0.079-4.387-0.017c-0.001,0-0.004,0-0.005-0.001c-0.512-0.04-0.852-0.117-0.852-0.117
		c-1.927-0.198-2.404,1.986-2.404,1.986c-0.298,1.668-7.803,3.753-7.803,3.753c-0.832,0.245,0,0.22,0,0.22h40.43
		C37.579,68.866,37.699,66.484,37.699,66.484z"/>
	<path fill-rule="evenodd" clip-rule="evenodd" fill="#C4C4C4" d="M9.481,65.897c1.539-3.818,2.801-3.639,3.21-3.446
		c-0.001-0.007-0.003-0.015-0.003-0.021c0,0,0.022,0.021,0.049,0.046c0.062,0.033,0.094,0.063,0.094,0.063
		c0.563,0.134,2.819,0.521,4.117-1.607c0,0,0.863-1.878,2.323-1.981c0,0,1.22,0.076,2.055-2.752c0,0,0.075-0.36,0.321-0.903
		c-0.613,0-1.225,0-1.855,0c0,0.094,0,0.163,0,0.236c0,0.78,0.001,1.564,0,2.349c0,0.069-0.005,0.138-0.008,0.207
		c-0.313,0-0.599,0-0.91,0c0-1.027,0-2.041,0-3.061c-0.102-0.012-0.182-0.023-0.282-0.035c0-0.768,0-1.524,0-2.279
		c-0.084-0.013-0.148-0.022-0.208-0.032c-0.015-0.068-0.028-0.124-0.041-0.179c-0.074-0.011-0.139-0.02-0.22-0.03
		c0-0.072,0-0.136,0-0.201c0-0.447,0-0.893-0.001-1.339c0-0.048,0.005-0.131-0.012-0.138c-0.131-0.049-0.069-0.179-0.121-0.271
		c-0.292-0.009-0.583-0.016-0.873,0.003c-0.009,0.083-0.015,0.143-0.021,0.211c-0.11,0.009-0.133,0.074-0.132,0.171
		c0.005,0.46,0.002,0.916,0.002,1.374c0,0.065,0,0.129,0,0.19c-0.078,0.013-0.131,0.021-0.207,0.037c0,0.203,0,0.408,0,0.61
		c0,0.212,0,0.423,0,0.633c0,0.205,0.001,0.411,0,0.615c-0.002,0.208,0.009,0.416-0.009,0.626c-0.082,0.015-0.146,0.023-0.223,0.034
		c0,0.249,0,0.49,0,0.729c0,0.242,0,0.482,0,0.723c0,0.242,0.001,0.482,0,0.723c0,0.239-0.002,0.478-0.004,0.737
		c-0.19,0-0.356,0-0.527,0c-0.008,0.124-0.015,0.222-0.021,0.327c-0.206,0-0.396,0-0.605,0c0-0.704,0-1.392,0-2.076
		c-0.067-0.019-0.112-0.033-0.176-0.051c0-0.565,0-1.128,0-1.697c-0.109-0.009-0.196-0.018-0.286-0.023
		c-0.008-0.128-0.016-0.239-0.025-0.364c-0.308-0.007-0.598-0.011-0.898,0.001c-0.008,0.132-0.015,0.245-0.022,0.361
		c-0.1,0.011-0.188,0.02-0.297,0.03c0,0.277,0,0.546,0,0.815c-0.196,0-0.367,0-0.526,0c-0.081-0.132,0.077-0.116,0.1-0.195
		c-0.102-0.013-0.133-0.07-0.128-0.162c0.005-0.09-0.006-0.181,0.002-0.272c0.008-0.07,0.034-0.139,0.055-0.226
		c-0.057-0.03-0.133-0.071-0.22-0.119c0-0.067-0.027-0.16,0.006-0.221c0.064-0.12-0.009-0.19-0.057-0.276
		c-0.017-0.031-0.041-0.059-0.047-0.092c-0.055-0.3-0.248-0.472-0.516-0.577c-0.043-0.017-0.088-0.033-0.144-0.056
		c0-0.095-0.004-0.184,0.002-0.273c0.004-0.072-0.013-0.141-0.073-0.172c-0.09-0.048-0.077-0.124-0.085-0.201
		c-0.006-0.084,0.029-0.175-0.028-0.286c-0.029,0.047-0.057,0.071-0.059,0.097c-0.005,0.077,0.003,0.156-0.002,0.234
		c-0.002,0.04-0.006,0.098-0.032,0.113c-0.117,0.075-0.109,0.188-0.107,0.303c0,0.065-0.006,0.132-0.008,0.193
		c-0.036,0.014-0.058,0.022-0.081,0.027c-0.3,0.104-0.514,0.286-0.575,0.613c-0.005,0.031-0.04,0.056-0.053,0.087
		c-0.026,0.069-0.087,0.163-0.063,0.203c0.063,0.104,0.026,0.195,0.03,0.283c-0.086,0.048-0.162,0.089-0.238,0.131
		c0.076,0.113,0.099,0.544,0.042,0.614c-0.048,0.013-0.097,0.025-0.161,0.041c0.053,0.065,0.178,0.078,0.087,0.202
		c-0.224,0-0.463,0-0.708,0c-0.013,0.101-0.025,0.184-0.037,0.267c-0.012,0-0.025,0-0.038,0c-0.02-0.063-0.037-0.126-0.061-0.198
		c-0.082,0.005-0.156,0.007-0.24,0.011c-0.009,0.495,0.004,0.97-0.008,1.456c-0.262,0.003-0.499,0.011-0.751-0.004
		c0-1.081,0-2.139,0-3.195c-0.056-0.025-0.098-0.044-0.14-0.064c-0.005-0.102-0.011-0.195-0.016-0.286
		c-0.074-0.016-0.13-0.027-0.194-0.041c-0.02-0.31-0.04-0.611-0.061-0.915c-0.006,0.002-0.014,0.002-0.021,0.002
		c-0.018,0.305-0.035,0.61-0.053,0.916c-0.077,0.015-0.139,0.028-0.204,0.04c-0.008,0.104-0.016,0.197-0.024,0.305
		c-0.138,0.008-0.267,0.016-0.408,0.025c0,0.21,0,0.403,0,0.594c0,0.201,0,0.399,0,0.597c0,0.192,0,0.387,0,0.579
		c0,0.199,0.002,0.399,0,0.597c0,0.189-0.003,0.38-0.006,0.592c-0.128-0.017-0.248,0.003-0.322-0.047
		c-0.247-0.162-0.512-0.263-0.798-0.323c-0.01-0.002-0.017-0.016-0.037-0.038c-0.059-0.478-0.12-0.972-0.18-1.466
		c-0.01,0.001-0.02,0.001-0.029,0.003C6.39,55.18,6.329,55.68,6.267,56.18c-0.068,0.014-0.113,0.022-0.16,0.032
		c-0.481,0.113-0.865,0.367-1.113,0.798c-0.096,0.166-0.187,0.284-0.394,0.251c-0.008-0.002-0.017,0.013-0.047,0.036
		c0,0.265,0,0.546,0,0.833c-0.118,0-0.217,0-0.339,0c0-0.196,0-0.379,0-0.568c-0.172-0.017-0.317-0.032-0.477,0.012
		c0,0.188,0,0.366,0,0.555c-0.071,0-0.126,0-0.203,0c0-0.439,0-0.864,0-1.298c-0.625,0-1.23,0-1.845,0
		c-0.007,0.105-0.015,0.199-0.024,0.313c-0.182,0-0.353,0-0.543,0c0,0.565,0,1.103,0,1.651C0.742,58.878,0.374,58.957,0,59.041
		v10.897C8.753,67.587,9.481,65.897,9.481,65.897z M13.46,56.13L13.46,56.13c0.002-0.05,0.044-0.087,0.096-0.087
		c0.053,0,0.095,0.037,0.097,0.087h0v0.216H13.46V56.13z M12.623,56.13L12.623,56.13c0.002-0.05,0.044-0.087,0.097-0.087
		c0.052,0,0.094,0.037,0.096,0.087l0,0v0.216h-0.193V56.13z M11.794,56.126L11.794,56.126c0.002-0.047,0.044-0.086,0.096-0.086
		c0.052,0,0.094,0.039,0.097,0.086l0,0v0.217h-0.193V56.126z M10.969,56.13L10.969,56.13c0.002-0.05,0.043-0.087,0.097-0.087
		c0.052,0,0.094,0.037,0.096,0.087l0,0v0.216h-0.193V56.13z M10.137,56.13h0.001c0.001-0.05,0.043-0.087,0.095-0.087
		c0.053,0,0.096,0.037,0.097,0.087h0v0.216h-0.194V56.13z"/>
	<g>
		<path fill-rule="evenodd" clip-rule="evenodd" fill="#C4C4C4" d="M43.904,55.171c-0.002-0.061-0.006-0.121-0.008-0.18
			c-0.011,0-0.021,0-0.033,0c-0.001,0.04-0.003,0.08-0.005,0.122C43.873,55.131,43.889,55.151,43.904,55.171z"/>
		<path fill-rule="evenodd" clip-rule="evenodd" fill="#C4C4C4" d="M47.397,58.155c0.596,0.298,1.224,0.503,1.868,0.544
			c0,0,2.264,0.388,3.604,3.543c0,0,0.063,0.089,0.181,0.156c0,0,4.023-0.143,5.546,1.913c0.046,0.097,0.068,0.158,0.068,0.158
			c0.732,1.638,1.951,2.23,1.951,2.23c3.217,0.284,6.084,2.306,7.028,3.035v-1.103v-1.76v-5.516v-0.034h-0.088
			c-0.021-0.009-0.044-0.02-0.08-0.036c0-0.232,0-0.46,0-0.711c-0.168,0-0.315,0-0.479,0c-0.007-0.233-0.014-0.446-0.02-0.658
			c-0.188,0-0.345,0-0.531,0c0,0.228,0,0.433,0,0.647c-0.139,0-0.251,0-0.373,0c-0.037-0.333,0.01-0.66-0.03-0.992
			c-0.307-0.007-0.594-0.014-0.89,0.004c-0.009,0.183-0.017,0.334-0.026,0.491c-0.119,0.012-0.217,0.021-0.328,0.034
			c-0.021,0.408,0.008,0.807-0.018,1.215c-0.099-0.003-0.169-0.005-0.252-0.01c-0.025-0.75,0.009-1.482-0.019-2.22
			c-0.169-0.01-0.308-0.014-0.442-0.023c-0.036-0.252-0.034-0.253,0.053-0.506c0.011-0.031,0.011-0.065,0.014-0.103
			c0.023-0.263,0.046-0.528,0.067-0.791c0-0.011-0.008-0.025-0.013-0.043c-0.043-0.02-0.089-0.041-0.141-0.063
			c0-0.179,0.01-0.35-0.003-0.518s0.024-0.294,0.194-0.356c0.036-0.013,0.064-0.045,0.114-0.082
			c-0.071-0.046-0.123-0.087-0.18-0.114c-0.089-0.048-0.131-0.107-0.127-0.211c0.007-0.186,0.006-0.367,0.001-0.551
			c-0.002-0.085,0.025-0.142,0.102-0.183c0.067-0.036,0.128-0.082,0.211-0.135c-0.122-0.083-0.209-0.166-0.312-0.204
			c-0.111-0.044-0.146-0.108-0.141-0.214c0.003-0.056,0.006-0.11,0-0.163c-0.011-0.109,0.032-0.179,0.131-0.23
			c0.105-0.054,0.204-0.122,0.307-0.188c-0.026-0.027-0.032-0.042-0.043-0.048c-0.133-0.081-0.269-0.159-0.402-0.243
			c-0.3-0.186-0.248-0.089-0.256-0.438c-0.001-0.067,0.002-0.169-0.035-0.189c-0.097-0.055-0.082-0.132-0.083-0.211
			c0-0.21,0-0.422,0-0.633c0-0.049-0.009-0.097-0.015-0.145c-0.036,0.067-0.043,0.132-0.043,0.199
			c-0.002,0.197,0.001,0.395-0.002,0.592c-0.001,0.054-0.001,0.136-0.032,0.152c-0.105,0.058-0.075,0.148-0.08,0.232
			c-0.003,0.067-0.004,0.135-0.001,0.202c0.004,0.077-0.027,0.128-0.096,0.165c-0.106,0.058-0.21,0.125-0.315,0.188
			c-0.083,0.05-0.167,0.102-0.277,0.168c0.125,0.073,0.222,0.124,0.309,0.186c0.044,0.033,0.098,0.087,0.102,0.137
			c0.013,0.146,0.005,0.295,0.005,0.406c-0.153,0.107-0.271,0.188-0.404,0.281c0.072,0.046,0.122,0.085,0.175,0.109
			c0.104,0.05,0.15,0.122,0.141,0.242c-0.009,0.143-0.011,0.285,0,0.428c0.012,0.154-0.022,0.266-0.177,0.324
			c-0.045,0.017-0.081,0.056-0.132,0.097c0.087,0.057,0.16,0.093,0.224,0.144c0.034,0.025,0.076,0.07,0.078,0.106
			c0.007,0.236,0.003,0.474,0.003,0.699c-0.065,0.026-0.106,0.045-0.158,0.066c0.012,0.133,0.024,0.263,0.035,0.39
			c0.013,0.129,0.015,0.258,0.035,0.387c0.018,0.117,0.054,0.23,0.084,0.356c-0.215,0-0.402,0-0.614,0c0-1.112,0-2.211,0-3.318
			c-0.172-0.011-0.317-0.02-0.464-0.027c-0.01-0.135-0.017-0.246-0.025-0.365c-0.208,0-0.396,0-0.595,0
			c-0.012,0.131-0.022,0.249-0.033,0.362c-0.112,0-0.205,0-0.3,0c-0.009-0.128-0.019-0.24-0.028-0.358c-0.211,0-0.405,0-0.607,0
			c-0.01,0.127-0.019,0.239-0.028,0.365c-0.149,0.009-0.289,0.015-0.45,0.021c0,0.288,0,0.561,0,0.829c0,0.281,0,0.559,0,0.838
			c0,0.273,0,0.546,0,0.817c-0.001,0.277-0.002,0.555-0.004,0.854c-0.359,0-0.689,0-1.023,0c-0.015,0.105-0.025,0.186-0.035,0.264
			c-0.016-0.003-0.03-0.003-0.046-0.004c0-0.434,0-0.866,0-1.322c-0.21,0-0.398,0-0.612,0c0-1.413,0-2.797,0-4.188
			c-0.172-0.011-0.318-0.021-0.473-0.031c0-0.128,0.001-0.23,0-0.33c-0.003-0.1-0.007-0.197-0.011-0.295c-0.703,0-1.38,0-2.082,0
			c0,0.215,0,0.416,0,0.628c-0.137,0.009-0.249,0.018-0.379,0.026c-0.005,0.079-0.011,0.154-0.011,0.227
			c-0.002,0.579,0,1.157-0.002,1.737c0,0.071-0.008,0.141-0.014,0.231c-0.294,0.002-0.57,0.006-0.851-0.002
			c-0.009-0.187-0.016-0.346-0.027-0.523c-0.225,0-0.427,0-0.645,0c-0.028-0.565,0.007-1.113-0.021-1.67
			c-0.161-0.009-0.3-0.02-0.461-0.026c0-0.225,0-0.424,0-0.62c-0.311-0.045-2.238-0.03-2.405,0.023c0,0.19,0,0.392,0,0.6
			c-0.163,0.009-0.301,0.016-0.459,0.024c0,1.404,0,2.782,0,4.189c-0.289,0-0.556,0-0.83,0c-0.013,0.12-0.022,0.21-0.033,0.315
			c-0.215,0-0.421,0-0.649,0c0-0.186,0-0.354,0-0.521c0-0.164,0.003-0.327-0.001-0.49c-0.006-0.167,0.025-0.338-0.021-0.501
			c-0.087-0.012-0.16-0.021-0.244-0.029c-0.009-0.135-0.018-0.261-0.026-0.392c-0.15,0-0.282,0-0.425,0
			c-0.009,0.136-0.018,0.261-0.027,0.394c-0.113,0.01-0.213,0.018-0.341,0.029c0,0.506,0,1.006,0,1.508
			c-0.107,0.013-0.186,0.022-0.267,0.033C47.407,58.092,47.402,58.122,47.397,58.155z M63.832,56.069
			c0.027,0.02,0.054,0.041,0.098,0.073c-0.043,0.037-0.068,0.068-0.096,0.075c-0.016,0.003-0.06-0.042-0.058-0.061
			C63.781,56.126,63.813,56.099,63.832,56.069z M63.926,57.164c-0.039,0.031-0.065,0.054-0.09,0.074
			c-0.021-0.026-0.06-0.055-0.059-0.082c0.001-0.028,0.041-0.054,0.063-0.082C63.865,57.1,63.89,57.126,63.926,57.164z
			 M63.854,58.627c0.01-0.004,0.037,0.04,0.067,0.077c-0.038,0.021-0.066,0.05-0.086,0.046c-0.023-0.005-0.04-0.039-0.06-0.061
			C63.801,58.667,63.825,58.64,63.854,58.627z M63.525,60.311c-0.025-0.062-0.049-0.094-0.048-0.125
			c0.001-0.022,0.036-0.042,0.056-0.064c0.023,0.026,0.061,0.052,0.063,0.08C63.598,60.226,63.562,60.257,63.525,60.311z
			 M63.536,59.771c-0.021-0.026-0.059-0.053-0.058-0.08c0-0.029,0.038-0.056,0.059-0.084c0.024,0.024,0.049,0.05,0.088,0.084
			C63.587,59.724,63.562,59.748,63.536,59.771z M63.478,59.181c0.005-0.027,0.042-0.051,0.065-0.076
			c0.019,0.03,0.054,0.059,0.055,0.088c0,0.026-0.033,0.056-0.071,0.111C63.5,59.242,63.474,59.209,63.478,59.181z M63.541,56.065
			c0.026,0.025,0.05,0.051,0.088,0.091c-0.039,0.028-0.063,0.046-0.088,0.063c-0.02-0.028-0.051-0.054-0.056-0.087
			C63.482,56.114,63.521,56.09,63.541,56.065z M63.534,57.072c0.024,0.027,0.061,0.053,0.066,0.084
			c0.003,0.027-0.027,0.061-0.059,0.12c-0.033-0.058-0.065-0.089-0.063-0.115C63.479,57.131,63.514,57.1,63.534,57.072z
			 M63.527,58.625c0.029,0.008,0.05,0.047,0.075,0.068c-0.021,0.021-0.042,0.053-0.064,0.058c-0.021,0.003-0.046-0.03-0.126-0.085
			C63.468,58.645,63.501,58.618,63.527,58.625z M63.188,56.065c0.028,0.022,0.057,0.041,0.103,0.074
			c-0.042,0.036-0.066,0.069-0.095,0.078c-0.015,0.005-0.061-0.041-0.059-0.058C63.14,56.126,63.169,56.098,63.188,56.065z
			 M63.287,57.152c-0.037,0.036-0.06,0.062-0.084,0.089c-0.024-0.027-0.065-0.053-0.067-0.077c0-0.029,0.036-0.06,0.056-0.09
			C63.219,57.098,63.247,57.119,63.287,57.152z M63.204,58.624c0.01-0.006,0.043,0.035,0.077,0.065
			c-0.034,0.027-0.057,0.062-0.081,0.062c-0.022-0.001-0.044-0.034-0.065-0.053C63.157,58.673,63.176,58.64,63.204,58.624z"/>
		<path fill-rule="evenodd" clip-rule="evenodd" fill="#C4C4C4" d="M47.332,58.119c-0.02-1.129-0.038-2.259-0.056-3.372
			c0.194-0.125,0.404-0.401,0.363-0.467c-0.042-0.013-0.084-0.026-0.145-0.045c0.066-0.097-0.035-0.15-0.04-0.224
			c-0.009-0.111-0.05-0.21-0.087-0.308c-0.124-0.325-0.246-0.911-0.263-1.173c-0.016-0.229-0.031-0.459-0.046-0.688
			c-0.089,0.397-0.011,0.812-0.167,1.198c0.015,0.224-0.082,0.421-0.152,0.624c-0.042,0.114-0.092,0.224-0.1,0.352
			c-0.004,0.068-0.125,0.116-0.031,0.207c-0.055,0.029-0.097,0.05-0.146,0.075c0.056,0.195,0.21,0.305,0.345,0.443
			c0.023,0.793-0.007,1.594-0.037,2.416c-0.167,0-0.313,0-0.463,0c-0.017,0.085-0.03,0.149-0.045,0.233c-0.026,0-0.053,0-0.079,0
			C46.545,57.663,46.93,57.912,47.332,58.119z"/>
		<path fill-rule="evenodd" clip-rule="evenodd" fill="#C4C4C4" d="M44.493,55.843c-0.007-0.158-0.007-0.316-0.072-0.467
			c-0.007,0.121-0.017,0.241-0.024,0.363C44.428,55.771,44.459,55.808,44.493,55.843z"/>
	</g>
</g>
</svg>
