<svg width="38" height="38" viewBox="0 0 38 38" fill="none" xmlns="http://www.w3.org/2000/svg">
<rect width="38" height="38" rx="6" fill="#333333"/>
<path d="M13.4688 12.0312C13.8657 12.0312 14.1875 11.7095 14.1875 11.3125C14.1875 10.9155 13.8657 10.5938 13.4688 10.5938C13.0718 10.5938 12.75 10.9155 12.75 11.3125C12.75 11.7095 13.0718 12.0312 13.4688 12.0312Z" fill="#888888"/>
<path d="M25.6875 14.1875H11.3125C10.9314 14.1871 10.566 14.0355 10.2965 13.766C10.027 13.4965 9.87538 13.1311 9.875 12.75V9.875C9.87538 9.49387 10.027 9.12846 10.2965 8.85895C10.566 8.58945 10.9314 8.43788 11.3125 8.4375H25.6875C26.0686 8.43788 26.434 8.58945 26.7035 8.85895C26.973 9.12846 27.1246 9.49387 27.125 9.875V12.75C27.1246 13.1311 26.973 13.4965 26.7035 13.766C26.434 14.0355 26.0686 14.1871 25.6875 14.1875V14.1875ZM11.3125 9.875V12.75H25.6875V9.875H11.3125Z" fill="#888888"/>
<path d="M13.4688 19.2188C13.8657 19.2188 14.1875 18.897 14.1875 18.5C14.1875 18.103 13.8657 17.7812 13.4688 17.7812C13.0718 17.7812 12.75 18.103 12.75 18.5C12.75 18.897 13.0718 19.2188 13.4688 19.2188Z" fill="#888888"/>
<path d="M25.6875 21.375H11.3125C10.9314 21.3746 10.566 21.223 10.2965 20.9535C10.027 20.684 9.87538 20.3186 9.875 19.9375V17.0625C9.87538 16.6814 10.027 16.316 10.2965 16.0465C10.566 15.777 10.9314 15.6254 11.3125 15.625H25.6875C26.0686 15.6254 26.434 15.777 26.7035 16.0465C26.973 16.316 27.1246 16.6814 27.125 17.0625V19.9375C27.1246 20.3186 26.973 20.684 26.7035 20.9535C26.434 21.223 26.0686 21.3746 25.6875 21.375ZM11.3125 17.0625V19.9375H25.6875V17.0625H11.3125Z" fill="#888888"/>
<path d="M13.4688 26.4062C13.8657 26.4062 14.1875 26.0845 14.1875 25.6875C14.1875 25.2905 13.8657 24.9688 13.4688 24.9688C13.0718 24.9688 12.75 25.2905 12.75 25.6875C12.75 26.0845 13.0718 26.4062 13.4688 26.4062Z" fill="#888888"/>
<path d="M25.6875 28.5625H11.3125C10.9314 28.5621 10.566 28.4105 10.2965 28.141C10.027 27.8715 9.87538 27.5061 9.875 27.125V24.25C9.87538 23.8689 10.027 23.5035 10.2965 23.234C10.566 22.9645 10.9314 22.8129 11.3125 22.8125H25.6875C26.0686 22.8129 26.434 22.9645 26.7035 23.234C26.973 23.5035 27.1246 23.8689 27.125 24.25V27.125C27.1246 27.5061 26.973 27.8715 26.7035 28.141C26.434 28.4105 26.0686 28.5621 25.6875 28.5625ZM11.3125 24.25V27.125H25.6875V24.25H11.3125Z" fill="#888888"/>
</svg>
