<svg width="25" height="24" viewBox="0 0 25 24" fill="none" xmlns="http://www.w3.org/2000/svg">
<path fill-rule="evenodd" clip-rule="evenodd" d="M8.18337 0H17.0822C21.1772 0 24.498 3.22257 24.498 7.19644V15.8322C24.498 19.806 21.1772 23.0286 17.0822 23.0286H8.18337C4.0884 23.0286 0.767639 19.806 0.767639 15.8322V7.19644C0.767639 3.22257 4.0884 0 8.18337 0ZM17.0822 20.8697C19.9447 20.8697 22.2733 18.61 22.2733 15.8322V7.19645C22.2733 4.41863 19.9447 2.15895 17.0822 2.15895H8.18337C5.3209 2.15895 2.99236 4.41863 2.99236 7.19645V15.8322C2.99236 18.61 5.3209 20.8697 8.18337 20.8697H17.0822Z" fill="white"/>
<path fill-rule="evenodd" clip-rule="evenodd" d="M6.7002 11.5142C6.7002 8.33485 9.35651 5.75708 12.6328 5.75708C15.909 5.75708 18.5654 8.33485 18.5654 11.5142C18.5654 14.6936 15.909 17.2714 12.6328 17.2714C9.35651 17.2714 6.7002 14.6936 6.7002 11.5142ZM8.92491 11.5143C8.92491 13.4976 10.589 15.1125 12.6328 15.1125C14.6766 15.1125 16.3406 13.4976 16.3406 11.5143C16.3406 9.52948 14.6766 7.91604 12.6328 7.91604C10.589 7.91604 8.92491 9.52948 8.92491 11.5143Z" fill="white"/>
<ellipse cx="19.0104" cy="5.32538" rx="0.790517" ry="0.767278" fill="white"/>
</svg>
