<svg width="298" height="67" viewBox="0 0 298 67" fill="none" xmlns="http://www.w3.org/2000/svg">
<path d="M13.0635 53.66C22.1385 53.66 26.9235 48.985 26.9235 39.47V14.5H4.53847V21.65H18.0685V39.965C18.0685 44.2 16.1985 46.345 12.6235 46.345C9.87347 46.345 7.56347 44.915 5.47347 42.11L0.523473 48.05C3.32847 51.68 7.89347 53.66 13.0635 53.66ZM64.2693 38.315C64.2693 28.8 57.5593 22.97 48.8693 22.97C39.8493 22.97 33.0843 29.35 33.0843 38.205C33.0843 47.005 39.7393 53.44 49.9693 53.44C55.3043 53.44 59.4293 51.79 62.1793 48.655L57.6143 43.705C55.5793 45.63 53.3243 46.565 50.1893 46.565C45.6793 46.565 42.5443 44.31 41.7193 40.625H64.1043C64.1593 39.91 64.2693 38.975 64.2693 38.315ZM48.9243 29.46C52.7743 29.46 55.5793 31.88 56.1843 35.62H41.6093C42.2143 31.825 45.0193 29.46 48.9243 29.46ZM87.6366 22.97C83.9516 22.97 80.9266 24.125 78.7266 26.545V12.19H70.1466V53H78.3416V49.59C80.4866 52.175 83.6766 53.44 87.6366 53.44C95.9416 53.44 102.377 47.5 102.377 38.205C102.377 28.91 95.9416 22.97 87.6366 22.97ZM86.1516 46.4C81.8616 46.4 78.6166 43.32 78.6166 38.205C78.6166 33.09 81.8616 30.01 86.1516 30.01C90.4416 30.01 93.6866 33.09 93.6866 38.205C93.6866 43.32 90.4416 46.4 86.1516 46.4ZM137.27 38.315C137.27 28.8 130.56 22.97 121.87 22.97C112.85 22.97 106.085 29.35 106.085 38.205C106.085 47.005 112.74 53.44 122.97 53.44C128.305 53.44 132.43 51.79 135.18 48.655L130.615 43.705C128.58 45.63 126.325 46.565 123.19 46.565C118.68 46.565 115.545 44.31 114.72 40.625H137.105C137.16 39.91 137.27 38.975 137.27 38.315ZM121.925 29.46C125.775 29.46 128.58 31.88 129.185 35.62H114.61C115.215 31.825 118.02 29.46 121.925 29.46ZM160.418 14.5H143.753V53H152.663V42.385H160.418C170.703 42.385 177.138 37.05 177.138 28.47C177.138 19.835 170.703 14.5 160.418 14.5ZM159.923 35.125H152.663V21.76H159.923C165.368 21.76 168.118 24.235 168.118 28.47C168.118 32.65 165.368 35.125 159.923 35.125ZM204.826 23.41V38.04C204.826 43.485 201.966 46.015 198.006 46.015C194.211 46.015 192.011 43.815 192.011 38.865V23.41H183.431V40.13C183.431 49.26 188.656 53.44 196.081 53.44C199.711 53.44 203.011 52.065 205.266 49.48V53H213.406V23.41H204.826ZM221.519 53H230.099V12.19H221.519V53ZM248.182 53.44C257.037 53.44 262.152 49.535 262.152 44.035C262.152 32.375 244.277 37.27 244.277 32.21C244.277 30.67 245.927 29.46 249.777 29.46C252.472 29.46 255.387 30.01 258.302 31.66L261.162 25.555C258.357 23.905 253.847 22.97 249.777 22.97C241.142 22.97 236.082 26.93 236.082 32.54C236.082 44.365 253.957 39.415 253.957 44.255C253.957 45.905 252.472 46.95 248.512 46.95C244.882 46.95 240.867 45.795 238.227 44.09L235.367 50.25C238.117 52.065 243.177 53.44 248.182 53.44ZM279.546 22.97C274.816 22.97 270.031 24.235 266.786 26.545L269.866 32.54C272.011 30.835 275.256 29.79 278.391 29.79C283.011 29.79 285.211 31.935 285.211 35.62H278.391C269.371 35.62 265.686 39.25 265.686 44.475C265.686 49.59 269.811 53.44 276.741 53.44C281.086 53.44 284.166 52.01 285.761 49.315V53H293.791V36.115C293.791 27.15 288.566 22.97 279.546 22.97ZM278.886 47.665C275.861 47.665 274.046 46.235 274.046 44.09C274.046 42.11 275.311 40.625 279.326 40.625H285.211V43.65C284.221 46.345 281.746 47.665 278.886 47.665Z" fill="#999999"/>
</svg>
