<?xml version="1.0" encoding="utf-8"?>
<!-- Generator: Adobe Illustrator 16.0.0, SVG Export Plug-In . SVG Version: 6.00 Build 0)  -->
<!DOCTYPE svg PUBLIC "-//W3C//DTD SVG 1.1//EN" "http://www.w3.org/Graphics/SVG/1.1/DTD/svg11.dtd">
<svg version="1.1" id="Layer_1" xmlns="http://www.w3.org/2000/svg" xmlns:xlink="http://www.w3.org/1999/xlink" x="0px" y="0px"
	 width="300px" height="42px" viewBox="0 0 300 42" enable-background="new 0 0 300 42" xml:space="preserve">
<g>
	<path fill="#999999" d="M-0.099,25.921h1.731c2.25,0,3.418-1.341,3.418-3.678V1.558h6.448v20.771c0,5.713-3.202,9.304-9.347,9.304
		h-2.25V25.921z"/>
	<path fill="#999999" d="M14.958,20.252c0-6.837,5.106-11.944,12.333-11.944c7.184,0,12.333,5.106,12.333,11.944
		c0,6.794-5.149,11.943-12.333,11.943C20.064,32.196,14.958,27.046,14.958,20.252z M33.219,20.208c0-3.635-2.337-6.188-5.885-6.188
		s-5.928,2.553-5.928,6.232c0,3.635,2.38,6.231,5.928,6.231C30.795,26.483,33.219,23.887,33.219,20.208z"/>
	<path fill="#999999" d="M64.977,17.266v14.367h-6.361V18.521c0-2.9-1.904-4.543-4.501-4.543c-2.552,0-4.543,1.817-4.586,4.154
		v13.501h-6.405V0h6.405v10.602c1.558-1.385,3.808-2.336,6.534-2.336C61.515,8.266,64.977,11.943,64.977,17.266z"/>
	<path fill="#999999" d="M92.58,8.828v22.805h-5.928v-2.51c-1.645,1.947-4.025,3.072-7.011,3.072
		c-6.577,0-11.337-5.149-11.337-11.943c0-6.837,4.76-11.554,11.337-11.554c2.986,0,5.366,1.039,7.011,2.899V8.828H92.58z
		 M86.435,20.252c0-3.722-2.38-6.318-5.885-6.318c-3.419,0-5.885,2.683-5.885,6.318c0,3.635,2.466,6.274,5.885,6.274
		C84.055,26.527,86.435,23.974,86.435,20.252z"/>
	<path fill="#999999" d="M119.016,17.266v14.367h-6.361V18.521c0-2.9-1.904-4.543-4.5-4.543c-2.553,0-4.543,1.817-4.587,4.154
		v13.501h-6.404V8.828h6.059v2.121c1.558-1.602,3.938-2.683,6.88-2.683C115.554,8.266,119.016,11.943,119.016,17.266z"/>
	<path fill="#999999" d="M146.576,11.035c0,5.712-4.111,9.477-10.515,9.477h-5.842v11.122h-6.448V1.558h12.29
		C142.509,1.558,146.576,5.279,146.576,11.035z M140.042,11.035c0-2.25-1.471-3.852-4.327-3.852h-5.496v7.703h5.496
		C138.571,14.887,140.042,13.285,140.042,11.035z"/>
	<path fill="#999999" d="M162.236,8.266v6.015c-3.895,0-6.188,1.774-6.188,4.804v12.549h-6.405V8.828h6.057v2.207
		C157.26,9.39,159.554,8.266,162.236,8.266z"/>
	<path fill="#999999" d="M163.359,20.252c0-6.837,5.105-11.944,12.333-11.944c7.183,0,12.333,5.106,12.333,11.944
		c0,6.794-5.15,11.943-12.333,11.943C168.465,32.196,163.359,27.046,163.359,20.252z M181.621,20.208
		c0-3.635-2.337-6.188-5.885-6.188c-3.549,0-5.93,2.553-5.93,6.232c0,3.635,2.381,6.231,5.93,6.231
		C179.197,26.483,181.621,23.887,181.621,20.208z"/>
	<path fill="#999999" d="M215.801,20.252c0,6.794-4.76,11.943-11.337,11.943c-2.683,0-4.89-0.866-6.534-2.467v9.65h-6.404V8.828
		h5.928v2.51c1.731-1.948,4.197-3.029,7.184-3.029C211.214,8.309,215.801,13.415,215.801,20.252z M209.44,20.252
		c0-3.635-2.467-6.318-5.842-6.318c-3.548,0-5.928,2.596-5.928,6.318c0,3.721,2.38,6.274,5.928,6.274
		C206.974,26.527,209.44,23.887,209.44,20.252z"/>
	<path fill="#999999" d="M230.554,26.874c2.813,0,4.24-0.996,5.235-2.813l4.89,3.246c-1.773,2.596-4.717,4.89-10.299,4.89
		c-7.399,0-12.202-5.149-12.202-11.943c0-6.621,5.234-11.944,11.77-11.944c7.356,0,11.728,5.755,11.728,11.467
		c0,0.996-0.043,1.861-0.13,2.424h-17.093C225.188,25.186,227.523,26.874,230.554,26.874z M235.659,18.002
		c-0.605-2.986-2.597-4.847-5.539-4.847s-5.105,1.731-5.755,4.847H235.659z"/>
	<path fill="#999999" d="M257.639,8.266v6.015c-3.896,0-6.188,1.774-6.188,4.804v12.549h-6.405V8.828h6.06v2.207
		C252.662,9.39,254.956,8.266,257.639,8.266z"/>
	<path fill="#999999" d="M262.655,23.108V14.28h-3.896V8.828h1.948c1.557,0,2.337-0.823,2.337-2.467V2.813h6.23v6.015h5.539v5.452
		h-5.755v8.049c0,2.423,1.254,3.722,3.505,3.722h2.423v5.583h-3.764C265.554,31.633,262.655,28.258,262.655,23.108z"/>
	<path fill="#999999" d="M300.083,8.828l-8.396,22.805l-2.812,7.746h-6.319l3.074-7.746h-2.122l-7.614-22.805h6.619l5.15,17.699
		l5.798-17.699H300.083z"/>
</g>
</svg>
