<svg width="197" height="58" viewBox="0 0 197 58" fill="none" xmlns="http://www.w3.org/2000/svg">
<path d="M38.3691 9.34473C38.0029 9.85742 37.6489 10.4556 37.3071 11.1392C36.9897 11.7983 36.6968 12.5674 36.4282 13.4463C36.1597 14.3252 35.9399 15.3384 35.769 16.4858C35.5981 17.6089 35.4883 18.8784 35.4395 20.2944C35.3906 21.6128 35.3418 22.9312 35.293 24.2495C35.2686 25.5679 35.2197 26.8862 35.1465 28.2046C35.2686 28.1802 35.4639 28.168 35.7324 28.168C36.9775 28.168 38.3813 28.3633 39.9438 28.7539C41.5063 29.1201 43.1177 29.6816 44.7778 30.4385C47.0239 29.8525 49.0015 29.0835 50.7104 28.1313C52.4438 27.1792 53.9697 26.1172 55.2881 24.9453C56.6309 23.749 57.8149 22.4795 58.8403 21.1367C59.8901 19.7695 60.8545 18.4023 61.7334 17.0352C62.6123 15.668 63.4424 14.3252 64.2236 13.0068C65.0049 11.6641 65.8228 10.4312 66.6772 9.30811C67.5562 8.13623 68.5571 7.02539 69.6802 5.97559C70.8276 4.92578 71.9995 4.02246 73.1958 3.26562C74.4165 2.48438 75.6372 1.87402 76.8579 1.43457C78.0786 0.970703 79.2261 0.73877 80.3003 0.73877C80.6665 0.73877 80.9961 0.86084 81.2891 1.10498C81.6064 1.32471 81.7651 1.64209 81.7651 2.05713C81.7651 2.44775 81.6309 2.77734 81.3623 3.0459C81.1182 3.31445 80.8008 3.46094 80.4102 3.48535C79.6777 3.50977 78.811 3.70508 77.8101 4.07129C76.8335 4.4375 75.8203 4.9502 74.7705 5.60938C73.7207 6.26855 72.6831 7.0498 71.6577 7.95312C70.6323 8.85645 69.7046 9.86963 68.8745 10.9927C67.9224 12.2866 67.0312 13.605 66.2012 14.9478C65.3955 16.2905 64.5654 17.6211 63.7109 18.9395C62.8809 20.2334 61.9897 21.5151 61.0376 22.7847C60.0854 24.0298 58.999 25.2261 57.7783 26.3735C56.5576 27.4966 55.1538 28.5586 53.5669 29.5596C52.0044 30.5605 50.1855 31.4639 48.1104 32.2695C49.8438 33.3682 51.5161 34.7476 53.1274 36.4077C54.7388 38.0435 56.4844 39.8745 58.3643 41.9009C59.9268 43.5854 61.3916 45.1724 62.7588 46.6616C64.1504 48.1509 65.4932 49.457 66.7871 50.5801C68.1055 51.6787 69.375 52.5454 70.5957 53.1802C71.8408 53.8149 73.0981 54.1323 74.3677 54.1323C75.9302 54.1323 77.4316 53.7295 78.8721 52.9238C80.3125 52.0938 81.5332 50.8975 82.5342 49.335C82.8027 48.9199 83.1934 48.7124 83.7061 48.7124C84.1211 48.7124 84.4507 48.8589 84.6948 49.1519C84.9634 49.4448 85.0977 49.7622 85.0977 50.104C85.0977 50.3726 85.0244 50.6167 84.8779 50.8364C83.6328 52.814 82.0825 54.3276 80.2271 55.3774C78.3716 56.4028 76.4307 56.9155 74.4043 56.9155C72.8418 56.9155 71.3403 56.5859 69.8999 55.9268C68.4595 55.2432 67.019 54.3154 65.5786 53.1436C64.1382 51.9473 62.6611 50.5557 61.1475 48.9688C59.6338 47.3574 58.0225 45.624 56.3135 43.7686C55.1904 42.5723 54.1284 41.4492 53.1274 40.3994C52.1509 39.3496 51.1865 38.3975 50.2344 37.543C49.3066 36.6641 48.3667 35.8828 47.4146 35.1992C46.4624 34.4912 45.4736 33.8809 44.4482 33.3682C43.1299 33.6855 41.8604 33.9053 40.6396 34.0273C39.4189 34.1494 38.2959 34.2104 37.2705 34.2104C36.7822 34.2104 36.3306 34.1982 35.9155 34.1738C35.5005 34.1494 35.1221 34.1006 34.7803 34.0273C34.585 36.1758 34.292 38.251 33.9014 40.2529C33.5352 42.2305 33.0347 44.0981 32.3999 45.856C31.7651 47.5894 30.9595 49.1763 29.9829 50.6167C29.0308 52.0571 27.8589 53.29 26.4673 54.3154C25.1001 55.3408 23.4766 56.1343 21.5967 56.6958C19.7412 57.2817 17.5928 57.5747 15.1514 57.5747C13.7598 57.5747 12.3804 57.4526 11.0132 57.2085C9.67041 56.9888 8.36426 56.647 7.09473 56.1831C5.84961 55.7437 4.65332 55.2065 3.50586 54.5718C2.38281 53.9126 1.36963 53.168 0.466309 52.3379C0.17334 52.0938 0.0268555 51.752 0.0268555 51.3125C0.0268555 50.9463 0.161133 50.6289 0.429688 50.3604C0.698242 50.0674 1.01562 49.9209 1.38184 49.9209C1.77246 49.9209 2.08984 50.043 2.33398 50.2871C3.9209 51.7275 5.8374 52.8506 8.0835 53.6562C10.3296 54.4375 12.6855 54.8281 15.1514 54.8281C18.252 54.8281 20.8276 54.3032 22.8784 53.2534C24.9536 52.2036 26.626 50.7266 27.8955 48.8223C29.165 46.8936 30.1172 44.5986 30.752 41.9375C31.3867 39.252 31.8384 36.2734 32.1069 33.002C31.814 32.7334 31.5942 32.4526 31.4478 32.1597C31.3257 31.8423 31.2646 31.5127 31.2646 31.1709C31.2646 30.3408 31.6431 29.6572 32.3999 29.1201C32.4731 27.6797 32.522 26.2148 32.5464 24.7256C32.5952 23.2119 32.644 21.6616 32.6929 20.0747C32.7417 17.5601 33.0103 15.4482 33.4985 13.7393C33.9868 12.0303 34.5239 10.5898 35.1099 9.41797C33.8892 9.4668 32.6074 9.43018 31.2646 9.30811C29.9219 9.16162 28.5547 9.00293 27.1631 8.83203C25.7715 8.66113 24.3799 8.50244 22.9883 8.35596C21.5967 8.18506 20.2417 8.09961 18.9233 8.09961C17.2388 8.09961 15.6519 8.34375 14.1626 8.83203C12.6733 9.32031 11.3672 10.0161 10.2441 10.9194C9.14551 11.7983 8.27881 12.8604 7.64404 14.1055C7.00928 15.3506 6.69189 16.7178 6.69189 18.207C6.69189 19.501 6.96045 20.563 7.49756 21.3931C8.05908 22.2231 8.68164 22.8945 9.36523 23.4072C10.0488 23.8955 10.6714 24.2373 11.2329 24.4326C11.8188 24.6279 12.1484 24.7378 12.2217 24.7622C12.5391 24.8354 12.7954 25.0063 12.9907 25.2749C13.186 25.519 13.2837 25.7998 13.2837 26.1172C13.2837 26.5322 13.1372 26.8618 12.8442 27.106C12.5513 27.3501 12.2339 27.4722 11.8921 27.4722C11.7456 27.4722 11.6357 27.46 11.5625 27.4355C10.8789 27.2891 10.0977 26.9961 9.21875 26.5566C8.33984 26.1172 7.50977 25.5312 6.72852 24.7988C5.94727 24.042 5.28809 23.1265 4.75098 22.0522C4.21387 20.9536 3.94531 19.6719 3.94531 18.207C3.94531 16.3027 4.33594 14.5693 5.11719 13.0068C5.89844 11.4199 6.96045 10.0649 8.30322 8.94189C9.67041 7.79443 11.2573 6.91553 13.064 6.30518C14.895 5.67041 16.8359 5.35303 18.8867 5.35303C20.4736 5.35303 22.085 5.43848 23.7207 5.60938C25.3564 5.78027 26.9556 5.96338 28.5181 6.15869C30.0806 6.32959 31.5698 6.48828 32.9858 6.63477C34.4263 6.75684 35.7446 6.76904 36.9409 6.67139C37.4048 6.08545 37.9663 5.51172 38.6255 4.9502C39.2847 4.38867 39.9805 3.90039 40.7129 3.48535C41.4697 3.0459 42.2266 2.69189 42.9834 2.42334C43.7646 2.15479 44.5215 2.02051 45.2539 2.02051C46.0352 2.02051 46.7065 2.26465 47.2681 2.75293C47.8296 3.2168 48.1104 3.81494 48.1104 4.54736C48.1104 5.1333 47.8418 5.69482 47.3047 6.23193C46.792 6.76904 46.084 7.25732 45.1807 7.69678C44.3018 8.13623 43.2642 8.50244 42.0679 8.79541C40.896 9.08838 39.6631 9.27148 38.3691 9.34473ZM40.6396 31.4639C40.4199 31.3906 40.127 31.3174 39.7607 31.2441C39.3945 31.1465 38.9917 31.061 38.5522 30.9878C38.1128 30.9146 37.6489 30.8535 37.1606 30.8047C36.6724 30.7559 36.1963 30.7314 35.7324 30.7314C35.6104 30.7314 35.4883 30.7437 35.3662 30.7681C35.2686 30.7681 35.1587 30.7803 35.0366 30.8047C35.0122 30.9268 35 31.061 35 31.2075C35 31.3296 34.9878 31.4517 34.9634 31.5737C35.3296 31.6714 35.9888 31.7202 36.9409 31.7202C37.0874 31.7202 37.3193 31.7202 37.6367 31.7202C37.9541 31.7202 38.2959 31.708 38.6621 31.6836C39.0527 31.6592 39.4189 31.6348 39.7607 31.6104C40.127 31.5859 40.4199 31.5371 40.6396 31.4639ZM45.3638 4.25439C45.1196 4.25439 44.79 4.31543 44.375 4.4375C43.9844 4.55957 43.5571 4.73047 43.0933 4.9502C42.6538 5.16992 42.2021 5.41406 41.7383 5.68262C41.2744 5.95117 40.8594 6.23193 40.4932 6.5249C41.1279 6.47607 41.7749 6.32959 42.4341 6.08545C43.1177 5.84131 43.7158 5.58496 44.2285 5.31641C44.7412 5.04785 45.1074 4.80371 45.3271 4.58398C45.5713 4.36426 45.5835 4.25439 45.3638 4.25439ZM89.8637 40.9487C89.766 41.6079 89.6439 42.2305 89.4975 42.8164C89.351 43.3779 89.2045 43.8784 89.058 44.3179C88.9359 44.7329 88.8261 45.0747 88.7284 45.3433C88.6308 45.6118 88.5697 45.7583 88.5453 45.7827C88.3012 46.3442 87.8739 46.625 87.2636 46.625C86.9218 46.625 86.6044 46.5029 86.3114 46.2588C86.0185 45.9902 85.872 45.6606 85.872 45.27C85.872 45.1235 85.8964 45.0137 85.9452 44.9404C85.994 44.8672 86.0673 44.7207 86.1649 44.501C86.2626 44.2812 86.3847 43.915 86.5312 43.4023C86.6776 42.8896 86.8607 42.0962 87.0805 41.022C86.6654 41.022 86.2382 41.0098 85.7987 40.9854C85.3593 40.9609 84.9564 40.8755 84.5902 40.729C84.1996 40.5825 83.8822 40.3506 83.6381 40.0332C83.3939 39.7158 83.2719 39.2764 83.2719 38.7148C83.2719 38.2998 83.3939 37.7383 83.6381 37.0303C83.8578 36.3223 84.163 35.6265 84.5536 34.9429C84.9442 34.2593 85.3837 33.6733 85.872 33.1851C86.3603 32.6724 86.8485 32.416 87.3368 32.416C87.8983 32.416 88.35 32.6235 88.6918 33.0386C89.058 33.4536 89.3388 33.9663 89.5341 34.5767C89.7294 35.1626 89.8637 35.7852 89.9369 36.4443C90.0346 37.1035 90.0834 37.6772 90.0834 38.1655C90.4984 38.1655 90.9013 38.1655 91.2919 38.1655C91.7069 38.1411 92.0976 38.1289 92.4638 38.1289C93.8554 38.1289 94.9174 38.4341 95.6498 39.0444C96.3822 39.6548 96.7484 40.6558 96.7484 42.0474C96.7484 42.6089 96.7118 43.1948 96.6386 43.8052C96.5653 44.4155 96.4799 45.0503 96.3822 45.7095C96.2846 46.3442 96.1991 46.979 96.1259 47.6138C96.0526 48.2485 96.016 48.8711 96.016 49.4814C96.016 50.3604 96.1381 51.0928 96.3822 51.6787C96.6264 52.2402 96.9315 52.6919 97.2978 53.0337C97.664 53.3755 98.0546 53.6196 98.4696 53.7661C98.8847 53.8882 99.2631 53.9492 99.6049 53.9492C100.655 53.9492 101.643 53.6074 102.571 52.9238C103.499 52.2402 104.353 51.4224 105.135 50.4702C105.916 49.4937 106.612 48.4683 107.222 47.394C107.857 46.3198 108.382 45.3799 108.797 44.5742C108.919 44.3545 109.09 44.1836 109.309 44.0615C109.529 43.9395 109.761 43.8784 110.005 43.8784C110.445 43.8784 110.787 44.0249 111.031 44.3179C111.275 44.5864 111.397 44.8916 111.397 45.2334C111.397 45.4775 111.348 45.6973 111.25 45.8926C110.689 46.8936 110.03 48.0288 109.273 49.2983C108.54 50.5435 107.698 51.7153 106.746 52.814C105.794 53.9126 104.72 54.8403 103.523 55.5972C102.351 56.354 101.058 56.7324 99.6415 56.7324C98.7626 56.7324 97.9325 56.5615 97.1513 56.2197C96.37 55.9023 95.6864 55.4385 95.1005 54.8281C94.539 54.1934 94.0873 53.4243 93.7455 52.521C93.4037 51.5933 93.2328 50.5557 93.2328 49.4082C93.2328 48.1875 93.3549 46.979 93.599 45.7827C93.8432 44.562 93.9652 43.4023 93.9652 42.3037C93.9652 41.8398 93.8554 41.498 93.6356 41.2783C93.4403 41.0342 92.9887 40.9121 92.2807 40.9121C91.9389 40.9121 91.5604 40.9121 91.1454 40.9121C90.7548 40.9121 90.3275 40.9243 89.8637 40.9487ZM87.4101 38.2388C87.4101 38.0679 87.3979 37.8481 87.3734 37.5796C87.3734 37.2866 87.349 37.0059 87.3002 36.7373C87.2758 36.4688 87.227 36.2368 87.1537 36.0415C87.1049 35.8462 87.0438 35.7485 86.9706 35.7485C86.8974 35.7485 86.7997 35.8462 86.6776 36.0415C86.58 36.2124 86.4701 36.4321 86.348 36.7007C86.226 36.9448 86.1161 37.2134 86.0185 37.5063C85.9208 37.7993 85.8476 38.0435 85.7987 38.2388H87.4101ZM114.991 27.2524C114.991 28.1802 114.661 28.9736 114.002 29.6328C113.367 30.2676 112.586 30.585 111.658 30.585C110.731 30.585 109.937 30.2676 109.278 29.6328C108.643 28.9736 108.326 28.1802 108.326 27.2524C108.326 26.7886 108.411 26.3613 108.582 25.9707C108.753 25.5557 108.985 25.2017 109.278 24.9087C109.596 24.5913 109.95 24.3472 110.34 24.1763C110.755 24.0054 111.195 23.9199 111.658 23.9199C112.122 23.9199 112.55 24.0054 112.94 24.1763C113.355 24.3472 113.709 24.5913 114.002 24.9087C114.32 25.2017 114.564 25.5557 114.735 25.9707C114.906 26.3613 114.991 26.7886 114.991 27.2524ZM109.058 48.7124C109.058 45.1968 109.278 41.6934 109.718 38.2021C109.766 37.8604 109.913 37.5674 110.157 37.3232C110.426 37.0547 110.767 36.9204 111.182 36.9204C111.549 36.9204 111.854 37.0669 112.098 37.3599C112.342 37.6284 112.464 37.9458 112.464 38.312C112.464 38.4585 112.428 38.8979 112.354 39.6304C112.305 40.3628 112.232 41.2417 112.135 42.2671C112.061 43.2681 111.988 44.3423 111.915 45.4897C111.866 46.6128 111.842 47.6504 111.842 48.6025C111.842 49.8965 111.964 50.9463 112.208 51.752C112.476 52.5332 112.806 53.1436 113.197 53.583C113.612 54.0225 114.039 54.3154 114.478 54.4619C114.942 54.6084 115.382 54.6816 115.797 54.6816C116.48 54.6816 117.188 54.4375 117.921 53.9492C118.653 53.4609 119.398 52.7773 120.155 51.8984C120.936 51.0195 121.717 49.9697 122.498 48.749C123.28 47.5039 124.049 46.1245 124.805 44.6108C124.928 44.3667 125.098 44.1836 125.318 44.0615C125.538 43.915 125.782 43.8418 126.051 43.8418C126.441 43.8418 126.759 43.9883 127.003 44.2812C127.271 44.5742 127.406 44.8916 127.406 45.2334C127.406 45.4775 127.357 45.6851 127.259 45.856C126.966 46.4175 126.6 47.1011 126.16 47.9067C125.721 48.7124 125.221 49.5425 124.659 50.397C124.097 51.2515 123.475 52.106 122.791 52.9604C122.132 53.7905 121.424 54.5474 120.667 55.231C119.91 55.8901 119.117 56.4272 118.287 56.8423C117.457 57.2573 116.615 57.4648 115.76 57.4648C114.661 57.4648 113.697 57.2329 112.867 56.769C112.037 56.3052 111.329 55.6826 110.743 54.9014C110.181 54.1201 109.754 53.2046 109.461 52.1548C109.193 51.0806 109.058 49.9331 109.058 48.7124ZM112.94 27.2524C112.94 26.9106 112.806 26.6177 112.537 26.3735C112.293 26.105 112 25.9707 111.658 25.9707C111.317 25.9707 111.024 26.105 110.78 26.3735C110.535 26.6177 110.413 26.9106 110.413 27.2524C110.413 27.5942 110.535 27.8872 110.78 28.1313C111.024 28.3755 111.317 28.4976 111.658 28.4976C112 28.4976 112.293 28.3755 112.537 28.1313C112.806 27.8872 112.94 27.5942 112.94 27.2524ZM150.665 45.8193C150.592 47.0889 150.421 48.3706 150.153 49.6646C149.884 50.9341 149.457 52.0815 148.871 53.1069C148.309 54.1323 147.565 54.9746 146.637 55.6338C145.709 56.2686 144.562 56.5859 143.195 56.5859C142.34 56.5859 141.583 56.4517 140.924 56.1831C140.289 55.939 139.728 55.6094 139.239 55.1943C138.776 54.7549 138.385 54.2666 138.068 53.7295C137.75 53.168 137.482 52.582 137.262 51.9717C136.407 53.3877 135.394 54.4863 134.222 55.2676C133.075 56.0244 131.927 56.4028 130.78 56.4028C129.852 56.4028 129.01 56.2319 128.253 55.8901C127.521 55.5483 126.886 55.0723 126.349 54.4619C125.836 53.8271 125.433 53.0703 125.14 52.1914C124.847 51.3125 124.701 50.3237 124.701 49.2251C124.701 47.394 124.86 45.8193 125.177 44.501C125.519 43.1582 125.885 42.0596 126.276 41.2051C126.691 40.3506 127.069 39.7158 127.411 39.3008C127.753 38.8613 127.924 38.6416 127.924 38.6416C128.046 38.4951 128.192 38.3853 128.363 38.312C128.558 38.2388 128.754 38.2021 128.949 38.2021C129.34 38.2021 129.657 38.3486 129.901 38.6416C130.17 38.9102 130.304 39.2275 130.304 39.5938C130.304 39.8623 130.206 40.1553 130.011 40.4727C129.913 40.6191 129.718 40.8999 129.425 41.3149C129.156 41.73 128.876 42.2915 128.583 42.9995C128.29 43.7075 128.021 44.5742 127.777 45.5996C127.557 46.625 127.447 47.8335 127.447 49.2251C127.447 50.6655 127.74 51.7642 128.326 52.521C128.912 53.2534 129.73 53.6196 130.78 53.6196C131.293 53.6196 131.854 53.4854 132.465 53.2168C133.075 52.9238 133.649 52.4844 134.186 51.8984C134.723 51.3125 135.187 50.5679 135.577 49.6646C135.968 48.7612 136.212 47.6992 136.31 46.4785L136.786 40.1797C136.81 39.8135 136.957 39.5083 137.225 39.2642C137.518 39.02 137.848 38.8979 138.214 38.8979C138.629 38.8979 138.959 39.0566 139.203 39.374C139.447 39.667 139.569 40.0088 139.569 40.3994L139.166 46.4419C139.093 47.7358 139.13 48.8467 139.276 49.7744C139.447 50.7021 139.716 51.4712 140.082 52.0815C140.448 52.6675 140.9 53.1069 141.437 53.3999C141.974 53.6685 142.572 53.8027 143.231 53.8027C144.11 53.8027 144.855 53.5464 145.465 53.0337C146.075 52.521 146.564 51.8252 146.93 50.9463C147.296 50.0674 147.552 49.0542 147.699 47.9067C147.87 46.7349 147.955 45.502 147.955 44.208C147.955 42.6699 147.87 41.3882 147.699 40.3628C147.528 39.3374 147.443 38.6538 147.443 38.312C147.443 37.9458 147.577 37.6284 147.845 37.3599C148.114 37.0669 148.444 36.9204 148.834 36.9204C149.176 36.9204 149.469 37.0303 149.713 37.25C149.957 37.4453 150.116 37.7139 150.189 38.0557C150.214 38.1533 150.287 38.4341 150.409 38.8979C150.531 39.3618 150.702 39.9233 150.922 40.5825C151.141 41.2173 151.422 41.9009 151.764 42.6333C152.13 43.3413 152.557 44.0005 153.046 44.6108C153.558 45.2212 154.132 45.7339 154.767 46.1489C155.426 46.5396 156.171 46.7349 157.001 46.7349C157.465 46.7349 157.855 46.6494 158.173 46.4785C158.514 46.2832 158.795 46.0635 159.015 45.8193C159.235 45.5752 159.393 45.3433 159.491 45.1235C159.613 44.9038 159.686 44.7695 159.711 44.7207C159.833 44.4521 160.004 44.2446 160.223 44.0981C160.467 43.9272 160.724 43.8418 160.992 43.8418C161.407 43.8418 161.737 44.0005 161.981 44.3179C162.25 44.6108 162.384 44.9282 162.384 45.27C162.384 45.563 162.25 45.9536 161.981 46.4419C161.737 46.9302 161.383 47.4062 160.919 47.8701C160.455 48.3096 159.882 48.7002 159.198 49.042C158.539 49.3594 157.806 49.5181 157.001 49.5181C156.293 49.5181 155.633 49.4204 155.023 49.2251C154.413 49.0054 153.839 48.7246 153.302 48.3828C152.789 48.041 152.313 47.6504 151.874 47.2109C151.434 46.7715 151.031 46.3076 150.665 45.8193ZM165.978 27.2524C165.978 28.1802 165.649 28.9736 164.989 29.6328C164.355 30.2676 163.573 30.585 162.646 30.585C161.718 30.585 160.924 30.2676 160.265 29.6328C159.63 28.9736 159.313 28.1802 159.313 27.2524C159.313 26.7886 159.399 26.3613 159.569 25.9707C159.74 25.5557 159.972 25.2017 160.265 24.9087C160.583 24.5913 160.937 24.3472 161.327 24.1763C161.742 24.0054 162.182 23.9199 162.646 23.9199C163.109 23.9199 163.537 24.0054 163.927 24.1763C164.342 24.3472 164.696 24.5913 164.989 24.9087C165.307 25.2017 165.551 25.5557 165.722 25.9707C165.893 26.3613 165.978 26.7886 165.978 27.2524ZM160.046 48.7124C160.046 45.1968 160.265 41.6934 160.705 38.2021C160.754 37.8604 160.9 37.5674 161.144 37.3232C161.413 37.0547 161.754 36.9204 162.17 36.9204C162.536 36.9204 162.841 37.0669 163.085 37.3599C163.329 37.6284 163.451 37.9458 163.451 38.312C163.451 38.4585 163.415 38.8979 163.341 39.6304C163.293 40.3628 163.219 41.2417 163.122 42.2671C163.048 43.2681 162.975 44.3423 162.902 45.4897C162.853 46.6128 162.829 47.6504 162.829 48.6025C162.829 49.8965 162.951 50.9463 163.195 51.752C163.463 52.5332 163.793 53.1436 164.184 53.583C164.599 54.0225 165.026 54.3154 165.465 54.4619C165.929 54.6084 166.369 54.6816 166.784 54.6816C167.467 54.6816 168.175 54.4375 168.908 53.9492C169.64 53.4609 170.385 52.7773 171.142 51.8984C171.923 51.0195 172.704 49.9697 173.485 48.749C174.267 47.5039 175.036 46.1245 175.793 44.6108C175.915 44.3667 176.086 44.1836 176.305 44.0615C176.525 43.915 176.769 43.8418 177.038 43.8418C177.428 43.8418 177.746 43.9883 177.99 44.2812C178.258 44.5742 178.393 44.8916 178.393 45.2334C178.393 45.4775 178.344 45.6851 178.246 45.856C177.953 46.4175 177.587 47.1011 177.148 47.9067C176.708 48.7124 176.208 49.5425 175.646 50.397C175.085 51.2515 174.462 52.106 173.778 52.9604C173.119 53.7905 172.411 54.5474 171.654 55.231C170.898 55.8901 170.104 56.4272 169.274 56.8423C168.444 57.2573 167.602 57.4648 166.747 57.4648C165.649 57.4648 164.684 57.2329 163.854 56.769C163.024 56.3052 162.316 55.6826 161.73 54.9014C161.169 54.1201 160.741 53.2046 160.448 52.1548C160.18 51.0806 160.046 49.9331 160.046 48.7124ZM163.927 27.2524C163.927 26.9106 163.793 26.6177 163.525 26.3735C163.28 26.105 162.987 25.9707 162.646 25.9707C162.304 25.9707 162.011 26.105 161.767 26.3735C161.523 26.6177 161.4 26.9106 161.4 27.2524C161.4 27.5942 161.523 27.8872 161.767 28.1313C162.011 28.3755 162.304 28.4976 162.646 28.4976C162.987 28.4976 163.28 28.3755 163.525 28.1313C163.793 27.8872 163.927 27.5942 163.927 27.2524ZM196.818 45.856C196.55 46.4175 196.208 47.0889 195.793 47.8701C195.402 48.627 194.951 49.4204 194.438 50.2505C193.925 51.0806 193.352 51.9106 192.717 52.7407C192.082 53.5464 191.386 54.2788 190.629 54.938C189.897 55.5728 189.104 56.0854 188.249 56.4761C187.419 56.8911 186.528 57.0986 185.576 57.0986C184.111 57.0986 182.854 56.647 181.804 55.7437C180.754 54.8403 179.863 53.6562 179.13 52.1914C178.398 50.7266 177.8 49.0664 177.336 47.2109C176.896 45.3311 176.555 43.4268 176.311 41.498C176.066 39.5449 175.896 37.6528 175.798 35.8218C175.725 33.9907 175.688 32.3672 175.688 30.9512C175.688 28.9004 175.749 26.7764 175.871 24.5791C176.018 22.3818 176.237 20.2334 176.53 18.1338C176.823 16.0342 177.189 14.0444 177.629 12.1646C178.093 10.2847 178.63 8.63672 179.24 7.2207C179.875 5.80469 180.595 4.68164 181.401 3.85156C182.207 3.02148 183.122 2.60645 184.147 2.60645C184.953 2.60645 185.673 2.80176 186.308 3.19238C186.967 3.55859 187.517 4.16895 187.956 5.02344C188.396 5.87793 188.737 6.98877 188.981 8.35596C189.226 9.72314 189.348 11.3955 189.348 13.373C189.348 15.8145 189.091 18.3413 188.579 20.9536C188.066 23.5415 187.37 26.1538 186.491 28.7905C185.612 31.4272 184.575 34.064 183.378 36.7007C182.182 39.313 180.9 41.8643 179.533 44.3545C180.144 47.4551 180.961 49.8965 181.987 51.6787C183.012 53.4365 184.245 54.3154 185.686 54.3154C186.662 54.3154 187.602 53.937 188.505 53.1802C189.409 52.3989 190.239 51.4834 190.996 50.4336C191.752 49.3838 192.412 48.3218 192.973 47.2476C193.559 46.1489 194.011 45.27 194.328 44.6108C194.45 44.3667 194.621 44.1836 194.841 44.0615C195.061 43.915 195.305 43.8418 195.573 43.8418C195.988 43.8418 196.318 43.9883 196.562 44.2812C196.831 44.5742 196.965 44.9038 196.965 45.27C196.965 45.4165 196.916 45.6118 196.818 45.856ZM178.471 31.1343C178.471 32.6968 178.508 34.1982 178.581 35.6387C178.654 37.0791 178.752 38.4585 178.874 39.7769C179.899 37.7993 180.876 35.6997 181.804 33.478C182.731 31.2319 183.549 28.9736 184.257 26.7031C184.965 24.4082 185.527 22.1377 185.942 19.8916C186.381 17.6211 186.601 15.4604 186.601 13.4097C186.601 10.5288 186.369 8.46582 185.905 7.2207C185.441 5.97559 184.819 5.35303 184.038 5.35303C183.525 5.35303 183.024 5.70703 182.536 6.41504C182.072 7.12305 181.633 8.0874 181.218 9.30811C180.803 10.5288 180.424 11.9692 180.083 13.6294C179.741 15.2896 179.448 17.0718 179.204 18.9761C178.984 20.8804 178.801 22.8701 178.654 24.9453C178.532 27.0205 178.471 29.0835 178.471 31.1343Z" fill="#999999"/>
</svg>
