<svg width="309" height="70" viewBox="0 0 309 70" fill="none" xmlns="http://www.w3.org/2000/svg">
<path d="M168.768 19.678V43.046H174.84V10.846H167.894L157.82 24.692L147.746 10.846H140.754V43.046H146.826V19.632L157.084 33.662H158.28L168.768 19.678ZM204.566 43V37.02H186.488V29.752H203.922V24.094H186.488V16.688H204.566V10.8H180.462V43H204.566ZM231.407 10.754V30.764L215.629 10.8H210.707V43H216.779V21.288L233.707 43.046V43H237.479V10.754H231.407ZM264.89 10.8L256.84 22.806L248.79 10.8H242.12V11.076L252.976 26.716L241.798 42.816V43H248.606L256.84 30.902L265.074 43H271.882V42.816L260.658 26.716L271.56 11.076V10.8H264.89ZM298.336 36.928L301.05 43H307.674L293.23 10.8H286.606L272.162 43H278.74L281.5 36.928H298.336ZM289.918 17.562L295.898 31.27H283.938L289.918 17.562Z" fill="#999999"/>
<path d="M144.579 52.913C140.567 52.913 138.578 55.837 138.578 59.033C138.578 62.178 140.584 65.204 144.579 65.204C148.608 65.204 150.58 62.144 150.58 59.033C150.58 55.837 148.574 52.913 144.579 52.913ZM144.579 53.763C147.996 53.763 149.696 56.296 149.696 59.05C149.696 61.736 147.979 64.354 144.579 64.354C141.179 64.354 139.479 61.702 139.479 59.016C139.479 56.228 141.179 53.763 144.579 53.763ZM153.465 65H154.281V57.401H157.052V56.67H154.281V55.922C154.281 54.46 154.893 53.814 155.947 53.814C156.457 53.814 156.78 53.967 157.239 54.239L157.647 53.627C157.171 53.27 156.61 53.049 155.981 53.049C154.128 53.049 153.465 54.256 153.465 55.922V56.67H151.748V57.401H153.465V65ZM159.873 65H160.689V57.401H163.46V56.67H160.689V55.922C160.689 54.46 161.301 53.814 162.355 53.814C162.865 53.814 163.188 53.967 163.647 54.239L164.055 53.627C163.579 53.27 163.018 53.049 162.389 53.049C160.536 53.049 159.873 54.256 159.873 55.922V56.67H158.156V57.401H159.873V65ZM165.01 53.865C165.01 54.307 165.35 54.528 165.69 54.528C166.013 54.528 166.353 54.307 166.353 53.865C166.353 53.423 166.013 53.202 165.69 53.202C165.35 53.202 165.01 53.423 165.01 53.865ZM165.248 56.568H166.081V65H165.248V56.568ZM175.354 63.827L174.793 63.266C174.113 63.946 173.195 64.303 172.294 64.303C170.39 64.303 168.792 63.062 168.792 60.801C168.792 58.54 170.39 57.299 172.294 57.299C173.195 57.299 174.13 57.622 174.81 58.302L175.354 57.775C174.504 56.942 173.399 56.517 172.294 56.517C169.863 56.517 167.976 58.149 167.976 60.801C167.976 63.453 169.931 65.085 172.294 65.085C173.399 65.085 174.504 64.677 175.354 63.827ZM176.814 53.865C176.814 54.307 177.154 54.528 177.494 54.528C177.817 54.528 178.157 54.307 178.157 53.865C178.157 53.423 177.817 53.202 177.494 53.202C177.154 53.202 176.814 53.423 176.814 53.865ZM177.052 56.568H177.885V65H177.052V56.568ZM188.348 56.602H187.515V58.438C186.818 57.129 185.441 56.5 184.081 56.5C181.735 56.5 179.814 58.234 179.814 60.801C179.814 63.368 181.735 65.136 184.081 65.136C185.441 65.136 186.699 64.524 187.515 63.215V65H188.348V56.602ZM184.081 57.299C186.427 57.299 187.583 59.05 187.583 60.801C187.583 62.569 186.427 64.32 184.081 64.32C182.177 64.32 180.647 62.909 180.647 60.801C180.647 58.693 182.177 57.299 184.081 57.299ZM191.449 53.1H190.616V65H191.449V53.1ZM207.972 55.293L208.499 54.715C207.292 53.525 205.711 52.93 204.147 52.93C200.543 52.93 198.01 55.344 198.01 59.05C198.01 62.297 200.067 65.153 204.147 65.153C205.915 65.153 207.394 64.473 208.635 63.232V58.778H203.62V59.577H207.768V62.909C206.748 63.844 205.422 64.286 204.147 64.286C200.679 64.286 198.894 61.872 198.894 59.067C198.877 56.313 200.662 53.763 204.147 53.763C205.49 53.763 206.935 54.273 207.972 55.293ZM219.044 56.602H218.211V58.438C217.514 57.129 216.137 56.5 214.777 56.5C212.431 56.5 210.51 58.234 210.51 60.801C210.51 63.368 212.431 65.136 214.777 65.136C216.137 65.136 217.395 64.524 218.211 63.215V65H219.044V56.602ZM214.777 57.299C217.123 57.299 218.279 59.05 218.279 60.801C218.279 62.569 217.123 64.32 214.777 64.32C212.873 64.32 211.343 62.909 211.343 60.801C211.343 58.693 212.873 57.299 214.777 57.299ZM233.756 65H234.589V59.968C234.589 57.877 233.127 56.432 231.07 56.432C229.778 56.432 228.469 57.129 227.959 58.506C227.466 57.01 226.123 56.432 224.848 56.432C223.76 56.432 222.689 56.891 222.111 57.996L222.094 56.602H221.312V65H222.145V60.019C222.145 58.404 223.233 57.231 224.831 57.231C226.429 57.231 227.534 58.404 227.534 60.019V65H228.367V60.019C228.367 58.404 229.472 57.214 231.07 57.214C232.668 57.214 233.756 58.353 233.756 59.968V65ZM240.725 65.119C242.068 65.119 243.53 64.575 244.346 63.504L243.751 63.028C243.122 63.861 241.83 64.303 240.725 64.303C238.991 64.303 237.478 63.164 237.308 61.192H244.873C244.89 60.971 244.907 60.75 244.907 60.546C244.907 57.724 242.918 56.466 240.725 56.466C238.362 56.466 236.458 58.285 236.458 60.801C236.458 63.47 238.362 65.119 240.725 65.119ZM244.125 60.461H237.308C237.495 58.404 238.991 57.231 240.725 57.231C242.748 57.231 244.108 58.387 244.125 60.461ZM252.791 58.132L253.301 57.588C252.451 56.789 251.363 56.466 250.122 56.466C248.456 56.466 246.841 57.18 246.841 58.795C246.841 60.495 248.456 60.801 250.105 61.073C251.465 61.294 252.842 61.532 252.842 62.688C252.842 64.065 251.261 64.337 250.224 64.337C249.102 64.337 247.844 63.912 247.147 62.909L246.535 63.453C247.266 64.575 248.728 65.136 250.207 65.136C251.72 65.136 253.658 64.626 253.658 62.671C253.658 60.818 251.652 60.58 250.19 60.325C249.119 60.138 247.64 59.917 247.64 58.744C247.64 57.724 248.847 57.248 250.105 57.248C251.074 57.248 251.924 57.367 252.791 58.132ZM260.754 53.1H260.363V65H261.281V55.174L269.305 65H269.662V53.1H268.761V62.943L260.754 53.1ZM275.954 65.119C277.297 65.119 278.759 64.575 279.575 63.504L278.98 63.028C278.351 63.861 277.059 64.303 275.954 64.303C274.22 64.303 272.707 63.164 272.537 61.192H280.102C280.119 60.971 280.136 60.75 280.136 60.546C280.136 57.724 278.147 56.466 275.954 56.466C273.591 56.466 271.687 58.285 271.687 60.801C271.687 63.47 273.591 65.119 275.954 65.119ZM279.354 60.461H272.537C272.724 58.404 274.22 57.231 275.954 57.231C277.977 57.231 279.337 58.387 279.354 60.461ZM290.594 65L293.569 56.602H292.651L290.135 64.031L287.585 56.602H286.99L284.423 64.031L281.89 56.602H280.972L283.964 65H284.882L286.242 61.345L287.296 58.064L288.316 61.328L289.676 65H290.594ZM300.686 58.132L301.196 57.588C300.346 56.789 299.258 56.466 298.017 56.466C296.351 56.466 294.736 57.18 294.736 58.795C294.736 60.495 296.351 60.801 298 61.073C299.36 61.294 300.737 61.532 300.737 62.688C300.737 64.065 299.156 64.337 298.119 64.337C296.997 64.337 295.739 63.912 295.042 62.909L294.43 63.453C295.161 64.575 296.623 65.136 298.102 65.136C299.615 65.136 301.553 64.626 301.553 62.671C301.553 60.818 299.547 60.58 298.085 60.325C297.014 60.138 295.535 59.917 295.535 58.744C295.535 57.724 296.742 57.248 298 57.248C298.969 57.248 299.819 57.367 300.686 58.132Z" fill="#999999"/>
<path d="M4.89339 67.6865C6.72942 67.6865 8.21781 66.1981 8.21781 64.362C8.21781 62.526 6.72942 61.0376 4.89339 61.0376C3.05736 61.0376 1.56897 62.526 1.56897 64.362C1.56897 66.1981 3.05736 67.6865 4.89339 67.6865Z" fill="#999999"/>
<path d="M128.454 63.8543C128.454 65.6901 126.966 67.1788 125.13 67.1788C123.294 67.1788 121.806 65.6901 121.806 63.8543C121.806 62.018 123.294 60.5289 125.13 60.5289C126.966 60.5289 128.454 62.018 128.454 63.8543Z" fill="#999999"/>
<path d="M111.737 47.5761C113.573 47.5761 115.062 46.0876 115.062 44.2515C115.062 42.4154 113.573 40.9269 111.737 40.9269C109.901 40.9269 108.413 42.4154 108.413 44.2515C108.413 46.0876 109.901 47.5761 111.737 47.5761Z" fill="#999999"/>
<path d="M93.0607 21.0834C94.8967 21.0834 96.3851 19.595 96.3851 17.759C96.3851 15.923 94.8967 14.4346 93.0607 14.4346C91.2247 14.4346 89.7363 15.923 89.7363 17.759C89.7363 19.595 91.2247 21.0834 93.0607 21.0834Z" fill="#999999"/>
<path d="M67.9227 28.6684C69.7588 28.6684 71.2473 27.1799 71.2473 25.3438C71.2473 23.5077 69.7588 22.0192 67.9227 22.0192C66.0866 22.0192 64.5981 23.5077 64.5981 25.3438C64.5981 27.1799 66.0866 28.6684 67.9227 28.6684Z" fill="#999999"/>
<path d="M57.0684 37.328C58.9045 37.328 60.3929 35.8395 60.3929 34.0034C60.3929 32.1673 58.9045 30.6788 57.0684 30.6788C55.2322 30.6788 53.7438 32.1673 53.7438 34.0034C53.7438 35.8395 55.2322 37.328 57.0684 37.328Z" fill="#999999"/>
<path d="M45.0027 8.6495C46.8389 8.6495 48.3274 7.16096 48.3274 5.32475C48.3274 3.48854 46.8389 2 45.0027 2C43.1665 2 41.6779 3.48854 41.6779 5.32475C41.6779 7.16096 43.1665 8.6495 45.0027 8.6495Z" fill="#999999"/>
<path d="M3.32475 18.541C5.16096 18.541 6.6495 17.0525 6.6495 15.2163C6.6495 13.3801 5.16096 11.8915 3.32475 11.8915C1.48854 11.8915 0 13.3801 0 15.2163C0 17.0525 1.48854 18.541 3.32475 18.541Z" fill="#999999"/>
<path d="M20.5493 26.3649C21.8758 26.3649 22.9513 25.2895 22.9513 23.963C22.9513 22.6364 21.8758 21.561 20.5493 21.561C19.2227 21.561 18.1473 22.6364 18.1473 23.963C18.1473 25.2895 19.2227 26.3649 20.5493 26.3649Z" fill="#999999"/>
<path d="M25.604 49.2082C26.9305 49.2082 28.0059 48.1329 28.0059 46.8064C28.0059 45.4799 26.9305 44.4046 25.604 44.4046C24.2775 44.4046 23.2022 45.4799 23.2022 46.8064C23.2022 48.1329 24.2775 49.2082 25.604 49.2082Z" fill="#999999"/>
<path d="M53.7439 10.1282C53.7439 11.4549 52.6685 12.5302 51.3426 12.5302C50.0159 12.5302 48.9404 11.4549 48.9404 10.1282C48.9404 8.80208 50.0157 7.72656 51.3426 7.72656C52.6684 7.72656 53.7439 8.80191 53.7439 10.1282Z" fill="#999999"/>
<path d="M50.7291 33.4196C52.0555 33.4196 53.1307 32.3444 53.1307 31.018C53.1307 29.6916 52.0555 28.6163 50.7291 28.6163C49.4027 28.6163 48.3274 29.6916 48.3274 31.018C48.3274 32.3444 49.4027 33.4196 50.7291 33.4196Z" fill="#999999"/>
<path d="M38.3758 22.942C38.3758 24.2686 37.3004 25.344 35.9745 25.344C34.6478 25.344 33.5725 24.2686 33.5725 22.942C33.5725 21.6158 34.6478 20.5405 35.9745 20.5405C37.3004 20.5405 38.3758 21.6158 38.3758 22.942Z" fill="#999999"/>
<path d="M85.8263 41.7029C85.8263 42.6196 85.0833 43.3627 84.1674 43.3627C83.2508 43.3627 82.5076 42.6196 82.5076 41.7029C82.5076 40.7866 83.2508 40.0434 84.1674 40.0434C85.0834 40.0434 85.8263 40.7866 85.8263 41.7029Z" fill="#999999"/>
<path d="M80.6875 48.4812C82.014 48.4812 83.0893 47.4059 83.0893 46.0794C83.0893 44.7529 82.014 43.6776 80.6875 43.6776C79.361 43.6776 78.2856 44.7529 78.2856 46.0794C78.2856 47.4059 79.361 48.4812 80.6875 48.4812Z" fill="#999999"/>
<path d="M87.8095 63.854C87.8095 64.949 86.9217 65.837 85.8269 65.837C84.731 65.837 83.843 64.9488 83.843 63.854C83.843 62.7587 84.731 61.8707 85.8269 61.8707C86.9219 61.8707 87.8095 62.7586 87.8095 63.854Z" fill="#999999"/>
<path d="M20.4157 46.8063C20.4157 48.4198 19.1076 49.7276 17.4946 49.7276C15.8808 49.7276 14.5728 48.4196 14.5728 46.8063C14.5728 45.1936 15.8808 43.8856 17.4946 43.8856C19.1076 43.8856 20.4157 45.1936 20.4157 46.8063Z" fill="#999999"/>
<path d="M21.8655 27.5485C22.3582 27.4416 22.8442 27.7542 22.9514 28.2469L25.6497 40.6706C25.7566 41.1636 25.4441 41.6497 24.9512 41.7566C24.4585 41.8636 23.9726 41.551 23.8653 41.058L21.167 28.6343C21.0603 28.1416 21.3725 27.6556 21.8655 27.5485Z" fill="#999999"/>
<path d="M108.291 38.812L102.646 30.3155C102.643 30.3122 102.641 30.3102 102.639 30.3069L97.3951 22.4148C97.1713 22.0777 96.7162 21.9858 96.3784 22.2094C96.0409 22.4331 95.9491 22.8871 96.1726 23.2244L101.818 31.7207C101.82 31.7242 101.823 31.7265 101.825 31.7296L107.068 39.6216C107.292 39.9586 107.747 40.0505 108.085 39.8269C108.422 39.6033 108.514 39.1488 108.291 38.812Z" fill="#999999"/>
<path d="M7.98108 59.8444C7.54343 59.5943 7.39134 59.0367 7.64164 58.5989L11.6477 51.5911C11.8979 51.1533 12.4555 51.0014 12.8932 51.2517C13.331 51.5022 13.4831 52.0593 13.2328 52.4976L9.22681 59.5053C8.97651 59.9426 8.41873 60.0946 7.98108 59.8444Z" fill="#999999"/>
<path d="M7.57343 18.1156C7.74134 17.64 8.26254 17.3907 8.73809 17.5588L16.3494 20.2458C16.8251 20.4134 17.0744 20.9353 16.9065 21.4103C16.7386 21.8859 16.2173 22.1352 15.7415 21.9671L8.13022 19.2806C7.65499 19.1127 7.40552 18.5908 7.57343 18.1156Z" fill="#999999"/>
<path d="M38.994 24.3971C39.2585 23.9679 39.8206 23.8342 40.25 24.099L47.1219 28.3334C47.5515 28.5977 47.685 29.1604 47.4205 29.5893C47.156 30.0187 46.5938 30.1522 46.1642 29.8876L39.2923 25.6536C38.863 25.3889 38.7294 24.8262 38.994 24.3971Z" fill="#999999"/>
<path d="M38.3538 19.2573C37.887 19.0667 37.663 18.5343 37.8535 18.0671L40.9036 10.5937C41.0941 10.1269 41.6271 9.90279 42.0938 10.0933C42.5606 10.2839 42.7844 10.8168 42.5939 11.284L39.544 18.757C39.3535 19.2239 38.8205 19.4478 38.3538 19.2573Z" fill="#999999"/>
<path d="M63.1853 23.36C62.8036 23.6897 62.2274 23.6477 61.8977 23.2659L53.966 14.0839C53.6365 13.7023 53.6785 13.1259 54.06 12.7964C54.4416 12.4666 55.0181 12.5086 55.3479 12.8903L63.2795 22.0726C63.6091 22.4541 63.5667 23.0305 63.1853 23.36Z" fill="#999999"/>
<path d="M86.6175 18.2194C86.8242 18.6793 86.6193 19.2194 86.1593 19.4264L75.0945 24.4057C74.6349 24.6127 74.0945 24.4075 73.8877 23.9479C73.6807 23.4879 73.8855 22.9474 74.3456 22.7406L85.4102 17.7615C85.8701 17.5545 86.4106 17.7595 86.6175 18.2194Z" fill="#999999"/>
<path d="M8.31029 13.2775C8.41905 13.7565 8.89592 14.0566 9.37493 13.9475L39.5318 7.08195C40.0107 6.9727 40.3106 6.49583 40.2013 6.01681C40.0924 5.53829 39.6159 5.23823 39.137 5.34731L8.98012 12.2132C8.50111 12.3218 8.20104 12.7985 8.31029 13.2775Z" fill="#999999"/>
<path d="M29.6286 41.6765C30.0895 41.8464 30.5321 41.7971 30.6171 41.5666L35.9601 27.0553C36.0448 26.825 35.74 26.5004 35.2789 26.331C34.8182 26.1611 34.3756 26.2103 34.2907 26.4407L28.9479 40.9522C28.8627 41.1824 29.1677 41.5068 29.6286 41.6765Z" fill="#999999"/>
<path d="M86.0276 38.9852C86.5061 39.0958 86.9392 38.9913 86.9945 38.7517L90.4734 23.6844C90.5286 23.4454 90.1853 23.1616 89.7068 23.051C89.2283 22.9405 88.7954 23.0448 88.74 23.284L85.2614 38.3513C85.2057 38.5909 85.5491 38.8746 86.0276 38.9852Z" fill="#999999"/>
<path d="M122.188 59.3125C121.774 59.6007 121.334 59.6834 121.204 59.4972L114.045 49.2046C113.916 49.0189 114.147 48.6348 114.561 48.3466C114.974 48.0586 115.415 47.976 115.544 48.1621L122.703 58.4547C122.833 58.6405 122.602 59.0248 122.188 59.3125Z" fill="#999999"/>
<path d="M81.6746 49.4302C81.1849 49.55 80.8529 49.911 80.9321 50.236L83.3559 60.1366C83.4356 60.4617 83.8972 60.628 84.3869 60.5078C84.8768 60.3879 85.209 60.0272 85.1296 59.7021L82.7057 49.8016C82.6262 49.4767 82.1645 49.3103 81.6746 49.4302Z" fill="#999999"/>
<path d="M70.1024 29.1884C69.6705 29.4484 69.5314 30.0095 69.7914 30.4414L77.2277 42.7838C77.4876 43.2157 78.0487 43.355 78.4807 43.0949C78.9126 42.8346 79.0517 42.2735 78.7917 41.8416L71.3557 29.4992C71.0952 29.0671 70.5344 28.9282 70.1024 29.1884Z" fill="#999999"/>
<path d="M61.2194 37.1991C60.9349 37.6154 61.042 38.1833 61.4584 38.4678L73.3573 46.595C73.7732 46.8796 74.3415 46.7726 74.6257 46.3562C74.9103 45.9398 74.803 45.3718 74.3868 45.0873L62.4882 36.96C62.0718 36.6758 61.5039 36.7827 61.2194 37.1991Z" fill="#999999"/>
</svg>
