<svg width="44" height="34" viewBox="0 0 44 34" fill="none" xmlns="http://www.w3.org/2000/svg">
<path fill-rule="evenodd" clip-rule="evenodd" d="M0.645133 15.1C3.03398 6.3833 11.6561 0.264648 21.5503 0.264648C31.4446 0.264648 40.0667 6.3833 42.4555 15.1H40.5672C37.3818 15.0574 34.2616 15.9216 31.6449 17.5714C31.4939 17.6707 31.3363 17.7613 31.1729 17.8428H30.9526C30.7892 17.7613 30.6315 17.6707 30.4805 17.5714C25.0807 14.275 18.02 14.275 12.6202 17.5714C12.4692 17.6707 12.3115 17.7613 12.1481 17.8428H11.9278C11.7644 17.7613 11.6067 17.6707 11.4557 17.5714C8.83905 15.9216 5.7189 15.0574 2.53345 15.1H0.645133ZM37.1683 24.0571C38.1377 23.3718 39.3391 23.0132 40.5673 23.0428H43.1008V18.4571H40.5673C38.4039 18.4333 36.29 19.0446 34.5404 20.2C32.5194 21.5526 29.7635 21.5526 27.7425 20.2C24.0682 17.8779 19.19 17.8779 15.5156 20.2C13.4946 21.5526 10.7388 21.5526 8.71771 20.2C6.94647 19.0299 4.80229 18.4178 2.61217 18.4571H0V23.0428H2.53349C3.76169 23.0132 4.9631 23.3718 5.93245 24.0571C9.60041 26.3808 14.4756 26.3808 18.1435 24.0571C19.1141 23.3739 20.3147 23.0156 21.5425 23.0428C22.7711 23.0108 23.9734 23.3696 24.9415 24.0571C28.6158 26.3791 33.494 26.3791 37.1683 24.0571ZM40.5673 31.2428C39.3391 31.2132 38.1377 31.5718 37.1683 32.2571C33.494 34.5791 28.6158 34.5791 24.9415 32.2571C23.9734 31.5696 22.7711 31.2108 21.5425 31.2428C20.3147 31.2156 19.1141 31.5739 18.1435 32.2571C14.4756 34.5808 9.60041 34.5808 5.93245 32.2571C4.9631 31.5718 3.76169 31.2132 2.53349 31.2428H0V26.6571H2.61217C4.80229 26.6178 6.94647 27.2299 8.71771 28.4C10.7388 29.7526 13.4946 29.7526 15.5156 28.4C19.19 26.0779 24.0682 26.0779 27.7425 28.4C29.7635 29.7526 32.5194 29.7526 34.5404 28.4C36.29 27.2446 38.4039 26.6333 40.5673 26.6571H43.1008V31.2428H40.5673Z" fill="#E2E2E2"/>
</svg>
