<?xml version="1.0" encoding="utf-8"?>
<!-- Generator: Adobe Illustrator 16.0.0, SVG Export Plug-In . SVG Version: 6.00 Build 0)  -->
<!DOCTYPE svg PUBLIC "-//W3C//DTD SVG 1.1//EN" "http://www.w3.org/Graphics/SVG/1.1/DTD/svg11.dtd">
<svg version="1.1" id="Layer_1" xmlns="http://www.w3.org/2000/svg" xmlns:xlink="http://www.w3.org/1999/xlink" x="0px" y="0px"
	 width="1080px" height="1080px" viewBox="0 0 1080 1080" enable-background="new 0 0 1080 1080" xml:space="preserve">
<g>
	<g>
		<text transform="matrix(1 0 0 1 95.7241 794.3545)"><tspan x="0" y="0" fill="#313032" font-family="'Nexa-Bold'" font-size="249.3158">MEN</tspan><tspan x="549.24" y="0" fill="#313032" font-family="'Nexa-Light'" font-size="249.3158">XA</tspan></text>
	</g>
</g>
<g>
	<g>
		<circle fill="#313032" cx="160.701" cy="555.055" r="20.175"/>
		<path fill="#313032" d="M910.558,551.974c0,11.141-9.031,20.175-20.172,20.175c-11.144,0-20.178-9.034-20.178-20.175
			c0-11.144,9.034-20.181,20.178-20.181C901.526,531.793,910.558,540.83,910.558,551.974z"/>
		<circle fill="#313032" cx="809.107" cy="433.01" r="20.176"/>
		<circle fill="#313032" cx="695.764" cy="272.234" r="20.175"/>
		<circle fill="#313032" cx="543.208" cy="318.264" r="20.176"/>
		<circle fill="#313032" cx="477.336" cy="370.817" r="20.176"/>
		<circle fill="#313032" cx="404.113" cy="196.774" r="20.177"/>
		<circle fill="#313032" cx="151.181" cy="256.803" r="20.177"/>
		<circle fill="#313032" cx="255.712" cy="309.884" r="14.577"/>
		<circle fill="#313032" cx="286.388" cy="448.515" r="14.576"/>
		<path fill="#313032" d="M457.161,225.925c0,8.051-6.526,14.577-14.573,14.577c-8.051,0-14.578-6.526-14.578-14.577
			c0-8.048,6.526-14.575,14.578-14.575C450.634,211.35,457.161,217.876,457.161,225.925z"/>
		<circle fill="#313032" cx="438.865" cy="352.699" r="14.575"/>
		<path fill="#313032" d="M363.896,303.688c0,8.051-6.526,14.577-14.573,14.577c-8.051,0-14.577-6.526-14.577-14.577
			c0-8.048,6.526-14.574,14.577-14.574C357.37,289.114,363.896,295.64,363.896,303.688z"/>
		<path fill="#313032" d="M651.86,417.543c0,5.563-4.509,10.073-10.067,10.073c-5.563,0-10.073-4.51-10.073-10.073
			c0-5.561,4.51-10.071,10.073-10.071C647.352,407.472,651.86,411.982,651.86,417.543z"/>
		<circle fill="#313032" cx="620.674" cy="444.103" r="14.576"/>
		<path fill="#313032" d="M663.896,551.972c0,6.645-5.388,12.034-12.032,12.034c-6.651,0-12.04-5.39-12.04-12.034
			c0-6.647,5.389-12.036,12.04-12.036C658.509,539.936,663.896,545.324,663.896,551.972z"/>
		<path fill="#313032" d="M254.901,448.514c0,9.792-7.938,17.729-17.727,17.729c-9.794,0-17.732-7.938-17.732-17.729
			c0-9.787,7.938-17.725,17.732-17.725C246.963,430.789,254.901,438.727,254.901,448.514z"/>
		<path fill="#313032" d="M263.7,331.644c2.99-0.649,5.939,1.248,6.59,4.238l16.375,75.396c0.649,2.992-1.248,5.942-4.239,6.591l0,0
			c-2.99,0.649-5.939-1.248-6.59-4.24l-16.375-75.396C258.813,335.243,260.708,332.294,263.7,331.644L263.7,331.644z"/>
		<path fill="#313032" d="M788.19,399.999l-34.258-51.563c-0.014-0.02-0.029-0.032-0.042-0.052l-31.822-47.895
			c-1.358-2.046-4.12-2.604-6.17-1.247c-2.048,1.358-2.605,4.113-1.249,6.16l34.259,51.562c0.013,0.021,0.031,0.035,0.045,0.054
			l31.82,47.894c1.357,2.045,4.119,2.603,6.17,1.246C788.99,404.801,789.548,402.043,788.19,399.999z"/>
		<path fill="#313032" d="M179.439,527.639c-2.656-1.518-3.579-4.902-2.06-7.559l24.312-42.528c1.518-2.657,4.902-3.579,7.558-2.06
			l0,0c2.657,1.52,3.58,4.901,2.061,7.561l-24.311,42.528C185.48,528.235,182.095,529.157,179.439,527.639L179.439,527.639z"/>
		<path fill="#313032" d="M176.965,274.398c1.019-2.886,4.182-4.399,7.068-3.379l46.191,16.307c2.887,1.017,4.4,4.184,3.381,7.067
			l0,0c-1.019,2.886-4.183,4.399-7.07,3.379l-46.191-16.304C177.46,280.449,175.946,277.282,176.965,274.398L176.965,274.398z"/>
		<path fill="#313032" d="M367.648,312.519c1.605-2.605,5.016-3.416,7.622-1.809l41.704,25.697c2.607,1.604,3.417,5.019,1.812,7.622
			l0,0c-1.605,2.606-5.017,3.416-7.624,1.81l-41.704-25.695C366.853,318.538,366.042,315.123,367.648,312.519L367.648,312.519z"/>
		<path fill="#313032" d="M363.763,281.327c-2.833-1.157-4.192-4.388-3.036-7.223l18.51-45.354c1.156-2.833,4.391-4.193,7.223-3.037
			l0,0c2.833,1.157,4.191,4.391,3.035,7.226l-18.509,45.352C369.83,281.124,366.595,282.483,363.763,281.327L363.763,281.327z"/>
		<path fill="#313032" d="M514.458,306.225c-2.316,2.001-5.813,1.746-7.814-0.571l-48.135-55.723c-2-2.316-1.745-5.814,0.57-7.814
			l0,0c2.316-2.001,5.815-1.746,7.816,0.57l48.135,55.725C517.03,300.727,516.773,304.225,514.458,306.225L514.458,306.225z"/>
		<path fill="#313032" d="M656.662,275.028c1.254,2.791,0.011,6.069-2.781,7.325l-67.149,30.218
			c-2.789,1.256-6.069,0.011-7.324-2.778l0,0c-1.256-2.792-0.013-6.072,2.779-7.327l67.148-30.217
			C652.126,270.993,655.406,272.237,656.662,275.028L656.662,275.028z"/>
		<path fill="#313032" d="M181.437,245.037c0.66,2.907,3.554,4.728,6.461,4.066l183.014-41.665c2.906-0.663,4.726-3.557,4.063-6.464
			l0,0c-0.661-2.904-3.553-4.725-6.459-4.063l-183.014,41.667C182.595,239.237,180.774,242.13,181.437,245.037L181.437,245.037z"/>
		<path fill="#313032" d="M310.812,417.383c2.797,1.031,5.483,0.732,5.999-0.667l32.425-88.065c0.514-1.398-1.336-3.368-4.134-4.396
			l0,0c-2.796-1.031-5.482-0.732-5.997,0.666l-32.424,88.066C306.164,414.384,308.015,416.353,310.812,417.383L310.812,417.383z"/>
		<path fill="#313032" d="M653.082,401.05c2.904,0.671,5.532,0.037,5.868-1.417l21.112-91.439c0.335-1.451-1.748-3.173-4.652-3.844
			l0,0c-2.904-0.671-5.531-0.038-5.867,1.414l-21.111,91.439C648.094,398.657,650.178,400.379,653.082,401.05L653.082,401.05z"/>
		<path fill="#313032" d="M872.532,524.411c-2.513,1.749-5.186,2.251-5.972,1.121l-43.447-62.463
			c-0.786-1.127,0.615-3.458,3.128-5.207l0,0c2.511-1.748,5.185-2.249,5.97-1.12l43.445,62.463
			C876.443,520.333,875.042,522.665,872.532,524.411L872.532,524.411z"/>
		<path fill="#313032" d="M626.665,464.438c-2.972,0.727-4.987,2.918-4.506,4.89l14.709,60.084c0.484,1.973,3.285,2.982,6.257,2.253
			l0,0c2.973-0.728,4.989-2.917,4.507-4.89l-14.71-60.083C632.44,464.72,629.638,463.71,626.665,464.438L626.665,464.438z"/>
		<path fill="#313032" d="M556.436,341.596c-2.621,1.578-3.465,4.983-1.887,7.604l45.129,74.903
			c1.577,2.621,4.982,3.466,7.604,1.888l0,0c2.621-1.58,3.465-4.985,1.887-7.606l-45.127-74.903
			C562.461,340.86,559.058,340.017,556.436,341.596L556.436,341.596z"/>
		<path fill="#313032" d="M502.528,390.211c-1.727,2.526-1.077,5.973,1.45,7.699l72.211,49.322c2.524,1.727,5.973,1.078,7.698-1.449
			l0,0c1.727-2.527,1.076-5.974-1.45-7.701l-72.209-49.322C507.701,387.035,504.254,387.684,502.528,390.211L502.528,390.211z"/>
	</g>
</g>
</svg>
