<svg width="25" height="19" viewBox="0 0 25 19" fill="none" xmlns="http://www.w3.org/2000/svg">
<path d="M24.6216 2.30857C23.7391 2.68422 22.7988 2.93322 21.8184 3.05412C22.827 2.46977 23.5967 1.5515 23.9586 0.444692C23.0183 0.988743 21.9801 1.37303 20.8737 1.58749C19.9808 0.664903 18.7083 0.0935059 17.32 0.0935059C14.6267 0.0935059 12.4583 2.21502 12.4583 4.81581C12.4583 5.19003 12.4909 5.54985 12.571 5.8924C8.52647 5.70097 4.94764 3.81982 2.54346 0.9542C2.12373 1.66089 1.87753 2.46977 1.87753 3.34054C1.87753 4.97557 2.74517 6.42493 4.03847 7.26404C3.25685 7.24965 2.49007 7.02944 1.84045 6.68257C1.84045 6.69696 1.84045 6.71567 1.84045 6.73438C1.84045 9.02861 3.52679 10.9342 5.73816 11.3732C5.34216 11.4783 4.91056 11.5287 4.46265 11.5287C4.15119 11.5287 3.83676 11.5114 3.54162 11.4481C4.17195 13.3177 5.96063 14.6922 8.08746 14.7368C6.43227 15.9933 4.33065 16.7504 2.05551 16.7504C1.65654 16.7504 1.27389 16.7331 0.891235 16.6856C3.04625 18.0342 5.60022 18.8043 8.35443 18.8043C17.3067 18.8043 22.2011 11.6078 22.2011 5.36994C22.2011 5.16124 22.1937 4.95974 22.1833 4.75968C23.1488 4.09473 23.9601 3.26426 24.6216 2.30857Z" fill="white"/>
</svg>
