<svg width="38" height="38" viewBox="0 0 38 38" fill="none" xmlns="http://www.w3.org/2000/svg">
<rect width="38" height="38" rx="6" fill="#333333"/>
<path d="M11.999 10.501H25.999M10.5 11.999V26M27.498 12V26.002M11.999 27.501H25.999M11.998 9H9V11.998H11.998V9ZM11.998 26H9V28.998H11.998V26ZM28.997 9.002H26V12H28.998V9.002H28.997ZM28.997 26.002H26V29H28.998V26.002H28.997Z" stroke="#888888" stroke-width="1.3" stroke-miterlimit="1.5" stroke-linecap="round" stroke-linejoin="round"/>
<path d="M17.997 22.002L14.997 15.002L21.997 18.002L18.999 19.001L17.997 22.002V22.002Z" stroke="#888888" stroke-width="1.3" stroke-miterlimit="1.5" stroke-linecap="round" stroke-linejoin="round"/>
<path d="M18.999 19.002L21.997 22.002L18.999 19.002V19.002Z" stroke="#888888" stroke-width="1.3" stroke-miterlimit="1.5" stroke-linecap="round" stroke-linejoin="round"/>
</svg>
