<svg width="162" height="36" viewBox="0 0 162 36" fill="none" xmlns="http://www.w3.org/2000/svg">
<path d="M90.4885 30.4175L88.6758 35.794H88.0768L86.5024 31.2089L84.92 35.794H84.3286L82.5162 30.4175H83.0999L84.6513 35.0414L86.2565 30.4175H86.7865L88.3687 35.0644L89.9432 30.4175H90.4885Z" fill="#E1E1E1"/>
<path d="M95.9413 35.3025V35.794H92.1396V30.4175H95.8261V30.909H92.7078V32.8216H95.4881V33.3055H92.7078V35.3025H95.9413Z" fill="#E1E1E1"/>
<path d="M102.097 33.4786C102.289 33.7063 102.385 33.9995 102.385 34.3579C102.385 34.8188 102.215 35.1733 101.875 35.4218C101.534 35.6703 101.031 35.794 100.365 35.794H97.8922V30.4175H100.212C100.811 30.4175 101.275 30.5378 101.606 30.7787C101.936 31.0195 102.101 31.3599 102.101 31.7999C102.101 32.0971 102.028 32.3493 101.882 32.5566C101.736 32.7639 101.535 32.919 101.279 33.0212C101.633 33.0982 101.905 33.2509 102.097 33.4786ZM98.4606 30.8862V32.8371H100.174C100.609 32.8371 100.944 32.7539 101.18 32.5876C101.415 32.4212 101.533 32.1794 101.533 31.8616C101.533 31.5442 101.415 31.3021 101.18 31.1359C100.944 30.9694 100.609 30.8864 100.174 30.8864H98.4606V30.8862ZM101.448 35.0799C101.694 34.9162 101.817 34.66 101.817 34.312C101.817 33.6411 101.33 33.3057 100.357 33.3057H98.4604V35.3256H100.357C100.839 35.3256 101.203 35.244 101.448 35.0799Z" fill="#E1E1E1"/>
<path d="M106.924 30.4175H109.113C109.682 30.4175 110.183 30.5313 110.619 30.7594C111.054 30.9871 111.392 31.3045 111.632 31.7118C111.873 32.1189 111.994 32.5835 111.994 33.1058C111.994 33.6281 111.873 34.093 111.632 34.4999C111.392 34.907 111.054 35.2247 110.619 35.4526C110.183 35.6803 109.682 35.7942 109.113 35.7942H106.924V30.4175ZM109.083 35.3025C109.554 35.3025 109.966 35.2089 110.319 35.0222C110.673 34.8351 110.946 34.5766 111.141 34.2463C111.336 33.9161 111.433 33.5359 111.433 33.1056C111.433 32.6754 111.336 32.2952 111.141 31.965C110.946 31.6345 110.673 31.3761 110.319 31.1891C109.966 31.0024 109.554 30.9088 109.083 30.9088H107.493V35.3023H109.083V35.3025Z" fill="#E1E1E1"/>
<path d="M117.685 35.3025V35.794H113.883V30.4175H117.57V30.909H114.451V32.8216H117.232V33.3055H114.451V35.3025H117.685Z" fill="#E1E1E1"/>
<path d="M124.029 30.4175L121.648 35.794H121.087L118.706 30.4175H119.321L121.379 35.0873L123.453 30.4175H124.029Z" fill="#E1E1E1"/>
<path d="M129.221 35.3025V35.794H125.419V30.4175H129.106V30.909H125.987V32.8216H128.768V33.3055H125.987V35.3025H129.221Z" fill="#E1E1E1"/>
<path d="M131.172 30.4175H131.74V35.3025H134.751V35.794H131.172V30.4175H131.172Z" fill="#E1E1E1"/>
<path d="M137.105 35.4829C136.672 35.2448 136.334 34.9182 136.091 34.5034C135.848 34.0891 135.726 33.6229 135.726 33.1057C135.726 32.5884 135.848 32.1227 136.091 31.7079C136.334 31.2932 136.672 30.9665 137.105 30.7284C137.537 30.4903 138.02 30.3716 138.553 30.3716C139.085 30.3716 139.565 30.4894 139.993 30.7247C140.42 30.9604 140.757 31.2867 141.003 31.7042C141.248 32.1217 141.372 32.5886 141.372 33.1059C141.372 33.6231 141.248 34.0904 141.003 34.5075C140.757 34.9251 140.42 35.2517 139.993 35.487C139.565 35.7224 139.085 35.8401 138.553 35.8401C138.02 35.8401 137.537 35.7208 137.105 35.4829ZM139.705 35.045C140.048 34.8528 140.316 34.5868 140.511 34.2461C140.706 33.9057 140.803 33.5253 140.803 33.1055C140.803 32.6856 140.706 32.3054 140.511 31.9648C140.316 31.6245 140.048 31.3579 139.705 31.166C139.362 30.9738 138.977 30.878 138.553 30.878C138.128 30.878 137.742 30.9738 137.397 31.166C137.051 31.3581 136.779 31.6245 136.582 31.9648C136.386 32.3052 136.287 32.6856 136.287 33.1055C136.287 33.5253 136.385 33.9055 136.582 34.2461C136.78 34.5868 137.051 34.853 137.397 35.045C137.742 35.237 138.128 35.3329 138.553 35.3329C138.977 35.3329 139.362 35.2372 139.705 35.045Z" fill="#E1E1E1"/>
<path d="M146.886 30.9092C147.275 31.237 147.47 31.6879 147.47 32.261C147.47 32.8346 147.275 33.2839 146.886 33.6089C146.497 33.9344 145.959 34.0969 145.273 34.0969H143.829V35.794H143.261V30.4175H145.273C145.959 30.4177 146.497 30.5818 146.886 30.9092ZM146.479 33.2481C146.76 33.015 146.901 32.6862 146.901 32.261C146.901 31.8258 146.76 31.492 146.479 31.259C146.197 31.026 145.79 30.9094 145.257 30.9094H143.829V33.5975H145.257C145.79 33.5973 146.197 33.4811 146.479 33.2481Z" fill="#E1E1E1"/>
<path d="M153.115 35.3025V35.794H149.313V30.4175H152.999V30.909H149.881V32.8216H152.661V33.3055H149.881V35.3025H153.115Z" fill="#E1E1E1"/>
<path d="M158.737 35.794L157.508 34.0657C157.37 34.0814 157.226 34.089 157.078 34.089H155.634V35.794H155.065V30.4175H157.078C157.764 30.4175 158.301 30.5816 158.691 30.909C159.08 31.2368 159.274 31.6877 159.274 32.2608C159.274 32.6811 159.168 33.0356 158.956 33.3247C158.743 33.6142 158.44 33.8227 158.046 33.9506L159.359 35.794H158.737ZM158.284 33.2517C158.565 33.0163 158.706 32.6858 158.706 32.2606C158.706 31.8254 158.565 31.4916 158.284 31.2586C158.002 31.0256 157.595 30.909 157.062 30.909H155.634V33.6048H157.062C157.595 33.6048 158.002 33.4872 158.284 33.2517Z" fill="#E1E1E1"/>
<path d="M160.692 31.3552C160.613 31.2736 160.573 31.1734 160.573 31.0559C160.573 30.9383 160.613 30.8396 160.692 30.7599C160.771 30.6806 160.867 30.6411 160.98 30.6411C161.093 30.6411 161.19 30.6806 161.272 30.7599C161.354 30.8396 161.395 30.9381 161.395 31.0559C161.395 31.1736 161.354 31.2736 161.272 31.3552C161.19 31.4373 161.093 31.4783 160.98 31.4783C160.867 31.4783 160.771 31.4373 160.692 31.3552ZM161.279 34.032C161.356 34.1113 161.395 34.2098 161.395 34.328C161.395 34.3894 161.386 34.456 161.368 34.5274C161.35 34.5994 161.323 34.6811 161.287 34.7735L160.964 35.8331H160.596L160.857 34.7194C160.775 34.6941 160.708 34.6466 160.657 34.5775C160.606 34.508 160.58 34.4249 160.58 34.328C160.58 34.2098 160.619 34.1113 160.696 34.032C160.772 33.9527 160.87 33.9132 160.987 33.9132C161.105 33.9132 161.203 33.9527 161.279 34.032Z" fill="#E1E1E1"/>
<path d="M159.96 6.43286H145.309V6.95891H159.96V6.43286Z" fill="#E1E1E1"/>
<path d="M159.977 5.45947H145.326V5.98513H159.977V5.45947Z" fill="#E1E1E1"/>
<path d="M159.96 4.48682H145.309V5.01267H159.96V4.48682Z" fill="#E1E1E1"/>
<path d="M159.96 3.51318H145.309V4.03943H159.96V3.51318Z" fill="#E1E1E1"/>
<path d="M160.484 23.1433H144.217V23.6705H160.484V23.1433Z" fill="#E1E1E1"/>
<path d="M160.481 22.1707H144.215V22.6967H160.481V22.1707Z" fill="#E1E1E1"/>
<path d="M160.484 21.196H144.217V21.7217H160.484V21.196Z" fill="#E1E1E1"/>
<path d="M160.484 20.2246H144.218V20.7503H160.484V20.2246Z" fill="#E1E1E1"/>
<path d="M159.556 6.62733L148.448 20.3245L148.856 20.6556L159.964 6.95844L159.556 6.62733Z" fill="#E1E1E1"/>
<path d="M158.208 6.50282L146.94 20.3997L147.348 20.7307L158.616 6.83388L158.208 6.50282Z" fill="#E1E1E1"/>
<path d="M156.77 6.50911L145.547 20.3499L145.956 20.6814L157.179 6.84067L156.77 6.50911Z" fill="#E1E1E1"/>
<path d="M155.297 6.56993L144.222 20.2268L144.63 20.5578L155.705 6.90092L155.297 6.56993Z" fill="#E1E1E1"/>
<path d="M9.41401 3.37743H12.4564L14.9534 10.2948L17.4792 3.37743H20.4929L17.0199 12.4475L20.0622 19.9388L26.4052 3.29126H29.9357L21.5261 23.67H18.7707L14.9821 14.5426L11.1648 23.67H8.40945L0 3.29146H3.50165L9.87331 19.939L12.9157 12.4477L9.41401 3.37743Z" fill="#E1E1E1"/>
<path d="M45.176 20.8286V23.6702H31.1984V3.2915H44.9177V6.13296H34.4129V11.9309H43.5113V14.6002H34.4129V20.8286H45.176Z" fill="#E1E1E1"/>
<path d="M61.3348 20.8286V23.6702H47.3572V3.2915H61.0765V6.13296H50.5717V11.9309H59.6701V14.6002H50.5717V20.8286H61.3348Z" fill="#E1E1E1"/>
<path d="M63.5161 23.6702V3.32011H66.7305V13.7966L76.3169 3.29126H79.8758L71.8395 12.3038L80.3351 23.67H76.7475L69.8591 14.2843L66.7307 17.5276V23.67H63.5161V23.6702Z" fill="#E1E1E1"/>
<path d="M94.4848 13.1935H99.5076V21.5173C98.3594 22.3401 97.0392 22.9716 95.5467 23.4115C94.0541 23.8515 92.5618 24.0716 91.0689 24.0716C88.9638 24.0716 87.0697 23.6266 85.3862 22.737C83.7023 21.8473 82.3819 20.6085 81.4254 19.0199C80.4684 17.4318 79.9902 15.633 79.9902 13.6238C79.9902 11.6148 80.4684 9.81642 81.4254 8.22787C82.3821 6.63971 83.7117 5.40074 85.415 4.51078C87.118 3.62101 89.0407 3.17603 91.1841 3.17603C93.0592 3.17603 94.7429 3.49166 96.2356 4.12311C97.7281 4.75476 98.9716 5.66377 99.9665 6.84993L96.3502 10.122C94.9916 8.62947 93.3654 7.88338 91.4713 7.88338C89.7489 7.88338 88.3614 8.40492 87.3095 9.4476C86.2569 10.4907 85.7309 11.8829 85.7309 13.6238C85.7309 14.7338 85.9699 15.7241 86.4483 16.5946C86.9264 17.4657 87.5965 18.1445 88.4574 18.6325C89.3183 19.1204 90.3034 19.3644 91.4138 19.3644C92.5045 19.3644 93.5277 19.1446 94.4848 18.7043V13.1935Z" fill="#E1E1E1"/>
<path d="M119.254 19.2786V23.6701H103.123V3.57837H118.88V7.9699H108.749V11.3568H117.675V15.6049H108.749V19.2788H119.254V19.2786Z" fill="#E1E1E1"/>
<path d="M141.526 3.57837V23.6701H136.848L127.979 12.964V23.6701H122.411V3.57837H127.089L135.958 14.2845V3.57837H141.526Z" fill="#E1E1E1"/>
<path d="M162 0.159912H81.8629V0.686354H162V0.159912Z" fill="#E1E1E1"/>
<path d="M162 26.7866H81.8629V27.3131H162V26.7866Z" fill="#E1E1E1"/>
</svg>
