<svg width="162" height="28" viewBox="0 0 162 28" fill="none" xmlns="http://www.w3.org/2000/svg">
<path d="M159.959 6.43286H145.309V6.95891H159.959V6.43286Z" fill="#E1E1E1"/>
<path d="M159.977 5.45947H145.325V5.98513H159.977V5.45947Z" fill="#E1E1E1"/>
<path d="M159.959 4.48682H145.309V5.01267H159.959V4.48682Z" fill="#E1E1E1"/>
<path d="M159.959 3.51318H145.309V4.03943H159.959V3.51318Z" fill="#E1E1E1"/>
<path d="M160.484 23.1433H144.217V23.6705H160.484V23.1433Z" fill="#E1E1E1"/>
<path d="M160.481 22.1707H144.215V22.6967H160.481V22.1707Z" fill="#E1E1E1"/>
<path d="M160.484 21.196H144.217V21.7217H160.484V21.196Z" fill="#E1E1E1"/>
<path d="M160.484 20.2246H144.217V20.7503H160.484V20.2246Z" fill="#E1E1E1"/>
<path d="M159.556 6.62733L148.448 20.3245L148.856 20.6556L159.964 6.95844L159.556 6.62733Z" fill="#E1E1E1"/>
<path d="M158.208 6.50282L146.94 20.3997L147.348 20.7307L158.616 6.83388L158.208 6.50282Z" fill="#E1E1E1"/>
<path d="M156.77 6.50911L145.547 20.3499L145.956 20.6814L157.179 6.84067L156.77 6.50911Z" fill="#E1E1E1"/>
<path d="M155.297 6.56993L144.222 20.2268L144.63 20.5578L155.705 6.90092L155.297 6.56993Z" fill="#E1E1E1"/>
<path d="M9.41401 3.37743H12.4564L14.9534 10.2948L17.4792 3.37743H20.4929L17.0199 12.4475L20.0622 19.9388L26.4052 3.29126H29.9357L21.5261 23.67H18.7707L14.9821 14.5426L11.1648 23.67H8.40945L0 3.29146H3.50165L9.87331 19.939L12.9157 12.4477L9.41401 3.37743Z" fill="#E1E1E1"/>
<path d="M45.1758 20.8286V23.6702H31.1982V3.2915H44.9175V6.13296H34.4127V11.9309H43.5111V14.6002H34.4127V20.8286H45.1758Z" fill="#E1E1E1"/>
<path d="M61.335 20.8286V23.6702H47.3574V3.2915H61.0767V6.13296H50.5719V11.9309H59.6703V14.6002H50.5719V20.8286H61.335Z" fill="#E1E1E1"/>
<path d="M63.5161 23.6702V3.32011H66.7306V13.7966L76.3169 3.29126H79.8759L71.8396 12.3038L80.3352 23.67H76.7476L69.8591 14.2843L66.7308 17.5276V23.67H63.5161V23.6702Z" fill="#E1E1E1"/>
<path d="M94.4848 13.1935H99.5076V21.5173C98.3594 22.3401 97.0392 22.9716 95.5467 23.4115C94.0541 23.8515 92.5618 24.0716 91.0689 24.0716C88.9638 24.0716 87.0697 23.6266 85.3862 22.737C83.7023 21.8473 82.3819 20.6085 81.4254 19.0199C80.4684 17.4318 79.9902 15.633 79.9902 13.6238C79.9902 11.6148 80.4684 9.81642 81.4254 8.22787C82.3821 6.63971 83.7117 5.40074 85.415 4.51078C87.118 3.62101 89.0407 3.17603 91.1841 3.17603C93.0592 3.17603 94.7429 3.49166 96.2356 4.12311C97.7281 4.75476 98.9716 5.66377 99.9665 6.84993L96.3502 10.122C94.9916 8.62947 93.3654 7.88338 91.4713 7.88338C89.7489 7.88338 88.3614 8.40492 87.3095 9.4476C86.2569 10.4907 85.7309 11.8829 85.7309 13.6238C85.7309 14.7338 85.9699 15.7241 86.4483 16.5946C86.9264 17.4657 87.5965 18.1445 88.4574 18.6325C89.3183 19.1204 90.3034 19.3644 91.4138 19.3644C92.5045 19.3644 93.5277 19.1446 94.4848 18.7043V13.1935V13.1935Z" fill="#E1E1E1"/>
<path d="M119.254 19.2786V23.6701H103.124V3.57837H118.881V7.9699H108.749V11.3568H117.675V15.6049H108.749V19.2788H119.254V19.2786Z" fill="#E1E1E1"/>
<path d="M141.526 3.57837V23.6701H136.847L127.979 12.964V23.6701H122.411V3.57837H127.089L135.958 14.2845V3.57837H141.526Z" fill="#E1E1E1"/>
<path d="M162 0.159912H81.8628V0.686354H162V0.159912Z" fill="#E1E1E1"/>
<path d="M162 26.7866H81.8628V27.3131H162V26.7866Z" fill="#E1E1E1"/>
</svg>
